<svg width="18" height="18" viewBox="0 0 18 18" fill="none" xmlns="http://www.w3.org/2000/svg">
<g clip-path="url(#clip0_324_28288)">
<path d="M2.70083 12.9009H0.901073C0.404313 12.9014 0.00172318 13.304 0.00119591 13.8008V17.7002C0.00119591 17.8659 0.135474 18.0002 0.301143 18.0002H3.30072C3.46639 18.0002 3.60067 17.8659 3.60067 17.7002V13.8008C3.60014 13.304 3.19759 12.9014 2.70083 12.9009ZM3.00077 17.4003H0.60109V13.8008C0.601301 13.6352 0.735474 13.501 0.901038 13.5008H2.70079C2.86636 13.501 3.00053 13.6352 3.00074 13.8008L3.00077 17.4003Z" fill="#1A1A1A"/>
<path d="M7.50016 8.70142H5.70041C5.20365 8.70194 4.80106 9.10453 4.80053 9.60129V17.7002C4.80053 17.8659 4.93481 18.0001 5.10048 18.0001H8.10005C8.26572 18.0001 8.4 17.8659 8.4 17.7002V9.60129C8.39948 9.1045 7.99692 8.70194 7.50016 8.70142ZM7.80011 17.4002H5.40042V9.60129C5.40063 9.43573 5.53481 9.30156 5.70037 9.30135H7.50013C7.66569 9.30156 7.79986 9.43573 7.80007 9.60129L7.80011 17.4002Z" fill="#1A1A1A"/>
<path d="M12.2995 10.5012H10.4997C10.003 10.5017 9.60039 10.9043 9.59986 11.4011V17.7002C9.59986 17.8659 9.73414 18.0002 9.89981 18.0002H12.8994C13.0651 18.0002 13.1993 17.8659 13.1993 17.7002V11.4011C13.1988 10.9043 12.7963 10.5017 12.2995 10.5012ZM12.5995 17.4003H10.1998V11.4011C10.2 11.2355 10.3342 11.1014 10.4997 11.1011H12.2995C12.4651 11.1014 12.5992 11.2355 12.5994 11.4011L12.5995 17.4003Z" fill="#1A1A1A"/>
<path d="M17.0989 8.10132H15.2991C14.8023 8.10185 14.3998 8.50444 14.3992 9.0012V17.7C14.3992 17.8657 14.5335 18 14.6992 18H17.6988C17.8644 18 17.9987 17.8657 17.9987 17.7V9.0012C17.9982 8.50444 17.5956 8.10185 17.0989 8.10132ZM17.3988 17.4H14.9991V9.0012C14.9993 8.83563 15.1335 8.70146 15.2991 8.70125H17.0988C17.2644 8.70146 17.3986 8.83563 17.3988 9.0012V17.4H17.3988Z" fill="#1A1A1A"/>
<path d="M14.8555 3.59564C15.405 4.21417 16.3056 4.37805 17.0378 3.99271C17.7699 3.60738 18.1448 2.77226 17.9461 1.96908C17.7474 1.16591 17.0263 0.601936 16.199 0.602428C15.5983 0.601971 15.0371 0.901391 14.703 1.40058C14.369 1.89976 14.3062 2.53277 14.5357 3.08785L12.7432 4.2083C12.4207 3.84269 11.963 3.62433 11.4759 3.60359C10.9888 3.58285 10.5143 3.76159 10.1619 4.09849L8.19865 2.62603C8.61372 1.8232 8.36893 0.837064 7.6266 0.321533C6.88427 -0.193998 5.87472 -0.0789824 5.26741 0.590336C4.6601 1.25965 4.64344 2.2756 5.22846 2.96446L2.71366 5.95297C1.90728 5.4785 0.871826 5.70104 0.331584 6.46492C-0.208659 7.22879 -0.0735365 8.27922 0.642498 8.88147C1.35853 9.48372 2.41656 9.4369 3.0766 8.77377C3.73663 8.11064 3.77846 7.05237 3.17284 6.33918L5.68764 3.35067C6.37812 3.76142 7.25782 3.6611 7.8381 3.10542L9.80138 4.57788C9.41929 5.318 9.59511 6.22364 10.2264 6.76701C10.8577 7.31038 11.7794 7.3494 12.4544 6.86135C13.1294 6.37331 13.3812 5.48581 13.063 4.71603L14.8555 3.59564ZM16.199 1.20236C16.8616 1.20236 17.3988 1.73954 17.3988 2.40218C17.398 3.06451 16.8613 3.60127 16.199 3.60201C15.5363 3.60201 14.9992 3.06482 14.9992 2.40218C14.9992 1.73954 15.5363 1.20236 16.199 1.20236ZM1.80095 8.70136C1.13831 8.70136 0.601125 8.16417 0.601125 7.50153C0.601125 6.83889 1.13831 6.30171 1.80095 6.30171C2.46359 6.30171 3.00077 6.83889 3.00077 7.50153C3 8.16386 2.46327 8.70058 1.80095 8.70136ZM6.60028 3.00211C5.93764 3.00211 5.40046 2.46493 5.40046 1.80229C5.40046 1.13965 5.93764 0.602463 6.60028 0.602463C7.26292 0.602463 7.80011 1.13965 7.80011 1.80229C7.79937 2.46461 7.2626 3.00137 6.60028 3.00211ZM11.3996 6.60162C10.737 6.60162 10.1998 6.06444 10.1998 5.4018C10.1998 4.73916 10.737 4.20197 11.3996 4.20197C12.0623 4.20197 12.5994 4.73916 12.5994 5.4018C12.5987 6.06412 12.062 6.60088 11.3996 6.60162Z" fill="#1A1A1A"/>
</g>
<defs>
<clipPath id="clip0_324_28288">
<rect width="18" height="18" fill="white"/>
</clipPath>
</defs>
</svg>
