<svg width="18" height="18" viewBox="0 0 18 18" fill="none" xmlns="http://www.w3.org/2000/svg">
<g clip-path="url(#clip0_324_29802)">
<path d="M16.0605 1.12968H14.6109V0.527344C14.6109 0.236109 14.3748 0 14.0836 0C13.7924 0 13.5563 0.236109 13.5563 0.527344V1.12968H11.2219V0.527344C11.2219 0.236109 10.9858 0 10.6945 0C10.4033 0 10.1672 0.236109 10.1672 0.527344V1.12968H7.83281V0.527344C7.83281 0.236109 7.5967 0 7.30547 0C7.01423 0 6.77813 0.236109 6.77813 0.527344V1.12968H4.44375V0.527344C4.44375 0.236109 4.20764 0 3.91641 0C3.62517 0 3.38906 0.236109 3.38906 0.527344V1.12968H1.93943C0.870047 1.12968 0 1.99969 0 3.06914V16.0605C0 17.13 0.870047 18 1.93943 18H16.0605C17.1299 18 18 17.13 18 16.0605V3.06914C18 1.99969 17.1299 1.12968 16.0605 1.12968ZM1.93943 2.18436H3.38906V2.78673C3.38906 3.07796 3.62517 3.31407 3.91641 3.31407C4.20764 3.31407 4.44375 3.07796 4.44375 2.78673V2.18436H6.77805V2.78673C6.77805 3.07796 7.01416 3.31407 7.3054 3.31407C7.59663 3.31407 7.83274 3.07796 7.83274 2.78673V2.18436H10.1671V2.78673C10.1671 3.07796 10.4032 3.31407 10.6945 3.31407C10.9857 3.31407 11.2218 3.07796 11.2218 2.78673V2.18436H13.5562V2.78673C13.5562 3.07796 13.7923 3.31407 14.0835 3.31407C14.3748 3.31407 14.6109 3.07796 14.6109 2.78673V2.18436H16.0604C16.5484 2.18436 16.9453 2.58128 16.9453 3.06914V4.51874H1.05469V3.06914C1.05469 2.58128 1.4516 2.18436 1.93943 2.18436ZM16.0605 16.9453H1.93943C1.4516 16.9453 1.05469 16.5484 1.05469 16.0605V5.57343H16.9453V16.0605C16.9453 16.5484 16.5484 16.9453 16.0605 16.9453Z" fill="#1A1A1A"/>
<path d="M5.32849 7.34277H3.06911C2.77787 7.34277 2.54176 7.57888 2.54176 7.87012V10.1295C2.54176 10.4207 2.77787 10.6568 3.06911 10.6568H5.32853C5.61976 10.6568 5.85587 10.4207 5.85587 10.1295V7.87012C5.85584 7.57888 5.61976 7.34277 5.32849 7.34277ZM4.80115 9.60212H3.59642V8.39746H4.80115V9.60212Z" fill="#1A1A1A"/>
<path d="M14.9308 7.34277H12.6715C12.3802 7.34277 12.1441 7.57888 12.1441 7.87012V10.1295C12.1441 10.4207 12.3802 10.6568 12.6715 10.6568H14.9308C15.2221 10.6568 15.4582 10.4207 15.4582 10.1295V7.87012C15.4582 7.57888 15.2221 7.34277 14.9308 7.34277ZM14.4035 9.60212H13.1988V8.39746H14.4035V9.60212Z" fill="#1A1A1A"/>
<path d="M5.32849 11.8613H3.06911C2.77787 11.8613 2.54176 12.0974 2.54176 12.3887V14.648C2.54176 14.9393 2.77787 15.1754 3.06911 15.1754H5.32853C5.61976 15.1754 5.85587 14.9393 5.85587 14.648V12.3887C5.85584 12.0974 5.61976 11.8613 5.32849 11.8613ZM4.80115 14.1207H3.59642V12.916H4.80115V14.1207Z" fill="#1A1A1A"/>
<path d="M14.9308 11.8613H12.6715C12.3802 11.8613 12.1441 12.0974 12.1441 12.3887V14.648C12.1441 14.9393 12.3802 15.1754 12.6715 15.1754H14.9308C15.2221 15.1754 15.4582 14.9393 15.4582 14.648V12.3887C15.4582 12.0974 15.2221 11.8613 14.9308 11.8613ZM14.4035 14.1207H13.1988V12.916H14.4035V14.1207Z" fill="#1A1A1A"/>
<path d="M10.1297 11.8613H7.87025C7.57902 11.8613 7.34291 12.0974 7.34291 12.3887V14.648C7.34291 14.9393 7.57902 15.1754 7.87025 15.1754H10.1297C10.4209 15.1754 10.657 14.9393 10.657 14.648V12.3887C10.657 12.0974 10.4209 11.8613 10.1297 11.8613ZM9.60233 14.1207H8.3976V12.916H9.60233V14.1207Z" fill="#1A1A1A"/>
<path d="M9.82529 7.82829L8.60066 9.05299L8.17471 8.62704C7.9688 8.42109 7.63488 8.42109 7.42894 8.62704C7.22299 8.83298 7.22299 9.16686 7.42894 9.37281L8.22779 10.1717C8.32669 10.2706 8.46081 10.3261 8.60066 10.3261C8.74055 10.3261 8.87467 10.2706 8.97356 10.1717L10.5711 8.57406C10.777 8.36811 10.777 8.03423 10.5711 7.82829C10.3651 7.62234 10.0312 7.62234 9.82529 7.82829Z" fill="#1A1A1A"/>
</g>
<defs>
<clipPath id="clip0_324_29802">
<rect width="18" height="18" fill="white"/>
</clipPath>
</defs>
</svg>
