<svg width="18" height="18" viewBox="0 0 18 18" fill="none" xmlns="http://www.w3.org/2000/svg">
<g clip-path="url(#clip0_324_28993)">
<path d="M13.7981 7.27832C14.1548 7.05389 14.41 6.70879 14.5197 6.2995C14.635 5.86919 14.5758 5.41972 14.3531 5.03391C13.9042 4.25643 12.9196 3.97726 12.1319 4.39235L10.6341 1.79803C10.436 1.4549 10.1149 1.20916 9.73016 1.10605C9.34534 1.00293 8.94442 1.05525 8.60137 1.25339C8.25824 1.45149 8.0125 1.7725 7.90939 2.15725C7.83169 2.44719 7.84234 2.74626 7.93702 3.02287C7.22556 4.81577 5.71982 6.64421 3.67548 8.20406C3.64377 8.18282 3.60872 8.16641 3.5711 8.15632C3.48107 8.13216 3.38509 8.14482 3.30434 8.19144L1.39303 9.29496C0.750026 9.66621 0.289409 10.2681 0.0960493 10.9897C-0.0973101 11.7113 0.000635251 12.4629 0.37192 13.1059C0.888084 13.9999 1.82767 14.5003 2.7926 14.5003C3.26556 14.5003 3.74464 14.38 4.18282 14.127L4.29223 14.0639L6.40006 16.8159C6.54567 17.006 6.7487 17.1179 6.98734 17.1395C7.01445 17.142 7.04127 17.1432 7.06785 17.1432C7.2752 17.1432 7.46578 17.0691 7.62304 16.9264L8.20354 16.3997C8.52655 16.1065 8.57092 15.6237 8.30672 15.2766L6.32479 12.6726C8.67885 11.6992 10.9937 11.3177 12.8872 11.596C13.1741 11.9243 13.5872 12.1044 14.0098 12.1044C14.262 12.1044 14.5176 12.0403 14.7513 11.9053C15.4619 11.4951 15.7062 10.5833 15.296 9.87264L13.7981 7.27832ZM13.7441 5.38548C13.873 5.60865 13.9072 5.86863 13.8405 6.11753C13.7795 6.34538 13.6403 6.53874 13.4461 6.66871L12.4838 5.00196C12.935 4.78019 13.4891 4.9437 13.7441 5.38548ZM2.79144 13.7973C2.06979 13.7972 1.36688 13.423 0.980791 12.7543C0.703444 12.274 0.630424 11.7119 0.775198 11.1717C0.919936 10.6315 1.26419 10.1812 1.74456 9.9039L3.35141 8.97616L5.43808 12.5904L3.83122 13.5181C3.50346 13.7074 3.14529 13.7973 2.79144 13.7973ZM7.731 15.879L7.15054 16.4057C7.11985 16.4335 7.09169 16.443 7.05059 16.4392C7.00932 16.4355 6.98344 16.4212 6.95823 16.3884L4.9063 13.7094L5.82606 13.1783L7.74721 15.7024C7.78876 15.757 7.78177 15.8329 7.731 15.879ZM5.94823 12.0677L4.05921 8.79577C6.02694 7.30286 7.52935 5.55943 8.36009 3.8115L12.4152 10.8352C10.4861 10.6807 8.22495 11.11 5.94823 12.0677ZM14.3997 11.2964C14.0248 11.5129 13.5439 11.3839 13.3275 11.0091L8.6656 2.93445C8.44921 2.55962 8.57809 2.07864 8.95289 1.86226C9.07267 1.7931 9.20609 1.75777 9.34176 1.75777C9.41045 1.75777 9.47978 1.76684 9.54816 1.78516C9.75154 1.83965 9.92096 1.96906 10.0251 2.14955L14.687 10.2242C14.9034 10.599 14.7745 11.08 14.3997 11.2964ZM14.782 4.78624C14.6849 4.61809 14.7426 4.40307 14.9107 4.306L16.322 3.49119C16.4902 3.39409 16.7052 3.45174 16.8023 3.61986C16.8994 3.78801 16.8417 4.00303 16.6736 4.10009L15.2623 4.91491C15.2069 4.94687 15.1465 4.96209 15.0869 4.96209C14.9653 4.96209 14.8472 4.89902 14.782 4.78624ZM13.155 2.522L14.0145 1.03327C14.1116 0.865155 14.3266 0.807464 14.4947 0.904601C14.6629 1.00167 14.7205 1.21668 14.6234 1.38484L13.7639 2.87356C13.6988 2.98634 13.5806 3.04941 13.4591 3.04941C13.3995 3.04941 13.3391 3.03423 13.2837 3.00223C13.1155 2.90517 13.0579 2.69015 13.155 2.522ZM18 6.97591C18 7.17008 17.8426 7.32747 17.6484 7.32747H15.9294C15.7353 7.32747 15.5779 7.17008 15.5779 6.97591C15.5779 6.78174 15.7353 6.62435 15.9294 6.62435H17.6484C17.8426 6.62435 18 6.78174 18 6.97591Z" fill="#1A1A1A"/>
</g>
<defs>
<clipPath id="clip0_324_28993">
<rect width="18" height="18" fill="white"/>
</clipPath>
</defs>
</svg>
