<svg width="18" height="18" viewBox="0 0 18 18" fill="none" xmlns="http://www.w3.org/2000/svg">
<g clip-path="url(#clip0_324_28745)">
<path d="M12.8672 13.9219C12.6731 13.9219 12.5156 14.0794 12.5156 14.2734C12.5156 14.4675 12.6731 14.625 12.8672 14.625C13.0612 14.625 13.2188 14.4675 13.2188 14.2734C13.2188 14.0794 13.0612 13.9219 12.8672 13.9219Z" fill="#1A1A1A"/>
<path d="M13.7328 12.785L12.0618 12.2282L11.462 11.0284C12.0024 10.4783 12.3776 9.75052 12.5041 8.99139L12.5789 8.54297H13.2188C13.8003 8.54297 14.2734 8.06984 14.2734 7.48828V5.27344C14.2734 2.36566 11.9078 0 9 0C6.08477 0 3.72656 2.35888 3.72656 5.27344V7.48828C3.72656 7.94658 4.0205 8.33737 4.42969 8.4825V8.89453C4.42969 9.47609 4.90282 9.94922 5.48438 9.94922H5.79312C5.94552 10.2803 6.14278 10.5869 6.38283 10.8624C6.43261 10.9196 6.48454 10.9751 6.53773 11.029L5.93817 12.2282L4.26716 12.7851C2.32425 13.4329 0.914062 15.4783 0.914062 17.6484C0.914062 17.8426 1.07146 18 1.26562 18H16.7344C16.9285 18 17.0859 17.8426 17.0859 17.6484C17.0859 15.4783 15.6758 13.4329 13.7328 12.785ZM13.5703 7.48828C13.5703 7.68213 13.4126 7.83984 13.2188 7.83984H12.6822C12.7716 7.14762 12.8311 6.41099 12.8551 5.68547C12.8558 5.66501 12.8563 5.64511 12.857 5.625H13.5703V7.48828ZM4.78125 7.83984C4.5874 7.83984 4.42969 7.68213 4.42969 7.48828V5.625H5.14329C5.14445 5.66167 5.14568 5.69851 5.14705 5.7356C5.14709 5.73687 5.14716 5.7381 5.14719 5.73936C5.14719 5.73947 5.14719 5.73957 5.14719 5.73968C5.1718 6.44534 5.23058 7.16284 5.31791 7.83981H4.78125V7.83984ZM5.48438 9.24609C5.29052 9.24609 5.13281 9.08838 5.13281 8.89453V8.54297H5.42102L5.49584 8.99153C5.51011 9.07678 5.52765 9.16172 5.54794 9.24609H5.48438ZM5.13341 4.92188H4.44305C4.62111 2.56567 6.58747 0.703125 9 0.703125C11.4018 0.703125 13.3768 2.56542 13.5569 4.92188H12.8666C12.8413 2.9803 11.2602 1.40625 9.31468 1.40625H8.68539C6.73987 1.40625 5.15869 2.9803 5.13341 4.92188ZM8.68535 2.10938H9.31465C10.89 2.10938 12.165 3.39789 12.1641 4.97145C12.1641 5.08208 12.1632 5.17841 12.1613 5.26605C12.1613 5.26718 12.1613 5.26834 12.1613 5.2695L11.7216 5.20668C10.5269 5.0361 9.39899 4.47212 8.54546 3.6186C8.47951 3.55268 8.39011 3.51562 8.29688 3.51562C7.35272 3.51562 6.44892 3.9458 5.85148 4.67255C5.99871 3.24102 7.20889 2.10938 8.68535 2.10938ZM6.2768 9.24609C6.1008 8.66064 5.89943 6.93798 5.85492 5.83407L6.32809 5.20316C6.76266 4.62393 7.43875 4.26403 8.15794 4.22272C9.10424 5.12329 10.3284 5.71799 11.6221 5.9027L12.1397 5.97667C12.1051 6.71091 12.0344 7.44771 11.9331 8.12535C11.9331 8.12556 11.9331 8.1258 11.933 8.12605C11.9008 8.34391 11.8754 8.48412 11.8106 8.87572C11.6244 9.99246 10.7911 11.0023 9.69114 11.2774C9.23843 11.3904 8.7615 11.3903 8.30904 11.2774C7.62219 11.1056 6.9924 10.6304 6.58596 9.94922H7.30266C7.44778 10.3584 7.83854 10.6523 8.29688 10.6523H9C9.58272 10.6523 10.0547 10.1804 10.0547 9.59766C10.0547 9.0161 9.58155 8.54297 9 8.54297H8.29688C7.82835 8.54297 7.44335 8.84559 7.30206 9.24609H6.2768ZM8.26731 11.9888C8.50845 12.0396 8.75429 12.0656 9 12.0656C9.19234 12.0656 9.38472 12.0495 9.57491 12.0183L8.9537 12.6753L8.26731 11.9888ZM8.47037 13.1864L7.35529 14.3656C7.0483 13.778 6.78452 13.1664 6.56817 12.5404L6.98692 11.7029L8.47037 13.1864ZM10.9535 11.5838L11.4318 12.5403C11.2151 13.1675 10.9512 13.7792 10.6445 14.3661L9.45105 13.1726L10.9535 11.5838ZM7.94531 9.59766C7.94531 9.40356 8.10274 9.24609 8.29688 9.24609H9C9.19385 9.24609 9.35156 9.4038 9.35156 9.59766C9.35156 9.79179 9.1941 9.94922 9 9.94922H8.29688C8.10302 9.94922 7.94531 9.79151 7.94531 9.59766ZM1.63125 17.2969C1.77057 15.5553 2.92964 13.9723 4.48952 13.4521L5.96939 12.9589C6.24052 13.7086 6.5764 14.4373 6.97004 15.1295C6.97071 15.1307 6.97134 15.1318 6.97201 15.133L6.97205 15.1331C7.25966 15.6389 7.58338 16.1333 7.93434 16.6026L8.36684 17.2969H1.63125ZM9 16.9835L8.52321 16.218C8.51787 16.2095 8.51217 16.2011 8.50612 16.193C8.22143 15.8133 7.95586 15.4161 7.71398 15.0096L8.96776 13.6837L10.2889 15.0048C10.0454 15.4143 9.77889 15.8131 9.49395 16.193C9.47672 16.2159 9.50115 16.1798 9 16.9835ZM9.63316 17.2969L10.0656 16.6026C10.4181 16.1315 10.7442 15.6332 11.0347 15.1214C11.0364 15.1183 11.0381 15.1151 11.0398 15.1121C11.04 15.1117 11.0403 15.1113 11.0405 15.1109C11.4291 14.4254 11.7615 13.703 12.0306 12.9589L13.5104 13.4521C15.0704 13.9723 16.2294 15.5553 16.3688 17.2969H9.63316Z" fill="#1A1A1A"/>
<path d="M15.3122 15.8742C15.0772 15.4039 14.7331 14.9861 14.3169 14.666C14.163 14.5475 13.9423 14.5763 13.8239 14.7303C13.7055 14.8842 13.7343 15.1049 13.8882 15.2233C14.2206 15.479 14.4954 15.8127 14.6831 16.1884C14.7701 16.3624 14.9813 16.4324 15.1547 16.3458C15.3284 16.2591 15.3989 16.0479 15.3122 15.8742Z" fill="#1A1A1A"/>
</g>
<defs>
<clipPath id="clip0_324_28745">
<rect width="18" height="18" fill="white"/>
</clipPath>
</defs>
</svg>
