<svg width="18" height="18" viewBox="0 0 18 18" fill="none" xmlns="http://www.w3.org/2000/svg">
<g clip-path="url(#clip0_324_28633)">
<path d="M6.75 7.5C4.68225 7.5 3 5.81775 3 3.75C3 1.68225 4.68225 0 6.75 0C8.81775 0 10.5 1.68225 10.5 3.75C10.5 5.81775 8.81775 7.5 6.75 7.5ZM6.75 0.75C5.0955 0.75 3.75 2.0955 3.75 3.75C3.75 5.4045 5.0955 6.75 6.75 6.75C8.4045 6.75 9.75 5.4045 9.75 3.75C9.75 2.0955 8.4045 0.75 6.75 0.75Z" fill="#1A1A1A"/>
<path d="M6.375 15.75H0.375C0.168 15.75 0 15.582 0 15.375V12.375C0 10.5143 1.51425 9 3.375 9H7.875C8.082 9 8.25 9.168 8.25 9.375C8.25 9.582 8.082 9.75 7.875 9.75H3.375C1.9275 9.75 0.75 10.9275 0.75 12.375V15H6.375C6.582 15 6.75 15.168 6.75 15.375C6.75 15.582 6.582 15.75 6.375 15.75Z" fill="#1A1A1A"/>
<path d="M12.75 15C11.7165 15 10.875 14.1585 10.875 13.125C10.875 12.0915 11.7165 11.25 12.75 11.25C13.7835 11.25 14.625 12.0915 14.625 13.125C14.625 14.1585 13.7835 15 12.75 15ZM12.75 12C12.1298 12 11.625 12.5048 11.625 13.125C11.625 13.7453 12.1298 14.25 12.75 14.25C13.3703 14.25 13.875 13.7453 13.875 13.125C13.875 12.5048 13.3703 12 12.75 12Z" fill="#1A1A1A"/>
<path d="M13.0941 18.1868H11.8979C11.5109 18.1868 11.1899 17.8965 11.1516 17.511L11.0564 16.5577C10.8291 16.4565 10.6124 16.3305 10.4076 16.1805L9.5316 16.5757C9.17985 16.7362 8.7666 16.602 8.57385 16.2668L7.9761 15.231C7.7826 14.8958 7.8741 14.4727 8.1876 14.247L8.95935 13.692C8.94435 13.5757 8.93385 13.4467 8.93385 13.3117C8.93385 13.1767 8.94435 13.047 8.95935 12.9315L8.1876 12.3765C7.8741 12.1507 7.7826 11.7277 7.9761 11.3925L8.57385 10.3568C8.76735 10.0215 9.17835 9.88875 9.5316 10.0477L10.4076 10.443C10.6124 10.293 10.8291 10.167 11.0564 10.0657L11.1516 9.1125C11.1899 8.72775 11.5109 8.4375 11.8979 8.4375H13.0941C13.4811 8.4375 13.8021 8.72775 13.8404 9.11325L13.9356 10.0665C14.1636 10.1678 14.3804 10.2945 14.5844 10.4437L15.4604 10.0485C15.8136 9.89025 16.2254 10.023 16.4181 10.3575L17.0159 11.3932C17.2094 11.7285 17.1179 12.1515 16.8044 12.3772L16.0326 12.9322C16.0476 13.0485 16.0581 13.1775 16.0581 13.3125C16.0581 13.4475 16.0476 13.5772 16.0326 13.6927L16.8044 14.2477C17.1179 14.4735 17.2094 14.8965 17.0159 15.2317L16.4189 16.2668C16.2254 16.6012 15.8151 16.7355 15.4611 16.5757L14.5851 16.1805C14.3804 16.3305 14.1636 16.4565 13.9364 16.5577L13.8404 17.5118C13.8021 17.8965 13.4811 18.1868 13.0941 18.1868ZM10.4601 15.3705C10.5464 15.3705 10.6319 15.4005 10.7009 15.4582C10.9551 15.6712 11.2364 15.834 11.5356 15.9435C11.6706 15.993 11.7659 16.1153 11.7801 16.2585L11.8986 17.4368H13.0949L13.2126 16.2585C13.2269 16.1153 13.3221 15.993 13.4571 15.9435C13.7564 15.834 14.0376 15.6705 14.2919 15.4582C14.4029 15.366 14.5559 15.345 14.6864 15.4043L15.7694 15.8932L16.3671 14.8575L15.4086 14.169C15.2916 14.085 15.2339 13.941 15.2579 13.7992C15.2856 13.641 15.3081 13.4798 15.3081 13.3133C15.3081 13.1468 15.2856 12.9855 15.2579 12.8273C15.2331 12.6855 15.2916 12.5423 15.4086 12.4575L16.3671 11.769L15.7694 10.7332L14.6864 11.2215C14.5551 11.2808 14.4021 11.2597 14.2911 11.1675C14.0376 10.9545 13.7571 10.7918 13.4564 10.6823C13.3214 10.6328 13.2261 10.5105 13.2119 10.3672L13.0941 9.18675H11.8979L11.7801 10.365C11.7659 10.5082 11.6706 10.6305 11.5356 10.68C11.2364 10.7895 10.9551 10.953 10.7009 11.1652C10.5906 11.2575 10.4376 11.2792 10.3064 11.2192L9.22335 10.7302L8.6256 11.766L9.5841 12.4545C9.7011 12.5385 9.75885 12.6825 9.73485 12.8243C9.7071 12.9825 9.6846 13.1437 9.6846 13.3102C9.6846 13.4767 9.7071 13.638 9.73485 13.7962C9.7596 13.938 9.7011 14.0813 9.5841 14.166L8.6256 14.8545L9.22335 15.8902L10.3064 15.402C10.3559 15.381 10.4076 15.3705 10.4601 15.3705Z" fill="#1A1A1A"/>
</g>
<defs>
<clipPath id="clip0_324_28633">
<rect width="18" height="18" fill="white"/>
</clipPath>
</defs>
</svg>
