<svg width="18" height="18" viewBox="0 0 18 18" fill="none" xmlns="http://www.w3.org/2000/svg">
<path d="M16.065 12.3272H3.22031C2.46938 12.3272 1.86188 11.7169 1.86188 10.9688V4.73344C1.86188 3.9825 2.47219 3.375 3.22031 3.375H16.065C16.8159 3.375 17.4234 3.98531 17.4234 4.73344V10.9688C17.4234 11.7197 16.8131 12.3272 16.065 12.3272ZM3.22031 3.9375C2.78156 3.9375 2.42438 4.29469 2.42438 4.73344V10.9688C2.42438 11.4075 2.78156 11.7647 3.22031 11.7647H16.065C16.5038 11.7647 16.8609 11.4075 16.8609 10.9688V4.73344C16.8609 4.29469 16.5038 3.9375 16.065 3.9375H3.22031Z" fill="#1A1A1A"/>
<path d="M3.60563 12.0234C3.45094 12.0234 3.32438 11.8969 3.32438 11.7422V3.65625C3.32438 3.50156 3.45094 3.375 3.60563 3.375C3.76032 3.375 3.88688 3.50156 3.88688 3.65625V11.7422C3.88688 11.8969 3.76313 12.0234 3.60563 12.0234Z" fill="#1A1A1A"/>
<path d="M15.4181 12.0234C15.2634 12.0234 15.1369 11.8969 15.1369 11.7422V3.65625C15.1369 3.50156 15.2634 3.375 15.4181 3.375C15.5728 3.375 15.6994 3.50156 15.6994 3.65625V11.7422C15.6994 11.8969 15.5756 12.0234 15.4181 12.0234Z" fill="#1A1A1A"/>
<path d="M9.64125 7.5293C8.94375 7.5293 8.37563 6.96117 8.37563 6.26367C8.37563 5.56617 8.94375 4.99805 9.64125 4.99805C10.3388 4.99805 10.9069 5.56617 10.9069 6.26367C10.9069 6.96117 10.3388 7.5293 9.64125 7.5293ZM9.64125 5.56055C9.25313 5.56055 8.93813 5.87555 8.93813 6.26367C8.93813 6.6518 9.25313 6.9668 9.64125 6.9668C10.0294 6.9668 10.3444 6.6518 10.3444 6.26367C10.3444 5.87555 10.0294 5.56055 9.64125 5.56055Z" fill="#1A1A1A"/>
<path d="M11.7141 10.4996H7.57125C7.41656 10.4996 7.29 10.373 7.29 10.2183C7.29 8.92176 8.34469 7.86426 9.64406 7.86426C10.9434 7.86426 11.9981 8.91895 11.9981 10.2183C11.9953 10.3758 11.8688 10.4996 11.7141 10.4996ZM7.87219 9.93707H11.4103C11.2753 9.08207 10.5328 8.42676 9.64125 8.42676C8.74969 8.42676 8.00719 9.08207 7.87219 9.93707Z" fill="#1A1A1A"/>
<path d="M5.36063 6.345C5.20594 6.345 5.07938 6.21844 5.07938 6.06375V4.99219C5.07938 4.8375 5.20594 4.71094 5.36063 4.71094H6.60938C6.76406 4.71094 6.89063 4.8375 6.89063 4.99219C6.89063 5.14687 6.76406 5.27344 6.60938 5.27344H5.64188V6.06375C5.64188 6.22125 5.51813 6.345 5.36063 6.345Z" fill="#1A1A1A"/>
<path d="M13.9219 6.345C13.7672 6.345 13.6406 6.21844 13.6406 6.06375V5.27344H12.6731C12.5184 5.27344 12.3919 5.14687 12.3919 4.99219C12.3919 4.8375 12.5184 4.71094 12.6731 4.71094H13.9219C14.0766 4.71094 14.2031 4.8375 14.2031 4.99219V6.06375C14.2031 6.22125 14.0766 6.345 13.9219 6.345Z" fill="#1A1A1A"/>
<path d="M6.60938 11.1263H5.36063C5.20594 11.1263 5.07938 10.9997 5.07938 10.845V9.77344C5.07938 9.61875 5.20594 9.49219 5.36063 9.49219C5.51531 9.49219 5.64188 9.61875 5.64188 9.77344V10.5638H6.60938C6.76406 10.5638 6.89063 10.6903 6.89063 10.845C6.89063 10.9997 6.76406 11.1263 6.60938 11.1263Z" fill="#1A1A1A"/>
<path d="M13.9219 11.1263H12.6731C12.5184 11.1263 12.3919 10.9997 12.3919 10.845C12.3919 10.6903 12.5184 10.5638 12.6731 10.5638H13.6406V9.77344C13.6406 9.61875 13.7672 9.49219 13.9219 9.49219C14.0766 9.49219 14.2031 9.61875 14.2031 9.77344V10.845C14.2031 11.0025 14.0766 11.1263 13.9219 11.1263Z" fill="#1A1A1A"/>
<path d="M11.9166 13.8881H7.36875C7.21406 13.8881 7.0875 13.7615 7.0875 13.6068V12.0459C7.0875 11.8912 7.21406 11.7646 7.36875 11.7646C7.52344 11.7646 7.65 11.8912 7.65 12.0459V13.3256H11.6353V12.0459C11.6353 11.8912 11.7619 11.7646 11.9166 11.7646C12.0713 11.7646 12.1978 11.8912 12.1978 12.0459V13.6068C12.1978 13.7615 12.0713 13.8881 11.9166 13.8881Z" fill="#1A1A1A"/>
<path d="M11.9166 3.82754H7.36875C7.21406 3.82754 7.0875 3.70098 7.0875 3.54629V1.98535C7.0875 1.83066 7.21406 1.7041 7.36875 1.7041H11.9166C12.0713 1.7041 12.1978 1.83066 12.1978 1.98535V3.54629C12.1978 3.70379 12.0713 3.82754 11.9166 3.82754ZM7.65 3.26504H11.6353V2.2666H7.65V3.26504Z" fill="#1A1A1A"/>
<path d="M10.4681 17.4202H8.81438C8.65969 17.4202 8.53313 17.2936 8.53313 17.1389V13.6064C8.53313 13.4518 8.65969 13.3252 8.81438 13.3252H10.4681C10.6228 13.3252 10.7494 13.4518 10.7494 13.6064V17.1389C10.7494 17.2936 10.6228 17.4202 10.4681 17.4202ZM9.09563 16.8577H10.1869V13.8877H9.09563V16.8577Z" fill="#1A1A1A"/>
</svg>
