<svg width="18" height="18" viewBox="0 0 18 18" fill="none" xmlns="http://www.w3.org/2000/svg">
<path d="M12.6844 8.82734C12.6844 8.69094 12.7951 8.58125 12.9305 8.58125C13.0669 8.58125 13.1766 8.69094 13.1766 8.82734V8.885C13.1766 9.02141 13.0669 9.13109 12.9305 9.13109C12.7948 9.13109 12.6844 9.02141 12.6844 8.885V8.82734ZM13.2258 7.07832C13.3214 6.9827 13.4768 6.9827 13.5735 7.07832C13.6691 7.175 13.6691 7.33039 13.5735 7.42707L12.0878 8.91277C11.9911 9.0084 11.8357 9.0084 11.7401 8.91277C11.6434 8.81609 11.6434 8.6607 11.7401 8.56402L13.2258 7.07832ZM12.1465 7.13141C12.1465 6.99606 12.2572 6.88531 12.3926 6.88531C12.529 6.88531 12.6387 6.99606 12.6387 7.13141V7.19012C12.6387 7.32582 12.529 7.43621 12.3926 7.43621C12.2569 7.43621 12.1465 7.32547 12.1465 7.19012V7.13141ZM4.97532 4.0352C4.96336 3.90055 5.06215 3.78102 5.1975 3.76906C5.33215 3.75711 5.45168 3.8559 5.46364 3.99125C5.48543 4.22855 5.92207 4.3618 6.17203 4.15754C6.23391 4.10656 6.27153 4.04082 6.27153 3.97227C6.27153 3.47199 4.9711 3.94449 4.9711 2.90809C4.9711 2.53227 5.26606 2.2475 5.62289 2.15961L5.62606 2.01793C5.62922 1.88223 5.74067 1.77465 5.87602 1.77781C6.01172 1.77992 6.1193 1.89242 6.11614 2.02707L6.11332 2.15961C6.47016 2.24715 6.76406 2.53332 6.76406 2.90809C6.76406 3.04449 6.65438 3.15418 6.51797 3.15418C6.38227 3.15418 6.27188 3.04449 6.27188 2.90809C6.27188 2.65883 5.81942 2.51328 5.56348 2.72281C5.5016 2.77379 5.46399 2.83953 5.46399 2.90809C5.46399 3.40836 6.76442 2.93516 6.76442 3.97227C6.76442 4.34809 6.47051 4.63285 6.11262 4.72074L6.10981 4.86242C6.10664 4.99813 5.9952 5.1057 5.85985 5.10254C5.72414 5.10043 5.61657 4.98793 5.61973 4.85258L5.62289 4.72004C5.28891 4.63777 5.00801 4.38395 4.97532 4.0352ZM5.86793 0.875C6.53766 0.875 7.14867 1.13199 7.605 1.55281C9.2802 0.595156 11.3998 0.874297 12.7712 2.24645C13.5475 3.02375 14.0277 4.09602 14.0277 5.28078C14.0277 5.41648 13.918 5.52688 13.7816 5.52688H9.98192V9.32656C9.98192 9.46297 9.87117 9.57266 9.73582 9.57266C7.62328 9.57266 5.83735 8.03809 5.49949 5.97898C4.24899 5.79863 3.30293 4.7232 3.30293 3.43965C3.30293 2.02285 4.45114 0.875 5.86793 0.875ZM7.94074 1.92934C8.68606 2.94992 8.57356 4.36109 7.68164 5.25371C7.24711 5.68824 6.65719 5.96738 6.00258 6.00113C6.32637 7.69039 7.75934 8.96305 9.48938 9.07344V1.48777C8.94059 1.52188 8.41922 1.67234 7.94074 1.92934ZM7.33395 1.97398C6.5236 1.16469 5.21121 1.16469 4.40192 1.97398C3.59157 2.78328 3.59157 4.09672 4.40192 4.90602C5.21121 5.71531 6.5236 5.71531 7.33395 4.90602C8.14324 4.09672 8.14324 2.78328 7.33395 1.97398ZM11.0531 10.1657C12.9526 10.0413 14.4724 8.5243 14.5969 6.62586L11.0493 6.61883L11.0531 10.1657ZM13.8375 9.40848C13.063 10.1819 11.9929 10.6621 10.8091 10.665C10.6734 10.665 10.5641 10.5553 10.5641 10.4199L10.5581 6.37309C10.5581 6.23738 10.6678 6.12805 10.8032 6.12805L14.85 6.13613C14.9857 6.13613 15.095 6.24582 15.095 6.38117C15.0922 7.56277 14.6127 8.63328 13.8375 9.40848ZM13.5274 5.03469C13.4068 3.13027 11.8842 1.60836 9.98157 1.48707V5.03469H13.5274ZM3.27903 13.0848L2.54074 13.8332C2.45004 13.9261 2.45004 14.0755 2.5418 14.1672L5.04 16.6296C5.12367 16.7171 5.27801 16.7213 5.37293 16.6257L5.37188 16.6246L6.10946 15.8783C6.20121 15.7855 6.19805 15.6343 6.10735 15.5454L3.61196 13.083C3.52125 12.9941 3.36973 12.992 3.27903 13.0848ZM2.19094 13.4894L2.92922 12.7409C3.09657 12.5704 3.33176 12.4987 3.55711 12.5335L4.66629 11.4243L4.94824 11.1294C5.58703 10.4628 5.90977 10.1267 6.45891 9.96922C7.07274 9.79379 8.04727 9.88836 9.39762 9.98117C10.2565 10.0399 10.6562 10.8889 10.3412 11.5337L10.9343 11.5119V11.5108C11.0848 11.5228 11.2511 11.418 11.3868 11.3435L14.0885 9.85848C14.541 9.60922 15.0261 9.60324 15.3742 9.74C15.988 9.98223 16.1487 10.621 15.5725 11.142C10.8728 15.3966 10.5448 15.4068 7.00699 15.2353L6.65614 15.5851C6.69586 15.8122 6.62836 16.0505 6.45891 16.2218L5.71957 16.972C5.43657 17.2571 4.97004 17.2561 4.69196 16.9769L2.19762 14.5163C1.91356 14.2368 1.90969 13.7742 2.19094 13.4894ZM4.00465 12.7817L6.40125 15.1446L6.73524 14.8106H6.73629C6.80906 14.7378 6.87867 14.7368 6.96832 14.7417C10.3795 14.9073 10.6675 14.921 15.2438 10.7792C15.5127 10.5359 15.5039 10.3187 15.1959 10.1974C14.9667 10.1077 14.6398 10.1165 14.3251 10.2891L11.5777 11.7998C11.3695 11.9155 11.18 12.0199 10.9079 12.002L9.62051 12.0547C9.56567 12.0635 9.50801 12.0698 9.44824 12.0716C8.87907 12.0916 8.27543 12.1324 7.70942 12.1324C7.57371 12.1363 7.46121 12.0308 7.45629 11.8951C7.45242 11.7604 7.55789 11.6469 7.69254 11.642L9.56215 11.5653C9.73442 11.5284 9.84903 11.4296 9.90809 11.3083C10.0635 10.9824 9.87012 10.505 9.36598 10.4713C8.09649 10.3844 7.1216 10.2909 6.59461 10.4424C6.17203 10.563 5.88024 10.8671 5.30192 11.469L5.01504 11.7731L4.00465 12.7817Z" fill="#1A1A1A"/>
</svg>
