<svg width="18" height="18" viewBox="0 0 18 18" fill="none" xmlns="http://www.w3.org/2000/svg">
<path d="M13.1363 1.76991C13.0836 1.71716 13.0121 1.68752 12.9375 1.6875H5.0625C4.75067 1.68747 4.44767 1.79109 4.20115 1.98206C3.95463 2.17303 3.77858 2.44052 3.70069 2.74247L4.24519 2.88309C4.29191 2.70187 4.39757 2.54132 4.54553 2.42671C4.69348 2.3121 4.87535 2.24994 5.0625 2.25H12.6562V3.65625C12.6562 3.88003 12.7451 4.09464 12.9034 4.25287C13.0616 4.41111 13.2762 4.5 13.5 4.5H14.9062V16.0312C14.9062 16.255 14.8174 16.4696 14.6591 16.6279C14.5009 16.7861 14.2863 16.875 14.0625 16.875H5.0625C4.83872 16.875 4.62411 16.7861 4.46588 16.6279C4.30764 16.4696 4.21875 16.255 4.21875 16.0312V9.5625H3.65625V16.0312C3.6567 16.4041 3.805 16.7615 4.06862 17.0251C4.33225 17.2888 4.68968 17.4371 5.0625 17.4375H14.0625C14.4353 17.4371 14.7927 17.2888 15.0564 17.0251C15.32 16.7615 15.4683 16.4041 15.4688 16.0312V4.21875C15.4687 4.14416 15.4391 4.07264 15.3863 4.01991L13.1363 1.76991ZM13.2188 3.65625V2.64769L14.5086 3.9375H13.5C13.4254 3.9375 13.3539 3.90787 13.3011 3.85512C13.2484 3.80238 13.2188 3.73084 13.2188 3.65625Z" fill="#1A1A1A"/>
<path d="M15.1875 0.5625H6.1875C5.84491 0.562444 5.51407 0.687457 5.25713 0.914063L5.62978 1.33594C5.78367 1.19984 5.98207 1.1248 6.1875 1.125H15.1875C15.4113 1.125 15.6259 1.21389 15.7841 1.37213C15.9424 1.53036 16.0312 1.74497 16.0312 1.96875V14.9062C16.0314 15.1117 15.9564 15.3101 15.8203 15.464L16.2422 15.8366C16.4688 15.5797 16.5938 15.2488 16.5938 14.9062V1.96875C16.5933 1.59593 16.445 1.2385 16.1814 0.974874C15.9178 0.711248 15.5603 0.562947 15.1875 0.5625Z" fill="#1A1A1A"/>
<path d="M4.5 7.875V7.59375C4.72378 7.59375 4.93839 7.50486 5.09662 7.34662C5.25486 7.18839 5.34375 6.97378 5.34375 6.75C5.34375 6.52622 5.25486 6.31161 5.09662 6.15338C4.93839 5.99514 4.72378 5.90625 4.5 5.90625H3.9375C3.86291 5.90625 3.79137 5.87662 3.73863 5.82387C3.68588 5.77113 3.65625 5.69959 3.65625 5.625C3.65625 5.55041 3.68588 5.47887 3.73863 5.42613C3.79137 5.37338 3.86291 5.34375 3.9375 5.34375H4.5C4.57459 5.34375 4.64613 5.37338 4.69887 5.42613C4.75162 5.47887 4.78125 5.55041 4.78125 5.625H5.34375C5.34375 5.40122 5.25486 5.18661 5.09662 5.02838C4.93839 4.87014 4.72378 4.78125 4.5 4.78125V4.5H3.9375V4.78125C3.71372 4.78125 3.49911 4.87014 3.34088 5.02838C3.18264 5.18661 3.09375 5.40122 3.09375 5.625C3.09375 5.84878 3.18264 6.06339 3.34088 6.22162C3.49911 6.37986 3.71372 6.46875 3.9375 6.46875H4.5C4.57459 6.46875 4.64613 6.49838 4.69887 6.55113C4.75162 6.60387 4.78125 6.67541 4.78125 6.75C4.78125 6.82459 4.75162 6.89613 4.69887 6.94887C4.64613 7.00162 4.57459 7.03125 4.5 7.03125H3.9375C3.86291 7.03125 3.79137 7.00162 3.73863 6.94887C3.68588 6.89613 3.65625 6.82459 3.65625 6.75H3.09375C3.09375 6.97378 3.18264 7.18839 3.34088 7.34662C3.49911 7.50486 3.71372 7.59375 3.9375 7.59375V7.875H4.5Z" fill="#1A1A1A"/>
<path d="M7.03125 6.1875C7.03125 5.63124 6.8663 5.08747 6.55726 4.62496C6.24822 4.16245 5.80897 3.80196 5.29505 3.58909C4.78113 3.37622 4.21563 3.32052 3.67006 3.42904C3.12449 3.53756 2.62335 3.80543 2.23001 4.19876C1.83668 4.5921 1.56881 5.09324 1.46029 5.63881C1.35177 6.18438 1.40747 6.74988 1.62034 7.2638C1.83321 7.77772 2.1937 8.21697 2.65621 8.52601C3.11872 8.83505 3.66249 9 4.21875 9C4.96442 8.99918 5.67932 8.7026 6.20658 8.17533C6.73385 7.64807 7.03043 6.93317 7.03125 6.1875ZM1.96875 6.1875C1.96875 5.74249 2.10071 5.30748 2.34794 4.93747C2.59518 4.56746 2.94658 4.27907 3.35771 4.10877C3.76885 3.93848 4.22125 3.89392 4.6577 3.98073C5.09416 4.06755 5.49507 4.28184 5.80974 4.59651C6.12441 4.91118 6.3387 5.31209 6.42552 5.74855C6.51233 6.18501 6.46778 6.63741 6.29748 7.04854C6.12718 7.45967 5.83879 7.81107 5.46878 8.05831C5.09877 8.30554 4.66376 8.4375 4.21875 8.4375C3.62222 8.43683 3.05031 8.19956 2.6285 7.77775C2.20669 7.35594 1.96942 6.78403 1.96875 6.1875Z" fill="#1A1A1A"/>
<path d="M7.875 4.5H11.25V5.0625H7.875V4.5Z" fill="#1A1A1A"/>
<path d="M7.875 3.375H8.4375V3.9375H7.875V3.375Z" fill="#1A1A1A"/>
<path d="M9 3.375H11.25V3.9375H9V3.375Z" fill="#1A1A1A"/>
<path d="M6.75 8.71875C6.67541 8.71875 6.60387 8.74838 6.55113 8.80113C6.49838 8.85387 6.46875 8.92541 6.46875 9V10.4062H5.90625V10.9688H13.2188V10.4062H12.6562V6.75C12.6562 6.67541 12.6266 6.60387 12.5739 6.55113C12.5211 6.49838 12.4496 6.46875 12.375 6.46875H11.25C11.1754 6.46875 11.1039 6.49838 11.0511 6.55113C10.9984 6.60387 10.9688 6.67541 10.9688 6.75V10.4062H10.4062V7.875C10.4062 7.80041 10.3766 7.72887 10.3239 7.67613C10.2711 7.62338 10.1996 7.59375 10.125 7.59375H9C8.92541 7.59375 8.85387 7.62338 8.80113 7.67613C8.74838 7.72887 8.71875 7.80041 8.71875 7.875V10.4062H8.15625V9C8.15625 8.92541 8.12662 8.85387 8.07387 8.80113C8.02113 8.74838 7.94959 8.71875 7.875 8.71875H6.75ZM11.5312 7.03125H12.0938V10.4062H11.5312V7.03125ZM9.28125 8.15625H9.84375V10.4062H9.28125V8.15625ZM7.03125 10.4062V9.28125H7.59375V10.4062H7.03125Z" fill="#1A1A1A"/>
<path d="M6.1875 12.0938C6.11291 12.0938 6.04137 12.1234 5.98863 12.1761C5.93588 12.2289 5.90625 12.3004 5.90625 12.375V15.1875C5.90625 15.2621 5.93588 15.3336 5.98863 15.3864C6.04137 15.4391 6.11291 15.4688 6.1875 15.4688H9C9.07459 15.4688 9.14613 15.4391 9.19887 15.3864C9.25162 15.3336 9.28125 15.2621 9.28125 15.1875V12.375C9.28125 12.3004 9.25162 12.2289 9.19887 12.1761C9.14613 12.1234 9.07459 12.0938 9 12.0938H6.1875ZM8.71875 14.9062H6.46875V12.6562H8.71875V14.9062Z" fill="#1A1A1A"/>
<path d="M10.4062 12.0938H13.7812V12.6562H10.4062V12.0938Z" fill="#1A1A1A"/>
<path d="M10.4062 14.3438H13.7812V14.9062H10.4062V14.3438Z" fill="#1A1A1A"/>
<path d="M10.4062 13.2188H13.7812V13.7812H10.4062V13.2188Z" fill="#1A1A1A"/>
</svg>
