<svg width="18" height="18" viewBox="0 0 18 18" fill="none" xmlns="http://www.w3.org/2000/svg">
<path d="M9.96675 9.9209C9.31874 9.92061 8.68206 10.0908 8.12063 10.4144C8.08862 10.4329 8.06056 10.4575 8.03806 10.4868C8.01557 10.5162 7.99907 10.5497 7.98951 10.5854C7.97995 10.6211 7.97752 10.6583 7.98236 10.695C7.98719 10.7316 7.9992 10.767 8.01769 10.799C8.03618 10.831 8.06079 10.859 8.09013 10.8815C8.11946 10.904 8.15294 10.9205 8.18865 10.9301C8.22436 10.9396 8.2616 10.9421 8.29825 10.9372C8.3349 10.9324 8.37024 10.9204 8.40225 10.9019C9.0917 10.5033 9.90701 10.382 10.6827 10.5626C11.4583 10.7432 12.1361 11.2122 12.5786 11.8744C13.021 12.5365 13.1949 13.3423 13.0649 14.128C12.935 14.9137 12.5109 15.6205 11.8787 16.1049C11.2466 16.5893 10.4538 16.815 9.66133 16.7362C8.86884 16.6574 8.13604 16.28 7.6117 15.6806C7.08736 15.0811 6.81077 14.3047 6.83808 13.5087C6.86539 12.7128 7.19455 11.9571 7.75875 11.395C7.78567 11.3691 7.80716 11.3382 7.82197 11.3039C7.83679 11.2696 7.84463 11.2327 7.84504 11.1954C7.84545 11.158 7.83842 11.121 7.82436 11.0864C7.8103 11.0518 7.78949 11.0204 7.76315 10.9939C7.73681 10.9674 7.70546 10.9465 7.67093 10.9322C7.6364 10.918 7.59939 10.9108 7.56205 10.9111C7.52471 10.9113 7.48779 10.919 7.45344 10.9336C7.41909 10.9483 7.38801 10.9696 7.362 10.9964C6.75615 11.5993 6.3782 12.3936 6.29259 13.244C6.20698 14.0944 6.41902 14.9482 6.89254 15.6597C7.36607 16.3712 8.07175 16.8965 8.88926 17.1459C9.70677 17.3952 10.5855 17.3533 11.3755 17.0272C12.1655 16.7011 12.818 16.111 13.2216 15.3577C13.6252 14.6043 13.755 13.7342 13.5888 12.8958C13.4226 12.0574 12.9707 11.3027 12.3102 10.7602C11.6497 10.2178 10.8214 9.9213 9.96675 9.92127V9.9209Z" fill="#1A1A1A"/>
<path d="M10.2724 14.7254H9.56625C9.51166 14.7255 9.45758 14.7148 9.4071 14.694C9.35663 14.6732 9.31075 14.6427 9.2721 14.6041C9.23344 14.5656 9.20276 14.5198 9.18181 14.4693C9.16086 14.4189 9.15005 14.3649 9.15 14.3103C9.15 14.2357 9.12037 14.1641 9.06763 14.1114C9.01488 14.0587 8.94334 14.029 8.86875 14.029C8.79416 14.029 8.72262 14.0587 8.66988 14.1114C8.61713 14.1641 8.5875 14.2357 8.5875 14.3103C8.5878 14.5695 8.69089 14.818 8.87417 15.0012C9.05745 15.1845 9.30594 15.2876 9.56513 15.2879H9.6375V15.8272C9.6375 15.9017 9.66713 15.9733 9.71988 16.026C9.77262 16.0788 9.84416 16.1084 9.91875 16.1084C9.99334 16.1084 10.0649 16.0788 10.1176 16.026C10.1704 15.9733 10.2 15.9017 10.2 15.8272V15.2879H10.2716C10.5309 15.2879 10.7796 15.1849 10.9629 15.0016C11.1463 14.8182 11.2493 14.5696 11.2493 14.3103C11.2493 14.051 11.1463 13.8023 10.9629 13.619C10.7796 13.4357 10.5309 13.3327 10.2716 13.3327H9.56625C9.45826 13.3294 9.35579 13.2842 9.28055 13.2067C9.20531 13.1292 9.16323 13.0254 9.16323 12.9173C9.16323 12.8093 9.20531 12.7055 9.28055 12.628C9.35579 12.5505 9.45826 12.5053 9.56625 12.502H10.2724C10.3824 12.5021 10.488 12.5459 10.5658 12.6237C10.6436 12.7016 10.6874 12.8071 10.6875 12.9172C10.6875 12.9917 10.7171 13.0633 10.7699 13.116C10.8226 13.1688 10.8942 13.1984 10.9688 13.1984C11.0433 13.1984 11.1149 13.1688 11.1676 13.116C11.2204 13.0633 11.25 12.9917 11.25 12.9172C11.2497 12.658 11.1466 12.4095 10.9633 12.2262C10.7801 12.0429 10.5316 11.9398 10.2724 11.9395H10.2V11.3999C10.2 11.3253 10.1704 11.2538 10.1176 11.201C10.0649 11.1483 9.99334 11.1187 9.91875 11.1187C9.84416 11.1187 9.77262 11.1483 9.71988 11.201C9.66713 11.2538 9.6375 11.3253 9.6375 11.3999V11.9395H9.56625C9.31024 11.9445 9.0664 12.0498 8.88711 12.2326C8.70783 12.4154 8.6074 12.6613 8.6074 12.9173C8.6074 13.1734 8.70783 13.4193 8.88711 13.6021C9.0664 13.7849 9.31024 13.8901 9.56625 13.8952H10.2724C10.3825 13.8952 10.4881 13.9389 10.5659 14.0167C10.6438 14.0946 10.6875 14.2002 10.6875 14.3103C10.6875 14.4204 10.6438 14.526 10.5659 14.6038C10.4881 14.6817 10.3825 14.7254 10.2724 14.7254Z" fill="#1A1A1A"/>
<path d="M16.6564 5.86394C16.5853 5.84652 16.5103 5.85747 16.4472 5.89446C16.3841 5.93145 16.3379 5.99157 16.3183 6.06207C16.2988 6.13256 16.3076 6.20789 16.3427 6.27207C16.3778 6.33624 16.4365 6.38422 16.5064 6.40581C17.2672 6.61731 17.4386 6.85581 17.4386 6.92031C17.4386 7.15506 16.338 7.70556 14.2042 7.70556C12.0705 7.70556 10.9695 7.15506 10.9695 6.92031C10.9695 6.68556 12.0697 6.13506 14.2042 6.13506C14.709 6.13324 15.2133 6.16871 15.7129 6.24119C15.7856 6.24984 15.8589 6.22981 15.9171 6.18534C15.9753 6.14087 16.0139 6.07546 16.0247 6.00299C16.0355 5.93053 16.0176 5.85671 15.9749 5.79721C15.9321 5.73772 15.8679 5.69722 15.7957 5.68431C15.2687 5.60804 14.7368 5.57044 14.2042 5.57181C12.3754 5.57181 10.407 5.99369 10.407 6.91956V9.10769C10.407 10.0336 12.3754 10.4554 14.2042 10.4554C15.4335 10.4554 16.7235 10.2638 17.4386 9.85731V10.2016C17.4386 10.4363 16.338 10.9868 14.2042 10.9868C13.9594 10.9868 13.7209 10.9793 13.4917 10.9643C13.4173 10.96 13.3441 10.9851 13.288 11.0342C13.2319 11.0833 13.1973 11.1525 13.1917 11.2268C13.1892 11.2638 13.1939 11.3009 13.2057 11.336C13.2175 11.3711 13.2362 11.4036 13.2606 11.4315C13.285 11.4593 13.3146 11.4821 13.3479 11.4985C13.3811 11.5149 13.4173 11.5245 13.4542 11.5268C13.6961 11.5426 13.947 11.5508 14.2042 11.5508C15.4335 11.5508 16.7235 11.3592 17.4386 10.9508V11.2951C17.4386 11.5298 16.338 12.0826 14.2042 12.0826C14.2042 12.0826 14.0869 12.0848 14.0347 12.0826C13.961 12.0831 13.8901 12.1114 13.8364 12.162C13.7828 12.2126 13.7502 12.2816 13.7452 12.3552C13.7431 12.4298 13.7707 12.5022 13.8218 12.5565C13.873 12.6109 13.9436 12.6427 14.0182 12.6451H14.2057C15.435 12.6451 16.725 12.4531 17.4401 12.0451V12.3893C17.4401 12.6241 16.3395 13.1746 14.2057 13.1746C14.1312 13.1746 14.0596 13.2042 14.0069 13.2569C13.9541 13.3097 13.9245 13.3812 13.9245 13.4558C13.9245 13.5304 13.9541 13.6019 14.0069 13.6547C14.0596 13.7074 14.1312 13.7371 14.2057 13.7371C15.435 13.7371 16.725 13.5451 17.4401 13.1389V13.5106C17.4401 13.7453 16.3395 14.2958 14.2057 14.2958H14.1049C14.0315 14.299 13.9619 14.3292 13.9095 14.3805C13.857 14.4319 13.8254 14.5008 13.8206 14.5741C13.8199 14.6486 13.8488 14.7204 13.901 14.7737C13.9531 14.827 14.0243 14.8574 14.0989 14.8583H14.2057C16.0316 14.8594 18 14.4376 18 13.5117V6.92031C18 6.60906 17.7667 6.17331 16.6564 5.86394ZM14.2031 8.26806C15.4324 8.26806 16.7224 8.07644 17.4375 7.66994V8.01419C17.4375 8.24894 16.3369 8.80169 14.2031 8.80169C12.0694 8.80169 10.9684 8.25081 10.9684 8.01419V7.66994C11.6835 8.07644 12.975 8.26806 14.2031 8.26806ZM14.2031 9.89369C12.0686 9.89369 10.9684 9.34319 10.9684 9.10844V8.76419C11.6835 9.17069 12.9731 9.36419 14.2031 9.36419C15.4331 9.36419 16.7224 9.17256 17.4375 8.76419V9.10844C17.4375 9.34319 16.3369 9.89369 14.2031 9.89369Z" fill="#1A1A1A"/>
<path d="M5.925 15.105C5.826 15.1088 5.72625 15.111 5.625 15.111C2.64375 15.111 0.5625 13.4007 0.5625 10.9519C0.5625 8.95505 1.9125 6.00192 3.92587 4.7888C3.95325 4.77192 3.97612 4.7513 4.00087 4.73255H6.3C6.37459 4.73255 6.44613 4.70292 6.49887 4.65017C6.55162 4.59743 6.58125 4.52589 6.58125 4.4513C6.58125 4.37671 6.55162 4.30517 6.49887 4.25242C6.44613 4.19968 6.37459 4.17005 6.3 4.17005H4.35563C4.394 3.95865 4.35027 3.74057 4.23337 3.5603C3.28275 2.08767 3.09787 1.42505 3.13237 1.2533C3.136 1.25542 3.1402 1.25634 3.14438 1.25592C3.56672 1.25886 3.98642 1.32277 4.3905 1.44567C4.78144 1.5645 5.18719 1.62762 5.59575 1.63317C6.05764 1.62184 6.51642 1.55409 6.96187 1.43142C7.31489 1.33421 7.67736 1.27537 8.043 1.25592C8.03288 1.4678 7.82288 2.09367 7.0965 3.33342H4.95C4.87541 3.33342 4.80387 3.36305 4.75113 3.4158C4.69838 3.46854 4.66875 3.54008 4.66875 3.61467C4.66875 3.68926 4.69838 3.7608 4.75113 3.81355C4.80387 3.86629 4.87541 3.89592 4.95 3.89592H6.84825C6.83439 4.00075 6.8405 4.10725 6.86625 4.2098C6.89639 4.3263 6.94949 4.4356 7.02245 4.5313C7.09542 4.62699 7.18676 4.70714 7.29113 4.76705C8.30354 5.42642 9.12455 6.34068 9.67163 7.41792C9.68874 7.45132 9.71236 7.48096 9.7411 7.50509C9.76984 7.52923 9.80312 7.54736 9.83898 7.55843C9.87484 7.5695 9.91256 7.57328 9.9499 7.56955C9.98724 7.56582 10.0235 7.55466 10.0564 7.53671C10.0894 7.51877 10.1184 7.49441 10.1418 7.46507C10.1652 7.43573 10.1825 7.402 10.1927 7.36587C10.2028 7.32974 10.2057 7.29195 10.201 7.25471C10.1963 7.21747 10.1843 7.18155 10.1655 7.14905C9.57008 5.98274 8.67756 4.99411 7.578 4.28292C7.53769 4.26051 7.50224 4.2303 7.47372 4.19406C7.4452 4.15781 7.42417 4.11625 7.41187 4.0718C7.40228 4.03447 7.40036 3.99558 7.40623 3.95749C7.41209 3.91939 7.42562 3.88289 7.446 3.85017C8.8575 1.50192 8.6295 1.0988 8.5335 0.925172C8.49074 0.851203 8.42862 0.790292 8.35382 0.748995C8.27902 0.707698 8.19438 0.687577 8.109 0.690797C7.67784 0.703198 7.24975 0.767538 6.834 0.882422C6.43065 0.99497 6.01509 1.05793 5.5965 1.06992C5.23652 1.06353 4.87924 1.00634 4.53525 0.900047C4.08403 0.765304 3.61602 0.695108 3.14512 0.691547C3.04453 0.685032 2.94415 0.707102 2.85556 0.75521C2.76698 0.803317 2.69381 0.8755 2.6445 0.963422C2.55 1.13705 2.29875 1.5983 3.76163 3.86405C3.78363 3.89669 3.79862 3.93353 3.80565 3.97226C3.81269 4.01099 3.81162 4.05076 3.8025 4.08905C3.79087 4.13471 3.77012 4.17755 3.74151 4.215C3.7129 4.25244 3.67701 4.28371 3.636 4.30692C1.4625 5.6183 0 8.80167 0 10.9519C0 13.6875 2.36625 15.675 5.625 15.675C5.733 15.675 5.84025 15.6728 5.94675 15.6683C5.98368 15.6668 6.01997 15.6581 6.05354 15.6427C6.0871 15.6272 6.11729 15.6052 6.14238 15.5781C6.16747 15.551 6.18697 15.5191 6.19976 15.4845C6.21255 15.4498 6.21839 15.4129 6.21694 15.376C6.21549 15.3391 6.20677 15.3028 6.1913 15.2692C6.17582 15.2356 6.15388 15.2054 6.12674 15.1804C6.0996 15.1553 6.06778 15.1358 6.0331 15.123C5.99842 15.1102 5.96156 15.1043 5.92462 15.1058L5.925 15.105Z" fill="#1A1A1A"/>
</svg>
