<svg width="18" height="18" viewBox="0 0 18 18" fill="none" xmlns="http://www.w3.org/2000/svg">
<path d="M9 16.5018L1.19979 12.9058C1.22679 12.922 0.509618 12.5981 0 12.3067C0 12.7415 0.109118 13.5386 0.514706 13.7534L8.15121 17.1864C8.82621 17.5048 9.117 17.5048 9.84826 17.1864L17.4848 13.7534C17.8622 13.5779 18 12.7516 18 12.3067C17.5089 12.5525 16.8137 12.9029 16.8002 12.9058L9 16.5018ZM9 1.51849C9.04162 1.53199 9.05624 1.58431 9 1.51849V1.51849ZM0.514706 10.1574L8.15121 13.5903C8.82621 13.9087 9.117 13.9087 9.84826 13.5903L17.4848 10.1574C17.8622 9.98187 18 9.15558 18 8.71061C17.5089 8.95643 16.8137 9.30687 16.8002 9.3097L9 12.9058L1.19979 9.3097C1.22679 9.32602 0.509618 9.00199 0 8.71061C0 9.14543 0.109118 9.94252 0.514706 10.1574ZM0.514706 6.56131L8.15121 9.99425C8.82621 10.3126 9.117 10.3126 9.84826 9.99425L17.4848 6.56131C18.0473 6.2992 18.0658 5.18431 17.4848 4.86593L9.84826 0.833931C9.24862 0.478431 8.82621 0.49699 8.15118 0.833931L0.514706 4.86593C-0.0663824 5.24055 -0.0849412 6.24293 0.514706 6.56131ZM9 1.51849L16.8002 5.71361L9 9.00087L1.19979 5.71361L9 1.51849Z" fill="#1A1A1A"/>
</svg>
