<svg width="18" height="18" viewBox="0 0 18 18" fill="none" xmlns="http://www.w3.org/2000/svg">
<g clip-path="url(#clip0_324_29681)">
<path d="M13.6264 10.8714V3.65695C13.6264 3.31786 13.3506 3.04199 13.0115 3.04199H4.05696C3.71788 3.04199 3.44201 3.31786 3.44201 3.65695V10.8713C3.44201 11.2104 3.71788 11.4863 4.05696 11.4863H13.0115C13.3506 11.4863 13.6264 11.2104 13.6264 10.8714ZM3.96911 10.8714V8.05475L5.36467 6.65915C5.38703 6.63675 5.41318 6.63341 5.42679 6.63341C5.4404 6.63341 5.46648 6.63675 5.48891 6.65915L5.78922 6.95945C5.89208 7.06239 6.05897 7.06236 6.16194 6.95945C6.26484 6.85652 6.26485 6.68966 6.16191 6.58673L5.86164 6.28646C5.74552 6.1703 5.59108 6.10632 5.42683 6.10632C5.26254 6.10632 5.10813 6.17027 4.99198 6.28642L3.96918 7.30926V3.65695C3.96918 3.6085 4.00859 3.56909 4.05703 3.56909H13.0115C13.06 3.56909 13.0994 3.6085 13.0994 3.65695V10.8713C13.0994 10.9198 13.06 10.9592 13.0115 10.9592H12.7544L9.47081 7.67552C9.23101 7.43582 8.84092 7.43582 8.60112 7.67555L7.92601 8.35069L7.00179 7.42647C6.89889 7.32353 6.73204 7.32353 6.62903 7.42647C6.52613 7.52937 6.52613 7.69626 6.62903 7.7992L7.61541 8.78557C7.69838 8.86851 7.8087 8.91421 7.92601 8.91421C8.04333 8.91421 8.15369 8.86851 8.23662 8.78554L8.97388 8.04828C9.00812 8.01404 9.06384 8.01404 9.09812 8.04828L12.009 10.9592H4.05696C4.00852 10.9592 3.96911 10.9198 3.96911 10.8714Z" fill="#1A1A1A"/>
<path d="M15.3955 12.8813V9.50607C15.3955 9.36053 15.2775 9.24251 15.1319 9.24251C14.9863 9.24251 14.8683 9.36049 14.8683 9.50607V12.4839C14.4268 12.2224 13.9122 12.0717 13.3629 12.0717C11.854 12.0717 10.6058 13.2051 10.4227 14.6652H2.46361C2.31827 14.6652 2.20004 14.547 2.20004 14.4016V0.790664C2.20004 0.645328 2.31827 0.527098 2.46361 0.527098H14.6048C14.7501 0.527098 14.8683 0.645328 14.8683 0.790664V8.19309C14.8683 8.33864 14.9863 8.45666 15.1319 8.45666C15.2775 8.45666 15.3955 8.33868 15.3955 8.19309V0.790664C15.3955 0.354691 15.0408 0 14.6048 0H2.46361C2.02763 0 1.67294 0.354691 1.67294 0.790664V14.4016C1.67294 14.8376 2.02763 15.1923 2.46361 15.1923H10.4033C10.4315 15.7358 10.6065 16.2566 10.9144 16.707C10.9965 16.8271 11.1606 16.8579 11.2807 16.7758C11.4008 16.6936 11.4317 16.5296 11.3495 16.4095C11.0723 16.004 10.9258 15.529 10.9258 15.0358C10.9258 13.692 12.0191 12.5988 13.3629 12.5988C14.7066 12.5988 15.7999 13.6921 15.7999 15.0358C15.7999 16.3796 14.7066 17.4729 13.3629 17.4729C12.9622 17.4729 12.5652 17.3737 12.2145 17.186C12.0862 17.1173 11.9264 17.1657 11.8578 17.294C11.7891 17.4223 11.8374 17.582 11.9658 17.6507C12.3926 17.8792 12.8758 18 13.3629 18C14.9973 18 16.327 16.6702 16.327 15.0358C16.327 14.1877 15.9684 13.4221 15.3955 12.8813Z" fill="#1A1A1A"/>
<path d="M13.3629 13.6797C13.2173 13.6797 13.0993 13.7977 13.0993 13.9433V14.7799H12.2626C12.1171 14.7799 11.9991 14.8979 11.9991 15.0435C11.9991 15.1891 12.1171 15.3071 12.2626 15.3071H13.0993V16.1438C13.0993 16.2893 13.2173 16.4073 13.3629 16.4073C13.5085 16.4073 13.6265 16.2893 13.6265 16.1438V15.3071H14.4631C14.6087 15.3071 14.7267 15.1891 14.7267 15.0435C14.7267 14.8979 14.6087 14.7799 14.4631 14.7799H13.6265V13.9433C13.6264 13.7977 13.5084 13.6797 13.3629 13.6797Z" fill="#1A1A1A"/>
<path d="M4.44229 12.7585C4.46247 12.5556 4.31438 12.3748 4.11151 12.3546C3.90864 12.3344 3.72782 12.4825 3.70763 12.6854C3.68744 12.8883 3.83554 13.0691 4.03841 13.0893C4.24128 13.1095 4.4221 12.9614 4.44229 12.7585Z" fill="#1A1A1A"/>
<path d="M5.7475 12.7585C5.76768 12.5556 5.61959 12.3748 5.41671 12.3546C5.21384 12.3344 5.03302 12.4825 5.01284 12.6854C4.99265 12.8883 5.14075 13.0691 5.34362 13.0893C5.54649 13.1095 5.72731 12.9614 5.7475 12.7585Z" fill="#1A1A1A"/>
<path d="M7.05266 12.7585C7.07285 12.5556 6.92475 12.3748 6.72188 12.3546C6.51901 12.3344 6.33819 12.4825 6.318 12.6854C6.29782 12.8883 6.44592 13.0691 6.64879 13.0893C6.85166 13.1095 7.03248 12.9614 7.05266 12.7585Z" fill="#1A1A1A"/>
<path d="M9.54791 2.1912C9.69349 2.1912 9.81148 2.07321 9.81148 1.92763C9.81148 1.78205 9.69349 1.66406 9.54791 1.66406H8.40593C8.26035 1.66406 8.14236 1.78205 8.14236 1.92763C8.14236 2.07321 8.26035 2.1912 8.40593 2.1912H9.54791Z" fill="#1A1A1A"/>
<path d="M7.05311 2.1912C7.19869 2.1912 7.31668 2.07321 7.31668 1.92763C7.31668 1.78205 7.19869 1.66406 7.05311 1.66406H3.93419C3.78861 1.66406 3.67062 1.78205 3.67062 1.92763C3.67062 2.07321 3.78861 2.1912 3.93419 2.1912H7.05311Z" fill="#1A1A1A"/>
<path d="M10.7668 6.73901C11.2816 6.73901 11.7003 6.32026 11.7003 5.80554C11.7003 5.29082 11.2816 4.87207 10.7668 4.87207C10.2521 4.87207 9.83337 5.29082 9.83337 5.80554C9.83337 6.32026 10.2521 6.73901 10.7668 6.73901ZM10.7668 5.3992C10.9909 5.3992 11.1732 5.58149 11.1732 5.80554C11.1732 6.02959 10.9909 6.21187 10.7668 6.21187C10.5428 6.21187 10.3605 6.02959 10.3605 5.80554C10.3605 5.58152 10.5428 5.3992 10.7668 5.3992Z" fill="#1A1A1A"/>
</g>
<defs>
<clipPath id="clip0_324_29681">
<rect width="18" height="18" fill="white"/>
</clipPath>
</defs>
</svg>
