<svg width="18" height="18" viewBox="0 0 18 18" fill="none" xmlns="http://www.w3.org/2000/svg">
<g clip-path="url(#clip0_324_30288)">
<path d="M9.03447 1.40626C8.84006 1.40485 8.6815 1.5613 8.68009 1.75536C8.67869 1.94942 8.83478 2.10798 9.0292 2.10939C9.22326 2.11079 9.38181 1.9547 9.38322 1.76064C9.38463 1.56657 9.22853 1.40802 9.03447 1.40626Z" fill="#1A1A1A"/>
<path d="M9.01847 3.51569C7.66105 3.50606 6.54938 4.60114 6.53911 5.95814C6.52888 7.31507 7.62456 8.42727 8.98156 8.4375C8.98785 8.43754 8.99411 8.43757 9.0004 8.43757C10.3488 8.43757 11.4507 7.34576 11.4609 5.99505C11.4712 4.63819 10.3755 3.52592 9.01847 3.51569ZM9.00033 7.73448C8.9959 7.73448 8.99126 7.73445 8.98683 7.73441C8.01754 7.7271 7.23489 6.93264 7.2422 5.96341C7.24948 4.99855 8.03656 4.21871 8.9997 4.21871C9.00413 4.21871 9.00877 4.21874 9.0132 4.21878C9.9825 4.22609 10.7651 5.02055 10.7578 5.98978C10.7505 6.95464 9.96348 7.73448 9.00033 7.73448Z" fill="#1A1A1A"/>
<path d="M10.5339 1.67265C10.351 1.60775 10.15 1.70355 10.0851 1.88658C10.0202 2.0696 10.116 2.27052 10.299 2.33542C11.8475 2.88424 12.8795 4.35909 12.8672 6.00535C12.8657 6.19948 13.0219 6.35807 13.2161 6.35955C13.217 6.35955 13.2179 6.35955 13.2188 6.35955C13.4117 6.35955 13.5688 6.20388 13.5703 6.01062C13.5849 4.06483 12.3647 2.32153 10.5339 1.67265Z" fill="#1A1A1A"/>
<path d="M11.1571 13.2343C13.4955 10.2244 14.9568 8.65485 14.9765 6.0215C15.0013 2.70827 12.3124 0 8.99946 0C5.72514 0 3.04841 2.65177 3.02352 5.93186C3.00341 8.63661 4.49189 10.204 6.84638 13.2338C4.50409 13.5838 3.02352 14.4633 3.02352 15.5391C3.02352 16.2597 3.68959 16.9063 4.89907 17.3598C5.99992 17.7726 7.45634 18 9.00002 18C10.5437 18 12.0001 17.7726 13.101 17.3598C14.3105 16.9063 14.9765 16.2597 14.9765 15.5391C14.9765 14.4639 13.4973 13.5846 11.1571 13.2343ZM3.72661 5.93716C3.74855 3.04278 6.11017 0.703126 8.99953 0.703126C11.9231 0.703126 14.2952 3.09333 14.2734 6.01627C14.2547 8.51708 12.705 10.0582 10.2308 13.2836C9.78945 13.8586 9.38417 14.4022 9.00055 14.9341C8.61805 14.4019 8.22085 13.868 7.77292 13.2834C5.19646 9.92298 3.70755 8.4983 3.72661 5.93716ZM9.00002 17.2969C5.98182 17.2969 3.72661 16.3689 3.72661 15.5391C3.72661 14.9237 5.07478 14.1463 7.34159 13.8771C7.84267 14.5346 8.28199 15.1319 8.71286 15.7419C8.77868 15.8351 8.88562 15.8906 8.9997 15.8907C8.99981 15.8907 8.99991 15.8907 9.00002 15.8907C9.114 15.8907 9.22091 15.8354 9.28683 15.7424C9.71362 15.1403 10.165 14.5283 10.6618 13.8775C12.9265 14.147 14.2734 14.9241 14.2734 15.5391C14.2734 16.3689 12.0182 17.2969 9.00002 17.2969Z" fill="#1A1A1A"/>
</g>
<defs>
<clipPath id="clip0_324_30288">
<rect width="18" height="18" fill="white"/>
</clipPath>
</defs>
</svg>
