<svg width="18" height="18" viewBox="0 0 18 18" fill="none" xmlns="http://www.w3.org/2000/svg">
<g clip-path="url(#clip0_324_28958)">
<path d="M14.4492 9.24124V7.55859C14.4492 5.10391 12.8176 3.0234 10.582 2.34387V1.58203C10.582 0.709699 9.87234 0 9 0C8.12767 0 7.41797 0.709699 7.41797 1.58203V2.34387C5.18239 3.0234 3.55078 5.10388 3.55078 7.55859V9.24124C3.55078 11.3974 2.7289 13.442 1.23655 14.9983C1.0903 15.1508 1.04921 15.3758 1.1321 15.5702C1.215 15.7645 1.4059 15.8906 1.61719 15.8906H6.41634C6.6613 17.0927 7.72668 18 9 18C10.2734 18 11.3387 17.0927 11.5837 15.8906H16.3828C16.5941 15.8906 16.785 15.7645 16.8679 15.5702C16.9508 15.3758 16.9097 15.1508 16.7635 14.9983C15.2711 13.442 14.4492 11.3974 14.4492 9.24124ZM8.47266 1.58203C8.47266 1.29125 8.70923 1.05469 9 1.05469C9.29078 1.05469 9.52735 1.29125 9.52735 1.58203V2.13497C9.35378 2.11823 9.17789 2.10938 9 2.10938C8.82211 2.10938 8.64623 2.11823 8.47266 2.13497V1.58203ZM9 16.9453C8.31252 16.9453 7.72636 16.5044 7.50868 15.8906H10.4913C10.2736 16.5044 9.68748 16.9453 9 16.9453ZM2.75379 14.8359C3.95476 13.2261 4.60547 11.2778 4.60547 9.24124V7.55859C4.60547 5.13545 6.57686 3.16406 9 3.16406C11.4231 3.16406 13.3945 5.13545 13.3945 7.55859V9.24124C13.3945 11.2778 14.0452 13.2261 15.2462 14.8359H2.75379Z" fill="#1A1A1A"/>
<path d="M15.8555 7.55835C15.8555 7.84959 16.0916 8.0857 16.3828 8.0857C16.6741 8.0857 16.9102 7.84959 16.9102 7.55835C16.9102 5.44546 16.0874 3.45903 14.5933 1.96499C14.3874 1.75908 14.0535 1.75905 13.8476 1.96499C13.6416 2.17094 13.6416 2.50482 13.8476 2.71076C15.1424 4.0056 15.8555 5.72717 15.8555 7.55835Z" fill="#1A1A1A"/>
<path d="M1.61719 8.08567C1.90842 8.08567 2.14453 7.84956 2.14453 7.55833C2.14453 5.72718 2.85764 4.00562 4.15245 2.71078C4.35839 2.50483 4.35839 2.17095 4.15245 1.96501C3.94654 1.75906 3.61262 1.75906 3.40668 1.96501C1.91264 3.45904 1.08984 5.44544 1.08984 7.55833C1.08984 7.84956 1.32595 8.08567 1.61719 8.08567Z" fill="#1A1A1A"/>
</g>
<defs>
<clipPath id="clip0_324_28958">
<rect width="18" height="18" fill="white"/>
</clipPath>
</defs>
</svg>
