<svg width="18" height="18" viewBox="0 0 18 18" fill="none" xmlns="http://www.w3.org/2000/svg">
<g clip-path="url(#clip0_332_225)">
<path d="M16.8308 8.79673C16.2642 8.21812 15.3329 8.208 14.7548 8.77405L14.6867 8.8406V3.87056C14.6867 3.73461 14.5765 3.62443 14.4406 3.62443H12.6568C12.5208 3.62443 12.4107 3.73465 12.4107 3.87056V9.83929C12.234 9.67845 12.0142 9.56422 11.7708 9.51638V6.02212C11.7708 5.88618 11.6606 5.776 11.5247 5.776H9.74187C9.60592 5.776 9.49574 5.88621 9.49574 6.02212V9.49113H9.03379C8.97462 9.44694 8.91531 9.4057 8.85593 9.36622V4.74852C8.85593 4.61257 8.74572 4.50239 8.6098 4.50239H6.82598C6.69003 4.50239 6.57985 4.61261 6.57985 4.74852V8.98907C6.36715 9.05657 6.15386 9.15258 5.94007 9.27654V6.27623C5.94007 6.14029 5.82986 6.03011 5.69394 6.03011H3.9111C3.77515 6.03011 3.66497 6.14032 3.66497 6.27623V10.9309L3.25206 10.5179C3.2059 10.4718 3.14329 10.4458 3.078 10.4458C3.01272 10.4458 2.9501 10.4718 2.90394 10.5179L0.823011 12.5988C0.726894 12.6949 0.726894 12.8507 0.823011 12.9469L5.80479 17.9286C5.85095 17.9748 5.91357 18.0007 5.97889 18.0007C6.04417 18.0007 6.10678 17.9748 6.15294 17.9286L8.23275 15.8478C8.32884 15.7517 8.3288 15.5958 8.23272 15.4997L7.55438 14.8212L8.03401 14.3423L12.4883 14.3394C13.0036 14.3394 13.4518 14.1565 13.8205 13.7958L16.8082 10.8738C17.3871 10.307 17.3972 9.37515 16.8308 8.79673ZM14.1944 4.11673V9.32217L12.9029 10.5855V4.11673H14.1944ZM9.98796 6.26829H11.2785V9.49113H9.98796V6.26829ZM7.07203 4.99468H8.36357V9.09309C7.9373 8.90409 7.50628 8.83459 7.07203 8.88349V4.99468ZM5.44767 6.5224V9.61119C5.43688 9.61963 5.42609 9.62757 5.4153 9.63612C5.4109 9.6396 5.40661 9.64325 5.40246 9.64705L4.15716 10.7821V6.5224H5.44767ZM5.97882 17.4065L1.34515 12.7728L3.07783 11.0401L3.62918 11.5916C3.62996 11.5925 3.63059 11.5934 3.6314 11.5943C3.63762 11.6011 3.64419 11.6074 3.65098 11.6134L7.71058 15.6738L5.97882 17.4065ZM16.4639 10.522L13.4762 13.4439C13.1989 13.7152 12.8758 13.8471 12.4882 13.8471L7.93196 13.8501C7.86678 13.8501 7.8043 13.876 7.75818 13.9221L7.20633 14.4731L4.17013 11.4363L5.72777 10.0166C6.79019 9.17701 7.79492 9.1492 8.79933 9.93143C8.84257 9.96511 8.8958 9.98339 8.95057 9.98339H11.5127C11.9776 9.98339 12.3558 10.3616 12.3558 10.8265C12.3558 10.8431 12.3551 10.8596 12.3542 10.876C12.3539 10.8817 12.3533 10.8874 12.3529 10.8931C12.352 10.9039 12.351 10.9146 12.3498 10.9252C12.3491 10.9317 12.3482 10.9381 12.3473 10.9444C12.3458 10.9554 12.344 10.9662 12.342 10.9771C12.3411 10.9822 12.3403 10.9873 12.3393 10.9924C12.3361 11.0086 12.3324 11.0246 12.3282 11.0406C12.328 11.0415 12.3277 11.0423 12.3274 11.0431C12.323 11.0597 12.3181 11.076 12.3126 11.0923C12.3125 11.0926 12.3124 11.093 12.3123 11.0933C12.2951 11.1442 12.2728 11.1938 12.2455 11.2418C12.2435 11.2453 12.2418 11.2489 12.24 11.2525C12.0934 11.5024 11.8223 11.6706 11.5126 11.6706H7.9321C7.79615 11.6706 7.68597 11.7808 7.68597 11.9167C7.68597 12.0527 7.79618 12.1629 7.9321 12.1629H11.5127C11.9976 12.1629 12.4229 11.9029 12.6568 11.5149L14.6056 9.60863C14.6105 9.60416 14.6153 9.59956 14.6198 9.59474L15.0991 9.12586C15.4833 8.74965 16.1023 8.75651 16.4791 9.14115C16.8556 9.52566 16.8487 10.1451 16.4639 10.522ZM4.1291 4.94898C4.03436 4.85149 4.03657 4.69564 4.13406 4.6009L6.71812 2.08958C6.78474 2.02486 6.88212 2.0031 6.96991 2.0334L10.3717 3.20604L13.6358 0.492258H12.7634C12.6274 0.492258 12.5172 0.382043 12.5172 0.246129C12.5172 0.110215 12.6275 0 12.7634 0H14.2632C14.3992 0 14.5093 0.110215 14.5093 0.246129V1.74691C14.5093 1.88286 14.3991 1.99304 14.2632 1.99304C14.1273 1.99304 14.0171 1.88283 14.0171 1.74691V0.81552L10.5799 3.67316C10.5137 3.72818 10.4237 3.74463 10.3423 3.71658L6.95264 2.54813L4.47719 4.9539C4.42934 5.00038 4.36746 5.02351 4.30566 5.02351C4.24146 5.02358 4.17734 4.99866 4.1291 4.94898Z" fill="#1A1A1A"/>
</g>
<defs>
<clipPath id="clip0_332_225">
<rect width="18" height="18" fill="white"/>
</clipPath>
</defs>
</svg>
