<svg width="23" height="23" viewBox="0 0 23 23" fill="none" xmlns="http://www.w3.org/2000/svg">
<path d="M19.625 3.375C17.45 1.2 14.575 0 11.5 0C8.425 0 5.55 1.2 3.375 3.375C1.2 5.55 0 8.425 0 11.5C0 14.575 1.2 17.45 3.375 19.625C5.55 21.8 8.425 23 11.5 23C14.575 23 17.45 21.8 19.625 19.625C21.8 17.45 23 14.575 23 11.5C23 8.425 21.8 5.55 19.625 3.375ZM17.375 10.1L20.8 9.575C20.925 10.2 21 10.85 21 11.5C21 12.15 20.925 12.8 20.8 13.425L17.375 12.9C17.575 11.975 17.575 11.025 17.375 10.1ZM20.375 8.1L16.825 8.65C16.55 8.125 16.2 7.65 15.775 7.225C15.35 6.8 14.85 6.425 14.35 6.175L14.9 2.625C16.125 3.1 17.275 3.825 18.225 4.775C19.175 5.75 19.9 6.875 20.375 8.1ZM11.5 15.55C10.425 15.55 9.4 15.125 8.65 14.375C7.875 13.6 7.475 12.6 7.475 11.525C7.475 10.45 7.9 9.425 8.65 8.675C9.45 7.875 10.475 7.5 11.5 7.5C12.525 7.5 13.575 7.9 14.35 8.675C15.125 9.45 15.525 10.45 15.525 11.525C15.525 12.6 15.1 13.625 14.35 14.375C13.6 15.125 12.575 15.55 11.5 15.55ZM11.5 2C12.15 2 12.8 2.075 13.425 2.2L12.9 5.625C11.975 5.4 11.025 5.4 10.1 5.625L9.575 2.2C10.2 2.075 10.85 2 11.5 2ZM4.775 4.775C5.725 3.825 6.875 3.075 8.1 2.625L8.65 6.175C8.125 6.45 7.65 6.8 7.225 7.225C6.8 7.65 6.45 8.15 6.15 8.65L2.6 8.1C3.1 6.875 3.825 5.75 4.775 4.775ZM2 11.5C2 10.85 2.075 10.2 2.2 9.575L5.625 10.1C5.525 10.55 5.45 11.025 5.45 11.5C5.45 11.975 5.5 12.45 5.625 12.9L2.2 13.425C2.075 12.8 2 12.15 2 11.5ZM2.625 14.9L6.175 14.35C6.45 14.875 6.8 15.35 7.25 15.775C7.675 16.2 8.175 16.55 8.675 16.85L8.125 20.4C6.9 19.925 5.75 19.2 4.8 18.25C3.825 17.25 3.1 16.125 2.625 14.9ZM11.5 21C10.85 21 10.2 20.925 9.575 20.8L10.1 17.375C10.55 17.475 11.025 17.55 11.5 17.55C11.975 17.55 12.45 17.5 12.9 17.375L13.425 20.8C12.8 20.925 12.15 21 11.5 21ZM18.225 18.225C17.275 19.175 16.125 19.925 14.9 20.375L14.35 16.825C14.875 16.55 15.35 16.2 15.775 15.75C16.2 15.325 16.575 14.825 16.825 14.325L20.375 14.875C19.9 16.125 19.175 17.25 18.225 18.225Z" fill="black"/>
</svg>
