<svg width="18" height="18" viewBox="0 0 18 18" fill="none" xmlns="http://www.w3.org/2000/svg">
<g clip-path="url(#clip0_324_29973)">
<path d="M4.42154 5.41016C1.98802 5.41016 0.00819397 7.38998 0.00819397 9.82351C0.00819397 11.3344 0.72693 12.9589 2.14447 14.6519C2.35509 14.9035 2.56497 15.1365 2.76638 15.3492C1.85112 15.599 1.30159 16.0479 1.30159 16.5717C1.30159 17.4991 2.90901 17.9995 4.4214 17.9995C5.93383 17.9995 7.54121 17.4991 7.54121 16.5717C7.54121 16.0483 6.99186 15.5993 6.07719 15.3494C6.44261 14.9636 6.8358 14.5098 7.20888 14.0035C7.29536 13.8861 7.27033 13.7209 7.15298 13.6344C7.0357 13.5481 6.87039 13.573 6.78391 13.6904C6.33348 14.3016 5.84594 14.8388 5.42051 15.2655C5.37175 15.2904 5.33097 15.3299 5.30541 15.3797C4.92431 15.7543 4.60362 16.0321 4.42165 16.1839C4.24168 16.0336 3.92587 15.7595 3.54967 15.3899C3.52267 15.3307 3.47524 15.2843 3.41737 15.2584C2.22181 14.0559 0.536066 11.9783 0.536066 9.82358C0.536066 7.68115 2.27908 5.93813 4.42151 5.93813C6.56393 5.93813 8.30695 7.68115 8.30695 9.82358C8.30695 10.7592 7.98815 11.7696 7.35942 12.8267C7.28492 12.952 7.32605 13.114 7.45135 13.1885C7.57665 13.263 7.73865 13.2219 7.81314 13.0966C8.4911 11.9566 8.83486 10.8555 8.83486 9.82358C8.83489 7.38998 6.85506 5.41016 4.42154 5.41016ZM4.26 16.7329C4.30753 16.7697 4.36455 16.7881 4.42154 16.7881C4.47853 16.7881 4.53552 16.7697 4.58309 16.7329C4.61547 16.7079 5.05654 16.3639 5.64445 15.789C6.53468 15.9706 7.01337 16.3201 7.01337 16.5718C7.01337 16.7597 6.75582 16.9814 6.34122 17.1503C5.83272 17.3575 5.15093 17.4717 4.42144 17.4717C2.83919 17.4717 1.8295 16.9387 1.8295 16.5718C1.8295 16.3198 2.30833 15.9704 3.19905 15.7889C3.79024 16.3671 4.23194 16.7112 4.26 16.7329Z" fill="#1A1A1A"/>
<path d="M4.42154 7.90527C4.00406 7.90527 3.60707 8.03707 3.27351 8.28644C3.15679 8.37373 3.13288 8.53914 3.22014 8.6559C3.30747 8.77261 3.47288 8.79649 3.5896 8.70926C3.83116 8.52867 4.11884 8.43318 4.4215 8.43318C5.18851 8.43318 5.8125 9.05717 5.8125 9.82421C5.8125 10.5912 5.18851 11.2152 4.4215 11.2152C3.6545 11.2152 3.03051 10.5912 3.03051 9.82421C3.03051 9.69332 3.04861 9.56391 3.0843 9.43967C3.12452 9.29957 3.04355 9.15339 2.90345 9.11314C2.76339 9.07306 2.61717 9.15392 2.57692 9.29402C2.52767 9.46569 2.50267 9.64403 2.50267 9.82421C2.50267 10.8823 3.36347 11.7431 4.42157 11.7431C5.47964 11.7431 6.34047 10.8823 6.34047 9.82421C6.34044 8.76611 5.4796 7.90527 4.42154 7.90527Z" fill="#1A1A1A"/>
<path d="M15.9243 7.66833C16.0586 7.52423 16.197 7.36898 16.3357 7.20325C17.4346 5.89076 17.9918 4.62903 17.9918 3.45302C17.9918 1.54906 16.4428 0 14.5388 0C13.1479 0 11.899 0.827791 11.3573 2.10889C11.3004 2.24315 11.3633 2.39805 11.4975 2.45479C11.6317 2.51153 11.7867 2.44878 11.8434 2.31455C12.3025 1.22921 13.3605 0.527872 14.5388 0.527872C16.1517 0.527872 17.4639 1.84012 17.4639 3.45305C17.4639 5.63426 15.1739 7.72398 14.5387 8.26156C14.3987 8.14326 14.1783 7.94962 13.92 7.69635C13.8942 7.64527 13.8526 7.60477 13.8026 7.5797C12.8912 6.66209 11.6136 5.08473 11.6136 3.45305C11.6136 3.30726 11.4955 3.1891 11.3497 3.1891C11.2039 3.1891 11.0857 3.30726 11.0857 3.45305C11.0857 4.62903 11.6429 5.89076 12.7419 7.20328C12.8806 7.36891 13.0188 7.52408 13.153 7.66816C12.4726 7.87259 12.0798 8.22057 12.0798 8.6396C12.0798 8.99299 12.3665 9.30443 12.8871 9.51653C13.3325 9.69805 13.9191 9.79803 14.5388 9.79803C15.1584 9.79803 15.745 9.69805 16.1904 9.51653C16.7109 9.3044 16.9976 8.99295 16.9976 8.63956C16.9976 8.2213 16.6045 7.87301 15.9243 7.66833ZM14.5387 9.27009C13.2893 9.27009 12.6077 8.85356 12.6077 8.63952C12.6077 8.50009 12.9178 8.24493 13.5798 8.10416C14.0253 8.53761 14.3559 8.79516 14.3773 8.81172C14.4249 8.84853 14.4818 8.86692 14.5388 8.86692C14.5958 8.86692 14.6528 8.84853 14.7004 8.81172C14.7217 8.79523 15.0523 8.53764 15.4978 8.10423C15.7927 8.16713 16.0482 8.25927 16.227 8.36812C16.379 8.46072 16.4698 8.56218 16.4698 8.63952C16.4697 8.85356 15.7881 9.27009 14.5387 9.27009Z" fill="#1A1A1A"/>
<path d="M14.5388 1.91699C13.6919 1.91699 13.0029 2.60599 13.0029 3.45294C13.0029 4.29982 13.6919 4.98881 14.5388 4.98881C15.3857 4.98881 16.0747 4.29985 16.0747 3.45294C16.0747 2.60602 15.3857 1.91699 14.5388 1.91699ZM14.5388 4.4609C13.9829 4.4609 13.5308 4.00872 13.5308 3.4529C13.5308 2.89708 13.983 2.44486 14.5388 2.44486C15.0946 2.44486 15.5469 2.89704 15.5469 3.4529C15.5468 4.00872 15.0946 4.4609 14.5388 4.4609Z" fill="#1A1A1A"/>
<path d="M11.1149 8.37598H10.9944C10.9066 8.37598 10.8185 8.38178 10.7322 8.39327C10.5877 8.4125 10.4862 8.54518 10.5054 8.68975C10.5231 8.82246 10.6364 8.91893 10.7667 8.91893C10.7783 8.91893 10.79 8.91819 10.8018 8.91661C10.8651 8.90821 10.9299 8.90395 10.9944 8.90395H11.1149V8.90392C11.2607 8.90392 11.3789 8.78579 11.3789 8.63997C11.3789 8.49414 11.2607 8.37598 11.1149 8.37598Z" fill="#1A1A1A"/>
<path d="M10.2423 16.2949C10.2419 16.2949 10.2415 16.2949 10.2411 16.2949L9.89246 16.2965C9.7467 16.2972 9.62907 16.4159 9.6297 16.5617C9.63034 16.707 9.74842 16.8244 9.89362 16.8244C9.89404 16.8244 9.89443 16.8244 9.89485 16.8244L10.2435 16.8228C10.3892 16.8222 10.5069 16.7034 10.5062 16.5577C10.5056 16.4123 10.3875 16.2949 10.2423 16.2949Z" fill="#1A1A1A"/>
<path d="M11.4281 11.7949H11.0795C10.9337 11.7949 10.8156 11.9131 10.8156 12.0589C10.8156 12.2047 10.9337 12.3228 11.0795 12.3228H11.4281C11.5739 12.3228 11.6921 12.2047 11.6921 12.0589C11.6921 11.9131 11.574 11.7949 11.4281 11.7949Z" fill="#1A1A1A"/>
<path d="M10.0295 8.91307C9.93071 8.80598 9.76379 8.79923 9.65656 8.89802C9.55816 8.98876 9.46865 9.0899 9.39054 9.19868C9.30549 9.31712 9.33256 9.48204 9.45097 9.56708C9.49755 9.60055 9.55141 9.61665 9.60474 9.61665C9.68683 9.61665 9.76776 9.57844 9.81934 9.50665C9.87664 9.42688 9.94232 9.35263 10.0145 9.28604C10.1216 9.18722 10.1284 9.02022 10.0295 8.91307Z" fill="#1A1A1A"/>
<path d="M11.6368 16.2881C11.6364 16.2881 11.636 16.2881 11.6356 16.2881L11.287 16.2897C11.1412 16.2903 11.0236 16.4091 11.0242 16.5548C11.0249 16.7002 11.143 16.8176 11.2882 16.8176C11.2886 16.8176 11.289 16.8176 11.2894 16.8176L11.638 16.816C11.7837 16.8154 11.9014 16.6966 11.9007 16.5508C11.9001 16.4055 11.782 16.2881 11.6368 16.2881Z" fill="#1A1A1A"/>
<path d="M8.84782 16.3008C8.8474 16.3008 8.84701 16.3008 8.84659 16.3008L8.49798 16.3024C8.35222 16.303 8.23459 16.4218 8.23522 16.5675C8.23589 16.7129 8.35388 16.8303 8.49914 16.8303C8.49956 16.8303 8.49995 16.8303 8.50037 16.8303L8.84898 16.8287C8.99474 16.828 9.11237 16.7093 9.11174 16.5635C9.11111 16.4181 8.99305 16.3008 8.84782 16.3008Z" fill="#1A1A1A"/>
<path d="M10.2245 11.5726C10.1415 11.5203 10.0635 11.4592 9.99269 11.3911C9.88761 11.29 9.72047 11.2933 9.61947 11.3983C9.5184 11.5034 9.52167 11.6705 9.62671 11.7715C9.72332 11.8644 9.82967 11.9477 9.9428 12.0191C9.98654 12.0467 10.0352 12.0598 10.0834 12.0598C10.171 12.0598 10.2567 12.0163 10.3069 11.9366C10.3847 11.8134 10.3478 11.6504 10.2245 11.5726Z" fill="#1A1A1A"/>
<path d="M9.57563 10.6273C9.55791 10.5363 9.54891 10.4427 9.54891 10.3491L9.54898 10.3344C9.5507 10.1886 9.43392 10.0691 9.28812 10.0674C9.2871 10.0674 9.28605 10.0674 9.28499 10.0674C9.14064 10.0674 9.0228 10.1835 9.02111 10.3283L9.021 10.3491C9.021 10.4766 9.03327 10.6041 9.05746 10.7283C9.082 10.8543 9.19246 10.9418 9.31625 10.9418C9.33295 10.9418 9.34996 10.9402 9.36698 10.9368C9.5101 10.909 9.60347 10.7704 9.57563 10.6273Z" fill="#1A1A1A"/>
<path d="M12.8227 11.7949H12.4741C12.3283 11.7949 12.2101 11.9131 12.2101 12.0589C12.2101 12.2047 12.3283 12.3228 12.4741 12.3228H12.8227C12.9685 12.3228 13.0866 12.2047 13.0866 12.0589C13.0866 11.9131 12.9685 11.7949 12.8227 11.7949Z" fill="#1A1A1A"/>
<path d="M17.0604 12.3317C16.9587 12.2515 16.85 12.1786 16.7373 12.1151C16.6104 12.0435 16.4494 12.0885 16.3778 12.2155C16.3062 12.3425 16.3512 12.5035 16.4782 12.575C16.5671 12.6252 16.653 12.6827 16.7332 12.7461C16.7818 12.7844 16.8393 12.8029 16.8967 12.8029C16.9746 12.8029 17.0519 12.7684 17.104 12.7025C17.1944 12.5881 17.1749 12.422 17.0604 12.3317Z" fill="#1A1A1A"/>
<path d="M16.0807 16.4779C16.0606 16.3335 15.9272 16.2324 15.7831 16.2525C15.6966 16.2645 15.6081 16.2708 15.5198 16.2711L15.4704 16.2714C15.3246 16.2721 15.207 16.3909 15.2077 16.5366C15.2085 16.6819 15.3265 16.7993 15.4717 16.7993C15.4721 16.7993 15.4725 16.7993 15.473 16.7993L15.5223 16.7991C15.6337 16.7986 15.7458 16.7907 15.8553 16.7755C15.9998 16.7555 16.1006 16.6223 16.0807 16.4779Z" fill="#1A1A1A"/>
<path d="M17.2456 15.7353C17.145 15.6296 16.9779 15.6256 16.8724 15.7262C16.7984 15.7967 16.7182 15.8621 16.6341 15.9204C16.5144 16.0034 16.4846 16.1679 16.5676 16.2877C16.6189 16.3616 16.7011 16.4013 16.7847 16.4013C16.8366 16.4013 16.889 16.386 16.9349 16.3543C17.0413 16.2805 17.1428 16.1978 17.2365 16.1084C17.3421 16.0079 17.3461 15.8408 17.2456 15.7353Z" fill="#1A1A1A"/>
<path d="M17.7593 14.4538C17.6162 14.4269 17.4781 14.5211 17.4511 14.6643C17.4321 14.7648 17.4052 14.8644 17.3709 14.9606C17.322 15.0979 17.3936 15.2489 17.5309 15.2979C17.5602 15.3083 17.5902 15.3133 17.6196 15.3133C17.728 15.3133 17.8297 15.2459 17.8682 15.1379C17.9117 15.0159 17.9459 14.8895 17.9699 14.762C17.9968 14.6188 17.9025 14.4808 17.7593 14.4538Z" fill="#1A1A1A"/>
<path d="M17.9161 13.6054C17.8803 13.4807 17.8344 13.358 17.7795 13.2403C17.7178 13.1082 17.5609 13.0511 17.4286 13.1127C17.2966 13.1744 17.2394 13.3314 17.3011 13.4635C17.3443 13.5561 17.3805 13.6529 17.4087 13.751C17.4419 13.8668 17.5475 13.9422 17.6623 13.9422C17.6864 13.9422 17.7109 13.9389 17.7352 13.9319C17.8753 13.8916 17.9563 13.7455 17.9161 13.6054Z" fill="#1A1A1A"/>
<path d="M14.2172 11.7949H13.8686C13.7228 11.7949 13.6046 11.9131 13.6046 12.0589C13.6046 12.2047 13.7227 12.3228 13.8686 12.3228H14.2172C14.363 12.3228 14.4811 12.2047 14.4811 12.0589C14.4811 11.9131 14.363 11.7949 14.2172 11.7949Z" fill="#1A1A1A"/>
<path d="M13.0313 16.2822C13.0309 16.2822 13.0305 16.2822 13.0301 16.2822L12.6815 16.2838C12.5357 16.2844 12.4181 16.4032 12.4187 16.549C12.4194 16.6943 12.5374 16.8117 12.6826 16.8117C12.6831 16.8117 12.6835 16.8117 12.6839 16.8117L13.0325 16.8101C13.1782 16.8095 13.2959 16.6907 13.2952 16.545C13.2946 16.3996 13.1765 16.2822 13.0313 16.2822Z" fill="#1A1A1A"/>
<path d="M15.6233 11.7974C15.586 11.7957 15.5481 11.7949 15.5109 11.7949H15.263C15.1173 11.7949 14.9991 11.9131 14.9991 12.0589C14.9991 12.2047 15.1172 12.3228 15.263 12.3228H15.5109V12.3228C15.5408 12.3228 15.5705 12.3235 15.5999 12.3248C15.6039 12.325 15.6079 12.325 15.6118 12.325C15.7522 12.325 15.8691 12.2144 15.8753 12.0728C15.8817 11.9271 15.7689 11.8039 15.6233 11.7974Z" fill="#1A1A1A"/>
<path d="M14.4258 16.2754C14.4254 16.2754 14.425 16.2754 14.4246 16.2754L14.076 16.277C13.9302 16.2776 13.8126 16.3964 13.8132 16.5421C13.8139 16.6875 13.9319 16.8049 14.0771 16.8049C14.0775 16.8049 14.078 16.8049 14.0783 16.8049L14.427 16.8033C14.5727 16.8026 14.6903 16.6839 14.6897 16.5381C14.6891 16.3927 14.571 16.2754 14.4258 16.2754Z" fill="#1A1A1A"/>
</g>
<defs>
<clipPath id="clip0_324_29973">
<rect width="18" height="18" fill="white"/>
</clipPath>
</defs>
</svg>
