<svg width="18" height="18" viewBox="0 0 18 18" fill="none" xmlns="http://www.w3.org/2000/svg">
<g clip-path="url(#clip0_324_28644)">
<path d="M13.2967 11.6005C13.2967 12.472 14.0056 13.1809 14.8771 13.1809C15.7485 13.1809 16.4575 12.4719 16.4575 11.6005C16.4575 10.7291 15.7485 10.0202 14.8771 10.0202C14.0056 10.0202 13.2967 10.7291 13.2967 11.6005ZM15.9473 11.6005C15.9473 12.1907 15.4672 12.6708 14.877 12.6708C14.2869 12.6708 13.8067 12.1907 13.8067 11.6005C13.8067 11.0104 14.2868 10.5304 14.877 10.5304C15.4672 10.5304 15.9473 11.0104 15.9473 11.6005ZM17.0532 14.2154C16.4742 13.6622 15.6989 13.3848 14.8691 13.4346C13.1509 13.4389 11.7543 14.838 11.7543 16.5572C11.7543 16.8942 11.9388 17.3638 12.8174 17.6873C13.365 17.889 14.0964 18 14.8769 18C16.4301 18 17.9973 17.5546 17.9996 16.5594C18.0139 15.6581 17.6691 14.8038 17.0532 14.2154ZM17.4895 16.5572C17.4895 17.0802 16.3419 17.4899 14.8769 17.4899C13.412 17.4899 12.2644 17.0802 12.2644 16.5572C12.2644 15.1166 13.4364 13.9447 14.877 13.9447C14.8823 13.9447 14.8876 13.9446 14.8929 13.9442C14.9478 13.9408 15.0025 13.9391 15.0568 13.9391C15.6833 13.9391 16.2621 14.1651 16.7008 14.5843C17.2146 15.0751 17.502 15.7927 17.4895 16.5529C17.4895 16.5544 17.4895 16.5557 17.4895 16.5572ZM7.43779 17.4899H7.14219V11.7091C7.14219 11.5683 7.02799 11.4541 6.88713 11.4541H5.63091V10.2753C5.63091 10.1344 5.51672 10.0202 5.37586 10.0202H2.31703C2.17616 10.0202 2.06197 10.1344 2.06197 10.2753V11.4541H0.805754C0.664891 11.4541 0.550699 11.5683 0.550699 11.7091V17.4899H0.255055C0.114192 17.4899 0 17.6041 0 17.7449C0 17.8858 0.114192 18 0.255055 18H7.43779C7.57866 18 7.69285 17.8858 7.69285 17.7449C7.69285 17.6041 7.57866 17.4899 7.43779 17.4899ZM2.57208 10.5304H5.1208V11.4541H2.57208V10.5304ZM1.06081 11.9642H6.63208V17.4899H5.74857V15.6905C5.74857 15.5496 5.63438 15.4354 5.49351 15.4354H2.19934C2.05847 15.4354 1.94428 15.5496 1.94428 15.6905V17.4899H1.06081V11.9642ZM4.1015 15.9456H5.23849V17.4899H4.1015V15.9456ZM3.59139 17.4899H2.45439V15.9456H3.59135L3.59139 17.4899ZM2.19934 14.5749H5.49351C5.63438 14.5749 5.74857 14.4607 5.74857 14.3198V12.9556C5.74857 12.8148 5.63438 12.7006 5.49351 12.7006H2.19934C2.05847 12.7006 1.94428 12.8148 1.94428 12.9556V14.3198C1.94428 14.4606 2.05851 14.5749 2.19934 14.5749ZM2.45439 13.2107H5.23846V14.0647H2.45439V13.2107ZM2.8498 7.74386C2.91006 7.44737 2.99274 7.15281 3.09552 6.86835C3.1434 6.7359 3.28962 6.66729 3.42207 6.71513C3.55455 6.76297 3.62316 6.90919 3.57528 7.04168C3.48091 7.30286 3.40502 7.5733 3.34967 7.84552C3.32511 7.96642 3.21875 8.04979 3.10001 8.04979C3.08317 8.04979 3.06608 8.04811 3.04892 8.04462C2.91087 8.01656 2.82174 7.88189 2.8498 7.74386ZM11.8281 14.6128C11.6121 14.7214 11.3878 14.8185 11.1613 14.9013C11.1324 14.9118 11.1029 14.9168 11.0738 14.9168C10.9698 14.9168 10.872 14.8527 10.8342 14.7493C10.7859 14.6169 10.854 14.4705 10.9863 14.4221C11.1943 14.3461 11.4004 14.2569 11.5989 14.1571C11.7247 14.0938 11.878 14.1445 11.9413 14.2704C12.0046 14.3962 11.9539 14.5495 11.8281 14.6128ZM3.46783 6.03445C3.58191 5.82205 3.70988 5.61381 3.84815 5.41545C3.92864 5.29994 4.08761 5.27149 4.20323 5.35208C4.31877 5.43261 4.34715 5.59162 4.26659 5.70717C4.13954 5.88943 4.02199 6.08076 3.9172 6.27584C3.87118 6.36154 3.78319 6.41022 3.69232 6.41022C3.65154 6.41022 3.61023 6.40042 3.57182 6.37983C3.44776 6.31315 3.40119 6.15851 3.46783 6.03445ZM14.5775 6.71513C14.71 6.66721 14.8562 6.73586 14.9041 6.86835C15.0068 7.15274 15.0895 7.4473 15.1498 7.74386C15.1779 7.88189 15.0887 8.01656 14.9506 8.04462C14.9335 8.04811 14.9164 8.04979 14.8996 8.04979C14.7808 8.04979 14.6745 7.96638 14.6499 7.84549C14.5945 7.57319 14.5186 7.30275 14.4243 7.04168C14.3765 6.90919 14.4451 6.76297 14.5775 6.71513ZM13.733 5.70713C13.6524 5.59159 13.6808 5.43258 13.7963 5.35205C13.912 5.27152 14.0709 5.29987 14.1514 5.41541C14.2897 5.61374 14.4176 5.82198 14.5317 6.03441C14.5984 6.15851 14.5519 6.31315 14.4277 6.3798C14.3893 6.40042 14.348 6.41022 14.3073 6.41022C14.2163 6.41022 14.1284 6.36151 14.0823 6.27584C13.9775 6.08072 13.86 5.88935 13.733 5.70713ZM10.481 14.8498C10.5095 14.9878 10.4208 15.1227 10.2829 15.1512C9.98677 15.2125 9.68344 15.2524 9.38138 15.27C9.37636 15.2703 9.37136 15.2704 9.36637 15.2704C9.23225 15.2704 9.11984 15.1657 9.11197 15.0301C9.10381 14.8895 9.21123 14.7689 9.35183 14.7607C9.62919 14.7446 9.90767 14.7079 10.1796 14.6517C10.3173 14.6231 10.4525 14.7119 10.481 14.8498ZM15.2637 8.60881C15.2802 8.87732 15.2796 9.14943 15.2619 9.41761C15.253 9.55246 15.1409 9.65587 15.0077 9.65587C15.002 9.65587 14.9963 9.65569 14.9906 9.65532C14.8501 9.64603 14.7437 9.52459 14.7529 9.38401C14.7692 9.13737 14.7697 8.88708 14.7545 8.64015C14.7459 8.49957 14.8528 8.37856 14.9934 8.36989C15.1337 8.36147 15.255 8.4682 15.2637 8.60881ZM8.78397 15.0262C8.77311 15.1595 8.66155 15.2606 8.53005 15.2606C8.52312 15.2606 8.51613 15.2603 8.50906 15.2597C8.2947 15.2422 8.07987 15.2132 7.86811 15.174C7.81495 15.1643 7.76197 15.1541 7.70935 15.1431H7.70932C7.70914 15.1431 7.70892 15.143 7.70873 15.143C7.70389 15.142 7.69926 15.1405 7.69456 15.1392C7.69099 15.1383 7.68731 15.1375 7.68381 15.1364C7.6794 15.135 7.67521 15.1332 7.67091 15.1316C7.6672 15.1302 7.66341 15.129 7.6598 15.1274C7.6559 15.1257 7.65222 15.1237 7.64843 15.1218C7.64464 15.12 7.64078 15.1183 7.63714 15.1162C7.63353 15.1142 7.63021 15.1119 7.62672 15.1097C7.62311 15.1075 7.61943 15.1054 7.61597 15.103C7.61262 15.1007 7.60952 15.098 7.60631 15.0956C7.603 15.093 7.59953 15.0906 7.59636 15.0879C7.59341 15.0853 7.59072 15.0825 7.58788 15.0799C7.58471 15.077 7.58143 15.0741 7.5784 15.071C7.57578 15.0683 7.57341 15.0653 7.5709 15.0625C7.56798 15.0593 7.56496 15.0561 7.56219 15.0526C7.55986 15.0497 7.55781 15.0466 7.55563 15.0436C7.55301 15.04 7.55027 15.0365 7.54783 15.0328C7.54575 15.0296 7.54401 15.0263 7.54207 15.023C7.53985 15.0193 7.53748 15.0156 7.53548 15.0117C7.53373 15.0084 7.53227 15.0048 7.53067 15.0014C7.52881 14.9974 7.52681 14.9935 7.52513 14.9894C7.52367 14.9859 7.52254 14.9822 7.52127 14.9786C7.51981 14.9745 7.51821 14.9705 7.51697 14.9663C7.51577 14.9623 7.51493 14.9581 7.51395 14.954C7.513 14.9501 7.51183 14.9462 7.51107 14.9423C7.51019 14.9378 7.50976 14.9333 7.5091 14.9289C7.50855 14.9251 7.50786 14.9214 7.5075 14.9176C7.50702 14.9127 7.50702 14.9078 7.50684 14.9029C7.50669 14.8994 7.50637 14.8959 7.5064 14.8924C7.50644 14.8872 7.50691 14.882 7.50728 14.8767C7.5075 14.8734 7.5075 14.8701 7.50786 14.8668C7.50841 14.8616 7.50943 14.8563 7.51034 14.851C7.51088 14.8478 7.51118 14.8445 7.51187 14.8413C7.51187 14.8412 7.51191 14.8411 7.51194 14.841C7.51198 14.8409 7.51198 14.8408 7.51201 14.8407C7.513 14.836 7.51442 14.8315 7.51566 14.8269C7.51668 14.8232 7.51748 14.8194 7.51865 14.8157C7.52003 14.8114 7.52178 14.8073 7.52338 14.8031C7.5248 14.7993 7.52604 14.7955 7.52765 14.7918C7.52958 14.7873 7.53184 14.7831 7.53402 14.7788C7.53563 14.7756 7.53708 14.7723 7.53883 14.7692C7.5416 14.7642 7.54477 14.7595 7.54787 14.7547C7.54929 14.7525 7.55053 14.7502 7.55202 14.7481C7.55577 14.7427 7.55986 14.7376 7.56397 14.7325C7.56503 14.7312 7.56598 14.7298 7.56707 14.7285C7.57177 14.7229 7.57676 14.7177 7.5819 14.7126C7.58259 14.712 7.58317 14.7112 7.58387 14.7106C7.58941 14.7052 7.5952 14.7001 7.60114 14.6953C7.6015 14.695 7.60187 14.6947 7.60223 14.6944C7.60828 14.6896 7.61455 14.685 7.621 14.6808C7.62136 14.6805 7.62169 14.6802 7.62205 14.68C7.62839 14.6759 7.63495 14.6721 7.64162 14.6685C7.64217 14.6682 7.64264 14.6679 7.64315 14.6676C7.64934 14.6644 7.65572 14.6615 7.66217 14.6587C7.66326 14.6583 7.66432 14.6577 7.66541 14.6572C7.67124 14.6549 7.67722 14.6529 7.68323 14.6509C7.68505 14.6504 7.68684 14.6496 7.68866 14.649C7.69405 14.6474 7.69963 14.6462 7.70516 14.645C7.70771 14.6444 7.71019 14.6436 7.71274 14.6431C7.71759 14.6422 7.72258 14.6416 7.7275 14.641C7.73085 14.6405 7.73413 14.6399 7.73748 14.6395C7.74178 14.6391 7.74612 14.6391 7.75045 14.639C7.75453 14.6388 7.75862 14.6384 7.76273 14.6384C7.76681 14.6384 7.77093 14.6388 7.77505 14.6391C7.77946 14.6393 7.78383 14.6394 7.78828 14.6398C7.79298 14.6403 7.79768 14.6413 7.80241 14.6421C7.8062 14.6427 7.80995 14.643 7.81374 14.6438C7.81465 14.644 7.8156 14.6442 7.81651 14.6444C7.8637 14.6544 7.91125 14.6633 7.9588 14.6721C8.09613 14.6971 8.23499 14.7174 8.37337 14.7323C8.38244 14.7333 8.39133 14.7348 8.40004 14.7366C8.45018 14.742 8.50031 14.7472 8.55045 14.7513C8.69088 14.7627 8.79541 14.8858 8.78397 15.0262ZM2.73772 9.41764C2.72001 9.14965 2.71939 8.87753 2.73593 8.60881C2.74457 8.4682 2.8651 8.36136 3.00618 8.36989C3.14679 8.37853 3.25373 8.49953 3.2451 8.64015C3.2299 8.8873 3.23045 9.13759 3.24674 9.38405C3.25603 9.52459 3.1496 9.64607 3.00906 9.65536C3.00334 9.65572 2.99766 9.65591 2.99201 9.65591C2.85876 9.65587 2.74661 9.5525 2.73772 9.41764ZM11.5091 8.154C11.6518 8.154 11.7861 8.09843 11.887 7.99747L12.4885 7.39596C12.5895 7.29503 12.6451 7.16079 12.6451 7.018C12.6451 6.8752 12.5895 6.741 12.4886 6.64003C12.2499 6.40137 12.2556 6.0973 12.3405 5.89234C12.4254 5.68738 12.6364 5.46839 12.9739 5.46839C13.2686 5.46839 13.5083 5.22864 13.5083 4.93393V4.08327C13.5083 3.78856 13.2686 3.54881 12.9739 3.54881C12.6364 3.54881 12.4254 3.32982 12.3405 3.12486C12.2556 2.9199 12.2499 2.61587 12.4886 2.3772C12.5895 2.27623 12.6451 2.14204 12.6451 1.99924C12.6451 1.85644 12.5895 1.72224 12.4886 1.62131L11.8871 1.01977C11.7861 0.918802 11.6519 0.863235 11.5091 0.863235C11.3663 0.863235 11.2321 0.918838 11.1312 1.01977C10.8925 1.2584 10.5884 1.25279 10.3835 1.16785C10.1786 1.08295 9.95959 0.87198 9.95959 0.534461C9.95959 0.239757 9.71984 0 9.42514 0H8.5745C8.2798 0 8.04005 0.239757 8.04005 0.534461C8.04005 0.87198 7.82103 1.08295 7.61608 1.16785C7.41112 1.25275 7.10706 1.25847 6.86844 1.01981C6.76751 0.918838 6.63328 0.863235 6.49048 0.863235C6.34769 0.863235 6.21349 0.918838 6.11257 1.01977L5.51104 1.62131C5.30266 1.8297 5.30266 2.16878 5.51104 2.37717C5.7497 2.61583 5.74401 2.9199 5.65912 3.12486C5.57422 3.32982 5.36325 3.54881 5.02574 3.54881C4.73104 3.54881 4.49129 3.78856 4.49129 4.08327V4.93393C4.49129 5.22864 4.73104 5.46839 5.02574 5.46839C5.36325 5.46839 5.57422 5.68738 5.65912 5.89234C5.74401 6.0973 5.7497 6.40133 5.51104 6.64003C5.41011 6.741 5.35454 6.8752 5.35454 7.01796C5.35454 7.16072 5.41015 7.29496 5.51107 7.39589L6.1126 7.99743C6.21353 8.0984 6.34776 8.15396 6.49052 8.15396C6.63328 8.15396 6.76751 8.09836 6.86844 7.99743C7.10753 7.75833 7.4116 7.76383 7.61644 7.84869C7.82125 7.93352 8.04009 8.14464 8.04009 8.4827C8.04009 8.7774 8.27984 9.01716 8.57454 9.01716H9.42518C9.71988 9.01716 9.95963 8.7774 9.95963 8.4827C9.95963 8.14518 10.1786 7.93421 10.3836 7.84935C10.5885 7.76441 10.8925 7.75876 11.1312 7.99739C11.2321 8.0984 11.3663 8.154 11.5091 8.154ZM10.1883 7.37807C9.73256 7.56685 9.44945 7.99011 9.44945 8.48274C9.44945 8.49615 9.43852 8.50708 9.42511 8.50708H8.57446C8.56105 8.50708 8.55012 8.49615 8.55012 8.48274C8.55012 7.98967 8.26712 7.56612 7.81156 7.37741C7.65889 7.31416 7.5013 7.2833 7.34608 7.2833C7.03812 7.2833 6.73949 7.40492 6.50765 7.63677C6.49821 7.64621 6.48269 7.64617 6.47325 7.63677L5.87172 7.03519C5.86702 7.03049 5.86462 7.0247 5.86462 7.018C5.86462 7.01129 5.86702 7.00546 5.87172 7.00076C6.22005 6.65242 6.31916 6.1529 6.13038 5.69718C5.94161 5.24143 5.51833 4.95831 5.02574 4.95831C5.01233 4.95831 5.0014 4.94738 5.0014 4.93397V4.0833C5.0014 4.06986 5.01233 4.05896 5.02574 4.05896C5.51836 4.05896 5.94161 3.77585 6.13038 3.32009C6.31916 2.86433 6.22005 2.36481 5.87172 2.01651C5.86221 2.007 5.86221 1.99155 5.87172 1.98208L6.47325 1.38053C6.48269 1.3711 6.49817 1.3711 6.50765 1.38053C6.85598 1.72887 7.35552 1.82795 7.81123 1.6392C8.26698 1.45042 8.55009 1.02713 8.55009 0.534498C8.55009 0.521089 8.56102 0.510158 8.57443 0.510158H9.42507C9.43851 0.510158 9.44941 0.521089 9.44941 0.534498C9.44941 1.02713 9.73252 1.45042 10.1882 1.6392C10.644 1.82798 11.1435 1.72884 11.4919 1.3805C11.5013 1.3711 11.5168 1.3711 11.5262 1.38053L12.1278 1.98208C12.1325 1.98678 12.1349 1.99261 12.1349 1.99928C12.1349 2.00594 12.1325 2.01177 12.1277 2.01651C11.7794 2.36485 11.6803 2.86437 11.8691 3.32009C12.0579 3.77585 12.4811 4.05896 12.9738 4.05896C12.9872 4.05896 12.9981 4.06989 12.9981 4.0833V4.93397C12.9981 4.94741 12.9872 4.95831 12.9738 4.95831C12.4811 4.95831 12.0579 5.24143 11.8691 5.69718C11.6803 6.15294 11.7794 6.65246 12.1277 7.00076C12.1325 7.0055 12.1349 7.01129 12.1349 7.018C12.1349 7.0247 12.1325 7.03046 12.1277 7.03519L11.5262 7.63674C11.5168 7.64621 11.5013 7.64621 11.4918 7.63674C11.1435 7.2884 10.644 7.18925 10.1883 7.37807ZM8.99978 2.17662C7.71394 2.17662 6.66786 3.22273 6.66786 4.5086C6.66786 5.79443 7.71394 6.84055 8.99978 6.84055C10.2856 6.84055 11.3317 5.79443 11.3317 4.5086C11.3317 3.22276 10.2856 2.17662 8.99978 2.17662ZM8.99978 6.33046C7.99523 6.33046 7.17797 5.51317 7.17797 4.50864C7.17797 3.50406 7.99523 2.68677 8.99978 2.68677C10.0043 2.68677 10.8216 3.50406 10.8216 4.50864C10.8216 5.51317 10.0043 6.33046 8.99978 6.33046ZM10.1966 3.65691C10.2962 3.75653 10.2962 3.91802 10.1966 4.01761L8.854 5.36025C8.80419 5.41006 8.73894 5.43494 8.67364 5.43494C8.60835 5.43494 8.54309 5.41002 8.49328 5.36025L7.63699 4.50394C7.53741 4.40432 7.53741 4.24283 7.63699 4.14324C7.73657 4.04366 7.89809 4.04366 7.99767 4.14324L8.67364 4.81923L9.83589 3.65695C9.93551 3.55733 10.097 3.55733 10.1966 3.65691Z" fill="#1A1A1A"/>
</g>
<defs>
<clipPath id="clip0_324_28644">
<rect width="18" height="18" fill="white"/>
</clipPath>
</defs>
</svg>
