<svg width="16" height="16" viewBox="0 0 16 16" fill="none" xmlns="http://www.w3.org/2000/svg">
<path d="M0 4C0 1.79086 1.79086 0 4 0H12C14.2091 0 16 1.79086 16 4V12C16 14.2091 14.2091 16 12 16H4C1.79086 16 0 14.2091 0 12V4Z" fill="#4DB9C8"/>
<mask id="path-2-inside-1_3001_233839" fill="white">
<path d="M13.5595 5.24679L6.55953 12.2468C6.5189 12.2875 6.47065 12.3197 6.41754 12.3418C6.36442 12.3638 6.30749 12.3751 6.25 12.3751C6.1925 12.3751 6.13557 12.3638 6.08246 12.3418C6.02935 12.3197 5.9811 12.2875 5.94047 12.2468L2.87797 9.18429C2.79588 9.10219 2.74976 8.99085 2.74976 8.87475C2.74976 8.75866 2.79588 8.64732 2.87797 8.56522C2.96006 8.48313 3.0714 8.43701 3.1875 8.43701C3.3036 8.43701 3.41494 8.48313 3.49703 8.56522L6.25 11.3187L12.9405 4.62772C13.0226 4.54563 13.1339 4.49951 13.25 4.49951C13.3661 4.49951 13.4774 4.54563 13.5595 4.62772C13.6416 4.70982 13.6877 4.82116 13.6877 4.93725C13.6877 5.05335 13.6416 5.16469 13.5595 5.24679Z"/>
</mask>
<path d="M13.5595 5.24679L6.55953 12.2468C6.5189 12.2875 6.47065 12.3197 6.41754 12.3418C6.36442 12.3638 6.30749 12.3751 6.25 12.3751C6.1925 12.3751 6.13557 12.3638 6.08246 12.3418C6.02935 12.3197 5.9811 12.2875 5.94047 12.2468L2.87797 9.18429C2.79588 9.10219 2.74976 8.99085 2.74976 8.87475C2.74976 8.75866 2.79588 8.64732 2.87797 8.56522C2.96006 8.48313 3.0714 8.43701 3.1875 8.43701C3.3036 8.43701 3.41494 8.48313 3.49703 8.56522L6.25 11.3187L12.9405 4.62772C13.0226 4.54563 13.1339 4.49951 13.25 4.49951C13.3661 4.49951 13.4774 4.54563 13.5595 4.62772C13.6416 4.70982 13.6877 4.82116 13.6877 4.93725C13.6877 5.05335 13.6416 5.16469 13.5595 5.24679Z" fill="#343330"/>
<path d="M6.55953 12.2468L5.61908 11.3063L5.61856 11.3069L6.55953 12.2468ZM5.94047 12.2468L6.88144 11.3069L6.88092 11.3063L5.94047 12.2468ZM2.87797 9.18429L3.81842 8.24383V8.24383L2.87797 9.18429ZM2.74976 8.87475H4.07976H2.74976ZM3.49703 8.56522L4.43758 7.62486L4.43748 7.62477L3.49703 8.56522ZM6.25 11.3187L5.30945 12.2591L6.24994 13.1998L7.19049 12.2592L6.25 11.3187ZM12.9405 4.62772L12 3.68727L12 3.68731L12.9405 4.62772ZM13.25 4.49951V3.16951V4.49951ZM13.5595 5.24679L12.6191 4.30633L5.61908 11.3063L6.55953 12.2468L7.49998 13.1872L14.5 6.18724L13.5595 5.24679ZM6.55953 12.2468L5.61856 11.3069C5.70144 11.2239 5.79988 11.158 5.90822 11.1131L6.41754 12.3418L6.92685 13.5704C7.14142 13.4814 7.33635 13.3511 7.50051 13.1867L6.55953 12.2468ZM6.41754 12.3418L5.90822 11.1131C6.01658 11.0682 6.13272 11.0451 6.25 11.0451V12.3751V13.7051C6.48226 13.7051 6.71226 13.6593 6.92685 13.5704L6.41754 12.3418ZM6.25 12.3751V11.0451C6.36728 11.0451 6.48342 11.0682 6.59177 11.1131L6.08246 12.3418L5.57315 13.5704C5.78773 13.6593 6.01773 13.7051 6.25 13.7051V12.3751ZM6.08246 12.3418L6.59177 11.1131C6.70012 11.158 6.79855 11.2239 6.88144 11.3069L5.94047 12.2468L4.99949 13.1867C5.16365 13.3511 5.35858 13.4814 5.57315 13.5704L6.08246 12.3418ZM5.94047 12.2468L6.88092 11.3063L3.81842 8.24383L2.87797 9.18429L1.93752 10.1247L5.00002 13.1872L5.94047 12.2468ZM2.87797 9.18429L3.81842 8.24383C3.98575 8.41117 4.07976 8.63811 4.07976 8.87475H2.74976H1.41976C1.41976 9.34359 1.606 9.79322 1.93752 10.1247L2.87797 9.18429ZM2.74976 8.87475H4.07976C4.07976 9.1114 3.98575 9.33834 3.81842 9.50568L2.87797 8.56522L1.93752 7.62477C1.606 7.95629 1.41976 8.40592 1.41976 8.87475H2.74976ZM2.87797 8.56522L3.81842 9.50568C3.65109 9.67301 3.42414 9.76701 3.1875 9.76701V8.43701V7.10701C2.71866 7.10701 2.26903 7.29326 1.93752 7.62477L2.87797 8.56522ZM3.1875 8.43701V9.76701C2.95086 9.76701 2.72391 9.67301 2.55658 9.50568L3.49703 8.56522L4.43748 7.62477C4.10597 7.29326 3.65634 7.10701 3.1875 7.10701V8.43701ZM3.49703 8.56522L2.55648 9.50558L5.30945 12.2591L6.25 11.3187L7.19054 10.3784L4.43758 7.62486L3.49703 8.56522ZM6.25 11.3187L7.19049 12.2592L13.881 5.56814L12.9405 4.62772L12 3.68731L5.30951 10.3783L6.25 11.3187ZM12.9405 4.62772L13.8809 5.56818C13.7136 5.73551 13.4866 5.82951 13.25 5.82951L13.25 4.49951V3.16951C12.7812 3.16951 12.3315 3.35575 12 3.68727L12.9405 4.62772ZM13.25 4.49951L13.25 5.82951C13.0134 5.82951 12.7864 5.73551 12.6191 5.56818L13.5595 4.62772L14.5 3.68727C14.1685 3.35575 13.7188 3.16951 13.25 3.16951V4.49951ZM13.5595 4.62772L12.6191 5.56818C12.4517 5.40085 12.3577 5.1739 12.3577 4.93725H13.6877H15.0177C15.0177 4.46842 14.8315 4.01879 14.5 3.68727L13.5595 4.62772ZM13.6877 4.93725H12.3577C12.3577 4.70061 12.4517 4.47366 12.6191 4.30633L13.5595 5.24679L14.5 6.18724C14.8315 5.85572 15.0177 5.40609 15.0177 4.93725H13.6877Z" fill="white" mask="url(#path-2-inside-1_3001_233839)"/>
</svg>
