<svg width="14" height="12" viewBox="0 0 14 12" fill="none" xmlns="http://www.w3.org/2000/svg">
<path d="M7 12C4.84375 12 2.875 10.875 1.79688 9C0.71875 7.14844 0.71875 4.875 1.79688 3C2.875 1.14844 4.84375 0 7 0C9.13281 0 11.1016 1.14844 12.1797 3C13.2578 4.875 13.2578 7.14844 12.1797 9C11.1016 10.875 9.13281 12 7 12ZM6.0625 7.875C5.73438 7.875 5.5 8.13281 5.5 8.4375C5.5 8.76562 5.73438 9 6.0625 9H7.9375C8.24219 9 8.5 8.76562 8.5 8.4375C8.5 8.13281 8.24219 7.875 7.9375 7.875H7.75V5.8125C7.75 5.50781 7.49219 5.25 7.1875 5.25H6.0625C5.73438 5.25 5.5 5.50781 5.5 5.8125C5.5 6.14062 5.73438 6.375 6.0625 6.375H6.625V7.875H6.0625ZM7 3C6.57812 3 6.25 3.35156 6.25 3.75C6.25 4.17188 6.57812 4.5 7 4.5C7.39844 4.5 7.75 4.17188 7.75 3.75C7.75 3.35156 7.39844 3 7 3Z" fill="#888888"/>
</svg>
