<svg width="49" height="49" viewBox="0 0 49 49" fill="none" xmlns="http://www.w3.org/2000/svg">
<rect width="48.5" height="48.5" rx="24.25" fill="#D1F5FA"/>
<path d="M33.4431 19.913H33.0645V16.7065C33.0645 14.9469 31.625 13.5156 29.8555 13.5156H15.6485C13.8778 13.5156 12.4375 14.9481 12.4375 16.7085V26.0944C12.4375 27.7621 13.7311 29.1353 15.3733 29.2737V32.2046C15.3733 32.5276 15.5575 32.8222 15.8479 32.9635C15.9653 33.0203 16.0914 33.0484 16.2171 33.0484C16.4025 33.0484 16.5862 32.9874 16.7378 32.8683L19.55 30.6629C19.7745 30.4868 20.0177 30.3391 20.2624 30.1951C20.5545 31.3227 21.5718 32.1618 22.7895 32.1618H27.5195C28.5561 32.1618 29.5762 32.514 30.3915 33.1534L32.4963 34.8042C32.6479 34.9233 32.8317 34.9843 33.0171 34.9843C33.1427 34.9843 33.2688 34.9563 33.3862 34.8994C33.6767 34.7581 33.8608 34.4635 33.8608 34.1405V32.1309C35.1063 31.9364 36.0625 30.8566 36.0625 29.5576V22.5324C36.0625 21.088 34.8875 19.913 33.4431 19.913ZM33.0171 30.4743C32.5511 30.4743 32.1733 30.8521 32.1733 31.318V32.4065L31.433 31.8256C30.3215 30.9542 28.9318 30.4743 27.5195 30.4743H22.7895C22.2758 30.4743 21.8576 30.0561 21.8576 29.5423V29.5314C22.4054 29.383 22.9676 29.2853 23.5389 29.2853H29.8534C31.6242 29.2853 33.0645 27.8528 33.0645 26.0924V21.6005H33.4431C33.9568 21.6005 34.375 22.0186 34.375 22.5324V29.5576C34.375 30.0631 33.9638 30.4743 33.4583 30.4743H33.0171ZM17.0608 30.4706V28.4415C17.0608 27.9756 16.683 27.5978 16.2171 27.5978H15.6469C14.8077 27.5978 14.125 26.9233 14.125 26.0944V16.7085C14.125 15.8784 14.8085 15.2031 15.6485 15.2031H29.8555C30.6943 15.2031 31.377 15.8775 31.377 16.7065V26.0924C31.377 26.9225 30.6935 27.5978 29.8534 27.5978H23.5389C21.7237 27.5978 19.9373 28.2145 18.5085 29.3351L17.0608 30.4706Z" fill="#214F56"/>
</svg>
