<svg width="49" height="49" viewBox="0 0 49 49" fill="none" xmlns="http://www.w3.org/2000/svg">
<rect width="48.5" height="48.5" rx="24.25" fill="#D1F5FA"/>
<g clip-path="url(#clip0_219_29567)">
<path d="M25.3986 12.9407C25.6928 12.9407 25.9314 12.7022 25.9314 12.4079V11.1422C25.9314 10.8479 25.6928 10.6094 25.3986 10.6094C25.1043 10.6094 24.8657 10.8479 24.8657 11.1422V12.4079C24.8657 12.7022 25.1043 12.9407 25.3986 12.9407Z" fill="#214F56"/>
<path d="M35.7384 29.1395C35.7384 28.4841 35.4473 27.8955 34.9874 27.4962C35.4473 27.0969 35.7384 26.5084 35.7384 25.853C35.7384 24.653 34.7622 23.6769 33.5623 23.6769H27.091L27.838 20.8573C28.4548 18.5306 27.3669 16.3566 26.0053 15.6766C25.2066 15.2775 24.5651 15.214 24.0444 15.4822C23.3333 15.8485 23.1089 16.7015 22.9723 17.5683C22.4535 20.8445 21.6773 23.0578 19.2706 24.8802C19.1023 24.249 18.5258 23.7825 17.8423 23.7825H14.2401C13.4249 23.7825 12.7617 24.4457 12.7617 25.2609V35.9815C12.7617 36.7966 13.4249 37.4599 14.2401 37.4599H17.8423C18.5295 37.4599 19.1086 36.9885 19.2735 36.3522C20.8698 37.2616 23.323 37.8903 24.8791 37.8903H32.3117C33.5116 37.8903 34.4878 36.9141 34.4878 35.7142C34.4878 35.2767 34.358 34.8688 34.1349 34.5272C35.0579 34.2751 35.7384 33.4286 35.7384 32.4261C35.7384 31.7707 35.4473 31.1821 34.9874 30.7828C35.4473 30.3835 35.7384 29.7949 35.7384 29.1395ZM18.255 35.9815C18.255 36.2052 18.0661 36.3942 17.8424 36.3942H14.2401C14.0164 36.3942 13.8274 36.2052 13.8274 35.9815V25.2609C13.8274 25.0372 14.0163 24.8482 14.2401 24.8482H17.8423C18.066 24.8482 18.2549 25.0371 18.2549 25.2609V35.9815H18.255ZM31.3224 28.0291H33.5623C34.1746 28.0291 34.6728 28.5272 34.6728 29.1395C34.6728 29.7518 34.1746 30.2499 33.5623 30.2499H31.3224C31.0282 30.2499 30.7896 30.4885 30.7896 30.7828C30.7896 31.0771 31.0282 31.3156 31.3224 31.3156H33.5623C34.1746 31.3156 34.6728 31.8138 34.6728 32.4261C34.6728 33.0392 34.1746 33.538 33.5623 33.538H32.3117H31.3224C31.0282 33.538 30.7896 33.7766 30.7896 34.0709C30.7896 34.3652 31.0282 34.6037 31.3224 34.6037H32.3117C32.9239 34.6037 33.4221 35.1019 33.4221 35.7141C33.4221 36.3264 32.924 36.8246 32.3117 36.8246H24.8792C23.3468 36.8246 20.6269 36.076 19.3207 35.1191V26.1513C20.7954 25.1666 21.8312 24.0603 22.5658 22.6875C23.2377 21.4315 23.6742 19.9504 24.025 17.7346C24.074 17.4239 24.2039 16.5989 24.5324 16.4296C24.7215 16.3322 25.0755 16.4034 25.5292 16.6301C26.3907 17.0603 27.3144 18.6737 26.8078 20.5843L25.8835 24.0732C25.7954 24.4056 26.0548 24.7425 26.3986 24.7425H33.5622C34.1745 24.7425 34.6727 25.2407 34.6727 25.853C34.6727 26.4653 34.1745 26.9634 33.5622 26.9634H31.3223C31.0281 26.9634 30.7895 27.202 30.7895 27.4962C30.7895 27.7905 31.0282 28.0291 31.3224 28.0291Z" fill="#214F56"/>
<path d="M16.1659 26.7388C15.8716 26.7388 15.6331 26.9788 15.6331 27.2731C15.6331 27.5674 15.8716 27.8059 16.1659 27.8059C16.4602 27.8059 16.6987 27.5674 16.6987 27.2731V27.2701C16.6987 26.9758 16.4602 26.7388 16.1659 26.7388Z" fill="#214F56"/>
<path d="M19.2711 13.2372L20.2181 14.0769C20.3196 14.1669 20.4457 14.2111 20.5714 14.2111C20.7186 14.2111 20.865 14.1505 20.9703 14.0318C21.1656 13.8116 21.1454 13.4748 20.9252 13.2796L19.9782 12.4399C19.758 12.2446 19.4213 12.2648 19.226 12.485C19.0307 12.7052 19.0509 13.042 19.2711 13.2372Z" fill="#214F56"/>
<path d="M30.2261 14.2111C30.3518 14.2111 30.478 14.1669 30.5795 14.0769L31.5265 13.2372C31.7466 13.042 31.7669 12.7052 31.5717 12.485C31.3764 12.2648 31.0398 12.2446 30.8195 12.4399L29.8724 13.2796C29.6523 13.4748 29.632 13.8116 29.8273 14.0318C29.9326 14.1505 30.079 14.2111 30.2261 14.2111Z" fill="#214F56"/>
<path d="M17.5572 17.9808L18.8229 18.0336C18.8305 18.0339 18.8381 18.0341 18.8456 18.0341C19.1296 18.0341 19.3656 17.8099 19.3776 17.5235C19.3898 17.2295 19.1615 16.9812 18.8674 16.9688L17.6017 16.916C17.3078 16.9039 17.0594 17.1321 17.0471 17.4261C17.0348 17.7202 17.2632 17.9685 17.5572 17.9808Z" fill="#214F56"/>
<path d="M31.4199 17.5235C31.4319 17.8099 31.6678 18.0341 31.9519 18.0341C31.9594 18.0341 31.9669 18.0339 31.9745 18.0336L33.2402 17.9807C33.5343 17.9685 33.7626 17.7201 33.7503 17.4261C33.738 17.1321 33.4892 16.9042 33.1957 16.916L31.93 16.9688C31.636 16.9811 31.4076 17.2294 31.4199 17.5235Z" fill="#214F56"/>
</g>
<defs>
<clipPath id="clip0_219_29567">
<rect width="27.2812" height="27.2812" fill="white" transform="translate(10.6094 10.6094)"/>
</clipPath>
</defs>
</svg>
