<svg width="49" height="49" viewBox="0 0 49 49" fill="none" xmlns="http://www.w3.org/2000/svg">
<rect width="48.5" height="48.5" rx="24.25" fill="#D1F5FA"/>
<path d="M30.834 28.9114C29.4886 28.9114 28.2765 29.47 27.4352 30.3587L19.8683 25.8524C20.0703 25.3551 20.1823 24.815 20.1823 24.25C20.1823 23.6847 20.0703 23.1446 19.8683 22.6476L27.4352 18.141C28.2765 19.0297 29.4886 19.5886 30.834 19.5886C33.3684 19.5886 35.4301 17.6061 35.4301 15.1692C35.4301 12.7323 33.3684 10.75 30.834 10.75C28.2996 10.75 26.2378 12.7325 26.2378 15.1694C26.2378 15.7344 26.3501 16.2745 26.5519 16.7718L18.9852 21.2781C18.1439 20.3895 16.9318 19.8306 15.5864 19.8306C13.052 19.8306 10.9902 21.8133 10.9902 24.25C10.9902 26.6869 13.052 28.6694 15.5864 28.6694C16.9318 28.6694 18.1439 28.1107 18.9852 27.2218L26.5519 31.7281C26.3501 32.2254 26.2378 32.7655 26.2378 33.3308C26.2378 35.7675 28.2996 37.7499 30.834 37.7499C33.3684 37.7499 35.4301 35.7675 35.4301 33.3308C35.4301 30.8939 33.3684 28.9114 30.834 28.9114ZM27.9138 15.1694C27.9138 13.6211 29.2238 12.3615 30.834 12.3615C32.4442 12.3615 33.7542 13.6211 33.7542 15.1694C33.7542 16.7176 32.4442 17.9773 30.834 17.9773C29.2238 17.9773 27.9138 16.7176 27.9138 15.1694ZM15.5864 27.0579C13.976 27.0579 12.666 25.7982 12.666 24.25C12.666 22.7017 13.976 21.4421 15.5864 21.4421C17.1966 21.4421 18.5064 22.7017 18.5064 24.25C18.5064 25.7982 17.1966 27.0579 15.5864 27.0579ZM27.9138 33.3306C27.9138 31.7823 29.2238 30.5227 30.834 30.5227C32.4442 30.5227 33.7542 31.7823 33.7542 33.3306C33.7542 34.8788 32.4442 36.1385 30.834 36.1385C29.2238 36.1385 27.9138 34.8788 27.9138 33.3306Z" fill="#214F56"/>
</svg>
