<svg width="49" height="49" viewBox="0 0 49 49" fill="none" xmlns="http://www.w3.org/2000/svg">
<rect width="48.5" height="48.5" rx="24.25" fill="#D1F5FA"/>
<path d="M37.5784 23.7247C37.3372 23.3948 31.59 15.6455 24.2499 15.6455C16.9097 15.6455 11.1623 23.3948 10.9213 23.7244C10.6929 24.0375 10.6929 24.462 10.9213 24.7751C11.1623 25.105 16.9097 32.8543 24.2499 32.8543C31.59 32.8543 37.3372 25.105 37.5784 24.7753C37.8072 24.4623 37.8072 24.0375 37.5784 23.7247ZM24.2499 31.0741C18.8431 31.0741 14.1602 25.9307 12.7739 24.2493C14.1584 22.5664 18.8315 17.4257 24.2499 17.4257C29.6564 17.4257 34.339 22.5682 35.7258 24.2505C34.3413 25.9334 29.6683 31.0741 24.2499 31.0741Z" fill="#214F56"/>
<path d="M24.2499 18.9092C21.3051 18.9092 18.9092 21.3051 18.9092 24.2499C18.9092 27.1947 21.3051 29.5905 24.2499 29.5905C27.1947 29.5905 29.5905 27.1947 29.5905 24.2499C29.5905 21.3051 27.1947 18.9092 24.2499 18.9092ZM24.2499 27.8103C22.2866 27.8103 20.6894 26.2131 20.6894 24.2499C20.6894 22.2866 22.2866 20.6894 24.2499 20.6894C26.2131 20.6894 27.8103 22.2866 27.8103 24.2499C27.8103 26.2131 26.2132 27.8103 24.2499 27.8103Z" fill="#214F56"/>
</svg>
