<svg width="32" height="32" viewBox="0 0 32 32" fill="none" xmlns="http://www.w3.org/2000/svg">
<rect x="0.3" y="0.3" width="31.4" height="31.4" rx="9.7" fill="white"/>
<rect x="0.3" y="0.3" width="31.4" height="31.4" rx="9.7" stroke="#FF6058" stroke-width="0.6"/>
<path d="M20.6665 12.667C20.4897 12.667 20.3201 12.7372 20.1951 12.8623C20.0701 12.9873 19.9998 13.1568 19.9998 13.3337V20.7943C19.9807 21.1314 19.8292 21.4474 19.5782 21.6732C19.3272 21.8991 18.9971 22.0167 18.6598 22.0003H13.3398C13.0026 22.0167 12.6725 21.8991 12.4215 21.6732C12.1705 21.4474 12.019 21.1314 11.9998 20.7943V13.3337C11.9998 13.1568 11.9296 12.9873 11.8046 12.8623C11.6796 12.7372 11.51 12.667 11.3332 12.667C11.1564 12.667 10.9868 12.7372 10.8618 12.8623C10.7367 12.9873 10.6665 13.1568 10.6665 13.3337V20.7943C10.6855 21.4851 10.9776 22.1403 11.4786 22.6162C11.9797 23.0922 12.649 23.3501 13.3398 23.3337H18.6598C19.3507 23.3501 20.02 23.0922 20.5211 22.6162C21.0221 22.1403 21.3141 21.4851 21.3332 20.7943V13.3337C21.3332 13.1568 21.2629 12.9873 21.1379 12.8623C21.0129 12.7372 20.8433 12.667 20.6665 12.667Z" fill="#FF6058"/>
<path d="M21.3333 10.667H18.6667V9.33366C18.6667 9.15685 18.5964 8.98728 18.4714 8.86225C18.3464 8.73723 18.1768 8.66699 18 8.66699H14C13.8232 8.66699 13.6536 8.73723 13.5286 8.86225C13.4036 8.98728 13.3333 9.15685 13.3333 9.33366V10.667H10.6667C10.4899 10.667 10.3203 10.7372 10.1953 10.8623C10.0702 10.9873 10 11.1568 10 11.3337C10 11.5105 10.0702 11.68 10.1953 11.8051C10.3203 11.9301 10.4899 12.0003 10.6667 12.0003H21.3333C21.5101 12.0003 21.6797 11.9301 21.8047 11.8051C21.9298 11.68 22 11.5105 22 11.3337C22 11.1568 21.9298 10.9873 21.8047 10.8623C21.6797 10.7372 21.5101 10.667 21.3333 10.667ZM14.6667 10.667V10.0003H17.3333V10.667H14.6667Z" fill="#FF6058"/>
<path d="M15.3333 19.3333V14.6667C15.3333 14.4899 15.2631 14.3203 15.1381 14.1953C15.013 14.0702 14.8435 14 14.6667 14C14.4899 14 14.3203 14.0702 14.1953 14.1953C14.0702 14.3203 14 14.4899 14 14.6667V19.3333C14 19.5101 14.0702 19.6797 14.1953 19.8047C14.3203 19.9298 14.4899 20 14.6667 20C14.8435 20 15.013 19.9298 15.1381 19.8047C15.2631 19.6797 15.3333 19.5101 15.3333 19.3333Z" fill="#FF6058"/>
<path d="M17.9998 19.3333V14.6667C17.9998 14.4899 17.9296 14.3203 17.8046 14.1953C17.6796 14.0702 17.51 14 17.3332 14C17.1564 14 16.9868 14.0702 16.8618 14.1953C16.7367 14.3203 16.6665 14.4899 16.6665 14.6667V19.3333C16.6665 19.5101 16.7367 19.6797 16.8618 19.8047C16.9868 19.9298 17.1564 20 17.3332 20C17.51 20 17.6796 19.9298 17.8046 19.8047C17.9296 19.6797 17.9998 19.5101 17.9998 19.3333Z" fill="#FF6058"/>
</svg>
