<svg width="32" height="32" viewBox="0 0 32 32" fill="none" xmlns="http://www.w3.org/2000/svg">
<rect width="32" height="32" rx="10" fill="#D1F5FA"/>
<g clip-path="url(#clip0_507_2250)">
<path d="M20.6666 16.0306C20.298 16.0306 20 16.3293 20 16.6973V22.0306C20 22.3979 19.7013 22.6973 19.3334 22.6973H10C9.63196 22.6973 9.33337 22.3979 9.33337 22.0306V12.6973C9.33337 12.33 9.63196 12.0306 10 12.0306H15.3334C15.702 12.0306 16 11.7319 16 11.364C16 10.996 15.702 10.6973 15.3334 10.6973H10C8.89734 10.6973 8 11.5946 8 12.6973V22.0306C8 23.1333 8.89734 24.0306 10 24.0306H19.3334C20.436 24.0306 21.3334 23.1333 21.3334 22.0306V16.6973C21.3334 16.3286 21.0353 16.0306 20.6666 16.0306Z" fill="#214F56"/>
<path d="M14.2508 15.4231C14.2041 15.4697 14.1727 15.5291 14.1594 15.593L13.6881 17.9504C13.6662 18.0597 13.7008 18.1724 13.7794 18.2517C13.8428 18.3151 13.9281 18.349 14.0155 18.349C14.0368 18.349 14.0589 18.347 14.0808 18.3424L16.4375 17.8711C16.5028 17.8577 16.5622 17.8264 16.6082 17.7797L21.8828 12.505L19.5261 10.1484L14.2508 15.4231Z" fill="#214F56"/>
<path d="M23.5117 8.51877C22.8618 7.86874 21.8044 7.86874 21.155 8.51877L20.2324 9.44138L22.5891 11.7981L23.5117 10.8753C23.8264 10.5614 23.9998 10.1427 23.9998 9.69736C23.9998 9.25204 23.8264 8.83334 23.5117 8.51877Z" fill="#214F56"/>
</g>
<defs>
<clipPath id="clip0_507_2250">
<rect width="16" height="16" fill="white" transform="translate(8 8)"/>
</clipPath>
</defs>
</svg>
