<svg width="48" height="48" viewBox="0 0 48 48" fill="none" xmlns="http://www.w3.org/2000/svg">
<g filter="url(#filter0_d_477_2354)">
<rect x="8" y="8" width="32" height="32" rx="10" fill="#0FCCE6" shape-rendering="crispEdges"/>
<g clip-path="url(#clip0_477_2354)">
<path d="M23.9999 28.353C22.1919 28.3562 20.4388 27.7318 19.0399 26.5863L16.9799 24.8997C16.8461 24.7909 16.7383 24.6537 16.6643 24.498C16.5902 24.3423 16.5518 24.1721 16.5518 23.9997C16.5518 23.8273 16.5902 23.657 16.6643 23.5013C16.7383 23.3456 16.8461 23.2084 16.9799 23.0997L19.0399 21.413C20.441 20.2717 22.1928 19.6484 23.9999 19.6484C25.807 19.6484 27.5588 20.2717 28.9599 21.413L31.0199 23.0997C31.1537 23.2084 31.2615 23.3456 31.3356 23.5013C31.4096 23.657 31.4481 23.8273 31.4481 23.9997C31.4481 24.1721 31.4096 24.3423 31.3356 24.498C31.2615 24.6537 31.1537 24.7909 31.0199 24.8997L28.9599 26.5863C27.5616 27.7328 25.8081 28.3574 23.9999 28.353ZM23.9999 20.6663C22.4254 20.6578 20.8965 21.1949 19.6732 22.1863L17.6132 23.873C17.5949 23.8886 17.5803 23.9081 17.5702 23.9299C17.5601 23.9518 17.5549 23.9756 17.5549 23.9997C17.5549 24.0237 17.5601 24.0475 17.5702 24.0694C17.5803 24.0913 17.5949 24.1107 17.6132 24.1263L19.6732 25.813C20.8961 26.8127 22.4271 27.3588 24.0066 27.3588C25.5861 27.3588 27.117 26.8127 28.3399 25.813L30.3999 24.1263C30.4182 24.1107 30.4329 24.0913 30.443 24.0694C30.453 24.0475 30.4583 24.0237 30.4583 23.9997C30.4583 23.9756 30.453 23.9518 30.443 23.9299C30.4329 23.9081 30.4182 23.8886 30.3999 23.873L28.3266 22.1863C27.1028 21.1959 25.5743 20.6589 23.9999 20.6663Z" fill="white"/>
<path d="M23.9997 28.1663C23.1756 28.1663 22.37 27.922 21.6848 27.4641C20.9996 27.0063 20.4655 26.3556 20.1502 25.5942C19.8348 24.8328 19.7523 23.9951 19.9131 23.1868C20.0738 22.3785 20.4707 21.6361 21.0534 21.0534C21.6361 20.4707 22.3785 20.0738 23.1868 19.9131C23.9951 19.7523 24.8328 19.8348 25.5942 20.1502C26.3556 20.4655 27.0063 20.9996 27.4641 21.6848C27.922 22.37 28.1663 23.1756 28.1663 23.9997C28.1663 25.1047 27.7274 26.1646 26.946 26.946C26.1646 27.7274 25.1047 28.1663 23.9997 28.1663ZM23.9997 20.833C23.3734 20.833 22.7611 21.0187 22.2404 21.3667C21.7196 21.7146 21.3137 22.2092 21.0741 22.7878C20.8344 23.3665 20.7717 24.0032 20.8939 24.6175C21.016 25.2317 21.3176 25.796 21.7605 26.2388C22.2034 26.6817 22.7676 26.9833 23.3819 27.1055C23.9962 27.2277 24.6329 27.165 25.2115 26.9253C25.7901 26.6856 26.2847 26.2797 26.6327 25.759C26.9806 25.2382 27.1663 24.626 27.1663 23.9997C27.1663 23.1598 26.8327 22.3544 26.2388 21.7605C25.645 21.1666 24.8395 20.833 23.9997 20.833Z" fill="white"/>
<path d="M26 24.0001C26.0002 24.4187 25.869 24.8268 25.625 25.1669C25.3809 25.5071 25.0363 25.762 24.6397 25.8959C24.243 26.0298 23.8144 26.0359 23.4141 25.9132C23.0139 25.7906 22.6622 25.5455 22.4086 25.2124C22.1551 24.8793 22.0124 24.4751 22.0008 24.0566C21.9891 23.6381 22.1091 23.2266 22.3437 22.8799C22.5784 22.5332 22.9159 22.2689 23.3087 22.1242C23.7016 21.9795 24.1299 21.9618 24.5333 22.0734C24.4036 22.244 24.3333 22.4524 24.3333 22.6667C24.3333 22.9319 24.4387 23.1863 24.6262 23.3738C24.8138 23.5614 25.0681 23.6667 25.3333 23.6667C25.5477 23.6667 25.7561 23.5965 25.9267 23.4667C25.975 23.6404 25.9997 23.8198 26 24.0001Z" fill="white"/>
</g>
</g>
<defs>
<filter id="filter0_d_477_2354" x="0" y="0" width="48" height="48" filterUnits="userSpaceOnUse" color-interpolation-filters="sRGB">
<feFlood flood-opacity="0" result="BackgroundImageFix"/>
<feColorMatrix in="SourceAlpha" type="matrix" values="0 0 0 0 0 0 0 0 0 0 0 0 0 0 0 0 0 0 127 0" result="hardAlpha"/>
<feOffset/>
<feGaussianBlur stdDeviation="4"/>
<feComposite in2="hardAlpha" operator="out"/>
<feColorMatrix type="matrix" values="0 0 0 0 0.866425 0 0 0 0 0.903504 0 0 0 0 0.908654 0 0 0 1 0"/>
<feBlend mode="normal" in2="BackgroundImageFix" result="effect1_dropShadow_477_2354"/>
<feBlend mode="normal" in="SourceGraphic" in2="effect1_dropShadow_477_2354" result="shape"/>
</filter>
<clipPath id="clip0_477_2354">
<rect width="16" height="16" fill="white" transform="translate(16 16)"/>
</clipPath>
</defs>
</svg>
