<svg width="32" height="32" viewBox="0 0 32 32" fill="none" xmlns="http://www.w3.org/2000/svg">
<rect width="32" height="32" rx="16" fill="#D1F5FA"/>
<path d="M16.7578 8.53823C16.9519 8.53823 17.1094 8.38083 17.1094 8.18666V7.35156C17.1094 7.15739 16.9519 7 16.7578 7C16.5637 7 16.4062 7.15739 16.4062 7.35156V8.18666C16.4062 8.38083 16.5637 8.53823 16.7578 8.53823Z" fill="#214F56"/>
<path d="M23.5798 19.2261C23.5798 18.7936 23.3877 18.4053 23.0843 18.1418C23.3877 17.8784 23.5798 17.49 23.5798 17.0576C23.5798 16.2659 22.9357 15.6218 22.144 15.6218H17.8743L18.3671 13.7615C18.7741 12.2263 18.0564 10.792 17.158 10.3433C16.6309 10.08 16.2077 10.0381 15.8642 10.2151C15.395 10.4567 15.2469 11.0195 15.1568 11.5914C14.8145 13.7531 14.3024 15.2134 12.7145 16.4158C12.6034 15.9993 12.2231 15.6916 11.772 15.6916H9.39533C8.85751 15.6916 8.41992 16.1291 8.41992 16.667V23.7404C8.41992 24.2782 8.85748 24.7158 9.39533 24.7158H11.7721C12.2255 24.7158 12.6076 24.4048 12.7164 23.9849C13.7696 24.585 15.3882 24.9998 16.4149 24.9998H21.3189C22.1106 24.9998 22.7547 24.3557 22.7547 23.564C22.7547 23.2753 22.669 23.0062 22.5218 22.7808C23.1308 22.6145 23.5798 22.056 23.5798 21.3945C23.5798 20.9621 23.3877 20.5737 23.0843 20.3103C23.3877 20.0468 23.5798 19.6585 23.5798 19.2261ZM12.0444 23.7404C12.0444 23.8879 11.9197 24.0126 11.7721 24.0126H9.39533C9.24775 24.0126 9.12305 23.888 9.12305 23.7404V16.667C9.12305 16.5194 9.24771 16.3947 9.39533 16.3947H11.7721C11.9197 16.3947 12.0443 16.5193 12.0443 16.667V23.7404H12.0444ZM20.6661 18.4934H22.144C22.548 18.4934 22.8767 18.8221 22.8767 19.2261C22.8767 19.63 22.548 19.9587 22.144 19.9587H20.6661C20.472 19.9587 20.3146 20.1161 20.3146 20.3103C20.3146 20.5044 20.472 20.6618 20.6661 20.6618H22.144C22.548 20.6618 22.8767 20.9905 22.8767 21.3945C22.8767 21.799 22.548 22.1282 22.144 22.1282H21.3189H20.6661C20.472 22.1282 20.3146 22.2856 20.3146 22.4797C20.3146 22.6739 20.472 22.8313 20.6661 22.8313H21.3189C21.7228 22.8313 22.0515 23.16 22.0515 23.5639C22.0515 23.9679 21.7229 24.2966 21.3189 24.2966H16.4149C15.4039 24.2966 13.6093 23.8027 12.7475 23.1714V17.2545C13.7205 16.6048 14.4039 15.8748 14.8886 14.9691C15.3319 14.1404 15.6199 13.1631 15.8514 11.7011C15.8837 11.4962 15.9694 10.9518 16.1861 10.8402C16.3109 10.7759 16.5445 10.8228 16.8438 10.9724C17.4123 11.2563 18.0217 12.3208 17.6875 13.5814L17.0776 15.8834C17.0195 16.1026 17.1906 16.325 17.4174 16.325H22.144C22.548 16.325 22.8767 16.6536 22.8767 17.0576C22.8767 17.4616 22.548 17.7903 22.144 17.7903H20.6661C20.472 17.7903 20.3145 17.9477 20.3145 18.1418C20.3145 18.336 20.472 18.4934 20.6661 18.4934Z" fill="#214F56"/>
<path d="M10.666 17.6421C10.4718 17.6421 10.3145 17.8005 10.3145 17.9946C10.3145 18.1888 10.4718 18.3462 10.666 18.3462C10.8602 18.3462 11.0176 18.1888 11.0176 17.9946V17.9926C11.0176 17.7985 10.8602 17.6421 10.666 17.6421Z" fill="#214F56"/>
<path d="M12.7147 8.73376L13.3396 9.28782C13.4065 9.34716 13.4898 9.37634 13.5727 9.37634C13.6698 9.37634 13.7664 9.33637 13.8359 9.25804C13.9647 9.11278 13.9514 8.89056 13.8061 8.76174L13.1813 8.20768C13.036 8.07883 12.8138 8.09219 12.685 8.23746C12.5561 8.38276 12.5695 8.60495 12.7147 8.73376Z" fill="#214F56"/>
<path d="M19.9428 9.37634C20.0257 9.37634 20.1089 9.34716 20.1759 9.28782L20.8007 8.73376C20.946 8.60495 20.9593 8.38276 20.8305 8.23746C20.7017 8.09219 20.4796 8.07883 20.3342 8.20768L19.7094 8.76174C19.5641 8.89056 19.5508 9.11274 19.6796 9.25804C19.749 9.33637 19.8457 9.37634 19.9428 9.37634Z" fill="#214F56"/>
<path d="M11.584 11.8635L12.4191 11.8984C12.4241 11.8986 12.4291 11.8987 12.434 11.8987C12.6214 11.8987 12.7771 11.7508 12.785 11.5618C12.7931 11.3678 12.6424 11.2039 12.4484 11.1958L11.6133 11.1609C11.4194 11.153 11.2555 11.3035 11.2474 11.4975C11.2393 11.6916 11.39 11.8554 11.584 11.8635Z" fill="#214F56"/>
<path d="M20.7305 11.5617C20.7384 11.7507 20.8941 11.8987 21.0815 11.8987C21.0865 11.8987 21.0914 11.8985 21.0964 11.8983L21.9315 11.8635C22.1256 11.8554 22.2762 11.6915 22.2681 11.4975C22.26 11.3035 22.0958 11.1532 21.9022 11.1609L21.0671 11.1958C20.8731 11.2039 20.7224 11.3678 20.7305 11.5617Z" fill="#214F56"/>
</svg>
