<svg width="32" height="32" viewBox="0 0 32 32" fill="none" xmlns="http://www.w3.org/2000/svg">
<rect width="32" height="32" rx="16" fill="#D1F5FA"/>
<path d="M21.6568 10.524C19.3904 8.25972 15.9926 7.56389 13.0186 8.75503C12.7353 8.86809 12.5973 9.18939 12.7104 9.47264C12.8235 9.75592 13.1448 9.89392 13.428 9.78085C13.4288 9.78054 13.4296 9.7802 13.4304 9.77989C14.2472 9.45173 15.1196 9.28383 15.9999 9.28539C19.8021 9.28539 22.8954 12.3787 22.8954 16.1808C22.8898 18.6353 21.5854 20.9034 19.4667 22.1427C19.2026 22.2952 19.112 22.6329 19.2645 22.8971C19.4169 23.1612 19.7547 23.2518 20.0188 23.0993C20.0202 23.0985 20.0216 23.0978 20.0229 23.097C22.4861 21.6647 24.0011 19.03 23.9999 16.1808C24.0057 14.0579 23.162 12.021 21.6568 10.524Z" fill="#214F56"/>
<path d="M9.17997 13.1328C9.44809 13.2778 9.78297 13.1779 9.92791 12.9098C9.928 12.9097 9.92809 12.9095 9.92816 12.9093C10.422 11.9984 11.1129 11.2091 11.9504 10.5989C12.1978 10.4205 12.2538 10.0754 12.0754 9.82796C11.8971 9.58056 11.5519 9.52459 11.3045 9.70296C11.3033 9.70377 11.3022 9.70462 11.3011 9.70543C10.3299 10.4129 9.52887 11.3282 8.95628 12.3845C8.8114 12.6529 8.91153 12.9879 9.17997 13.1328Z" fill="#214F56"/>
<path d="M9.36615 18.0693C9.05756 16.9763 9.02134 15.8244 9.26065 14.7143C9.32365 14.4159 9.13281 14.1229 8.8344 14.0599C8.53812 13.9973 8.24674 14.185 8.18115 14.4806C7.90349 15.7679 7.94555 17.1037 8.30365 18.371C8.38699 18.6644 8.6924 18.8347 8.98581 18.7513C9.27921 18.668 9.4495 18.3626 9.36615 18.0692V18.0693Z" fill="#214F56"/>
<path d="M12.1652 21.9127C11.2698 21.3112 10.5265 20.5097 9.99396 19.5717C9.84712 19.3043 9.51137 19.2066 9.24402 19.3535C8.97668 19.5003 8.87899 19.8361 9.02584 20.1034C9.02809 20.1075 9.0304 20.1116 9.03274 20.1156C9.65015 21.2033 10.5119 22.1327 11.5501 22.8302C11.8034 23 12.1465 22.9323 12.3163 22.679C12.4862 22.4256 12.4184 22.0826 12.1651 21.9127H12.1652Z" fill="#214F56"/>
<path d="M18.3497 22.414C16.8418 22.8736 15.2223 22.8054 13.7583 22.2206C13.4753 22.1069 13.1537 22.2442 13.04 22.5272C12.9262 22.8102 13.0635 23.1318 13.3465 23.2455C15.0447 23.9244 16.9237 24.0036 18.6731 23.4702C18.9648 23.3809 19.1288 23.0721 19.0395 22.7804C18.9502 22.4888 18.6414 22.3247 18.3497 22.414Z" fill="#214F56"/>
<path d="M16 11.855C15.695 11.855 15.4478 12.1022 15.4478 12.4073V15.6284H12.2266C11.9216 15.6284 11.6743 15.8756 11.6743 16.1807C11.6743 16.4857 11.9216 16.7329 12.2266 16.7329H15.4478V19.9541C15.4478 20.2591 15.695 20.5064 16 20.5064C16.305 20.5064 16.5523 20.2591 16.5523 19.9541V16.7329H19.7735C20.0785 16.7329 20.3258 16.4856 20.3258 16.1806C20.3258 15.8756 20.0786 15.6283 19.7735 15.6283H16.5523V12.4072C16.5523 12.1022 16.305 11.855 16 11.855Z" fill="#214F56"/>
</svg>
