<svg width="32" height="32" viewBox="0 0 32 32" fill="none" xmlns="http://www.w3.org/2000/svg">
<rect width="32" height="32" rx="16" fill="#D1F5FA"/>
<path d="M10.75 23.3126C10.5474 23.3118 10.3475 23.2657 10.165 23.1776C9.94136 23.0725 9.75212 22.906 9.61934 22.6976C9.48657 22.4891 9.41572 22.2472 9.41504 22.0001V9.25009C9.41602 9.0761 9.45138 8.90403 9.51909 8.74376C9.58681 8.5835 9.68554 8.4382 9.8096 8.31622C9.93367 8.19424 10.0806 8.098 10.242 8.03302C10.4034 7.96804 10.5761 7.93561 10.75 7.93759H21.25C21.5975 7.93955 21.9302 8.07847 22.1759 8.32418C22.4217 8.5699 22.5606 8.9026 22.5625 9.25009V22.0001C22.5577 22.2376 22.4884 22.4693 22.3622 22.6706C22.236 22.8718 22.0575 23.035 21.8458 23.1428C21.6341 23.2506 21.3971 23.2989 21.1601 23.2826C20.9231 23.2662 20.695 23.1859 20.5 23.0501L16.15 19.7876C16.1181 19.762 16.0784 19.7481 16.0375 19.7481C15.9966 19.7481 15.957 19.762 15.925 19.7876L11.5375 23.0501C11.3098 23.2195 11.0339 23.3115 10.75 23.3126ZM10.75 9.06259C10.7003 9.06259 10.6526 9.08234 10.6175 9.1175C10.5823 9.15267 10.5625 9.20036 10.5625 9.25009V22.0001C10.5623 22.0348 10.572 22.0688 10.5907 22.0981C10.6093 22.1274 10.636 22.1506 10.6675 22.1651C10.6962 22.1848 10.7302 22.1953 10.765 22.1953C10.7998 22.1953 10.8338 22.1848 10.8625 22.1651L15.25 18.8876C15.4782 18.7195 15.7541 18.6288 16.0375 18.6288C16.3209 18.6288 16.5969 18.7195 16.825 18.8876L21.175 22.1501C21.2037 22.1698 21.2377 22.1803 21.2725 22.1803C21.3073 22.1803 21.3413 22.1698 21.37 22.1501C21.4016 22.1356 21.4283 22.1124 21.4469 22.0831C21.4655 22.0538 21.4753 22.0198 21.475 21.9851V9.25009C21.4756 9.22196 21.4698 9.19407 21.4582 9.16848C21.4465 9.14289 21.4292 9.12025 21.4076 9.10225C21.386 9.08424 21.3606 9.07133 21.3333 9.06446C21.3061 9.0576 21.2776 9.05695 21.25 9.06259H10.75Z" fill="#214F56"/>
</svg>
