<svg width="32" height="32" viewBox="0 0 32 32" fill="none" xmlns="http://www.w3.org/2000/svg">
<rect width="32" height="32" rx="16" fill="#D1F5FA"/>
<path d="M15.6211 7.71289C13.0024 7.71289 10.8604 9.85649 10.8604 12.4752C10.8604 14.0764 11.6636 15.4943 12.8848 16.357C10.0421 17.4966 8.02588 20.2768 8.02588 23.5201C8.00319 24.5425 9.54858 24.5425 9.52588 23.5201C9.52588 20.0775 12.3016 17.3033 15.7441 17.3033C16.9458 17.3033 18.0613 17.6458 19.0107 18.2334C19.8643 18.7568 20.6494 17.4766 19.7959 16.9532C19.3684 16.6887 18.9052 16.4824 18.4277 16.3042C19.6065 15.4371 20.3774 14.0445 20.3774 12.4752C20.3774 9.85649 18.2398 7.71289 15.6211 7.71289ZM15.6211 9.21438C17.4291 9.21438 18.8774 10.6671 18.8774 12.4752C18.8774 14.2832 17.4291 15.73 15.6211 15.73C13.8131 15.73 12.3604 14.2832 12.3604 12.4752C12.3604 10.6671 13.8131 9.21438 15.6211 9.21438ZM20.2222 21.9761V23.4761C20.2439 24.4541 21.7005 24.4541 21.7222 23.4761V21.9761H23.2236C24.2246 21.9761 24.2246 20.4747 23.2236 20.4747H21.7222V18.9747C21.727 18.5542 21.3854 18.2117 20.9648 18.2158C20.5501 18.2187 20.2173 18.5599 20.2222 18.9747V20.4747H18.6863C17.6494 20.5226 17.7212 22.0239 18.7222 21.9761H20.2222Z" fill="#214F56"/>
</svg>
