<svg width="18" height="18" viewBox="0 0 18 18" fill="none" xmlns="http://www.w3.org/2000/svg">
<path d="M2.5947 12.5287C2.55778 12.465 2.49739 12.4184 2.42647 12.3987C2.35555 12.3791 2.27976 12.388 2.21533 12.4236C2.15091 12.4591 2.10299 12.5185 2.08185 12.589C2.06071 12.6595 2.06803 12.7355 2.10225 12.8006C5.03006 18.2005 12.971 18.1993 15.8978 12.8005C15.9337 12.7352 15.9422 12.6584 15.9214 12.5868C15.9007 12.5152 15.8524 12.4548 15.7872 12.4188C15.722 12.3828 15.6451 12.3742 15.5735 12.3948C15.5019 12.4154 15.4414 12.4635 15.4053 12.5287C14.7737 13.6747 13.8463 14.6303 12.7197 15.2958C11.593 15.9613 10.3085 16.3124 8.99999 16.3124C7.69148 16.3124 6.40693 15.9613 5.2803 15.2958C4.15367 14.6303 3.22624 13.6747 2.5947 12.5287Z" fill="white"/>
<path d="M14.5462 4.24091C14.5951 4.29587 14.6637 4.32945 14.7371 4.33446C14.8105 4.33947 14.883 4.3155 14.9389 4.2677C14.9949 4.2199 15.0299 4.15207 15.0364 4.07877C15.0429 4.00547 15.0204 3.93253 14.9738 3.8756C11.9647 0.232721 6.03499 0.232988 3.02619 3.87571C2.97943 3.93263 2.95687 4.00561 2.96335 4.07899C2.96984 4.15236 3.00485 4.22026 3.06087 4.26809C3.11688 4.31593 3.18943 4.33987 3.26291 4.33479C3.33639 4.3297 3.40495 4.29599 3.45384 4.2409C6.24769 0.85911 11.7527 0.859467 14.5462 4.24091Z" fill="white"/>
<path d="M5.32233 4.02691C5.26405 4.07196 5.22577 4.13808 5.21572 4.21105C5.20566 4.28402 5.22463 4.35803 5.26856 4.41716C5.31248 4.4763 5.37785 4.51584 5.45061 4.5273C5.52338 4.53876 5.59773 4.52121 5.6577 4.47843C6.62586 3.76458 7.79714 3.37946 9.00002 3.37947C10.2029 3.37947 11.3742 3.76461 12.3423 4.47847C12.4023 4.52113 12.4766 4.53857 12.5493 4.52707C12.622 4.51556 12.6873 4.47602 12.7312 4.41693C12.775 4.35785 12.794 4.28391 12.784 4.211C12.774 4.13808 12.7358 4.07199 12.6777 4.0269C11.6124 3.24125 10.3236 2.81738 8.99999 2.81738C7.67638 2.81738 6.38755 3.24126 5.32233 4.02691Z" fill="white"/>
<path d="M9 15.1874C9.93313 15.1893 10.8545 14.9789 11.6942 14.5721C12.534 14.1653 13.2702 13.5728 13.8472 12.8394C13.8917 12.7807 13.9115 12.7069 13.9023 12.6339C13.8931 12.5608 13.8556 12.4942 13.7978 12.4485C13.7401 12.4028 13.6667 12.3815 13.5935 12.3893C13.5202 12.397 13.4529 12.4332 13.4061 12.49C11.2488 15.3186 6.75095 15.3183 4.59394 12.4899C4.54703 12.4332 4.47975 12.397 4.40652 12.3893C4.33328 12.3816 4.25994 12.4029 4.20222 12.4486C4.1445 12.4943 4.107 12.5609 4.09777 12.6339C4.08854 12.707 4.10831 12.7807 4.15285 12.8394C4.72977 13.5728 5.46599 14.1653 6.30577 14.5721C7.14555 14.9789 8.06688 15.1893 9 15.1874Z" fill="white"/>
<path d="M1.27345 9.72226C1.17455 9.91021 1.12556 10.1204 1.13118 10.3327C1.13679 10.545 1.19683 10.7523 1.30554 10.9348C1.41425 11.1172 1.56798 11.2687 1.75202 11.3747C1.93605 11.4807 2.14423 11.5377 2.35659 11.5402L5.48622 11.5402C5.48515 11.7259 5.52067 11.9099 5.59075 12.0818C5.66083 12.2537 5.76409 12.4101 5.89465 12.5421C6.0252 12.674 6.18048 12.779 6.35161 12.8509C6.52274 12.9228 6.70637 12.9604 6.892 12.9613L11.108 12.9613C11.2939 12.9612 11.4779 12.9242 11.6494 12.8526C11.8209 12.781 11.9765 12.676 12.1072 12.5439C12.2379 12.4117 12.3411 12.255 12.4109 12.0827C12.4807 11.9105 12.5157 11.7261 12.5138 11.5402H15.6434C15.8558 11.5377 16.064 11.4807 16.248 11.3747C16.432 11.2687 16.5858 11.1172 16.6945 10.9348C16.8032 10.7523 16.8632 10.545 16.8688 10.3327C16.8744 10.1204 16.8254 9.91019 16.7265 9.72224C16.342 9.00988 15.7054 8.4668 14.9413 8.19943C15.1549 8.03496 15.3279 7.82369 15.447 7.58187C15.5661 7.34005 15.6281 7.07413 15.6283 6.80456C15.5445 4.46752 12.18 4.46745 12.0965 6.80459C12.0967 7.0742 12.1588 7.34017 12.278 7.58202C12.3971 7.82387 12.5702 8.03516 12.7838 8.19962C12.0945 8.44241 11.5074 8.91109 11.118 9.52957C10.8262 9.33362 10.5085 9.17921 10.1742 9.07078C10.4411 8.88298 10.659 8.63377 10.8095 8.34416C10.96 8.05455 11.0387 7.73301 11.0389 7.40663C10.9437 4.709 7.05663 4.70793 6.96108 7.40666C6.96134 7.73303 7.04002 8.05457 7.19051 8.34417C7.341 8.63378 7.55889 8.88298 7.82582 9.07078C7.49132 9.17925 7.17354 9.33375 6.88163 9.52983C6.49153 8.91199 5.90479 8.44348 5.21594 8.1998C5.42966 8.03534 5.60279 7.82403 5.72199 7.58214C5.84119 7.34024 5.90329 7.07422 5.9035 6.80455C5.82252 4.46977 2.45426 4.46622 2.37167 6.80458C2.37188 7.07414 2.43393 7.34005 2.55304 7.58187C2.67216 7.82369 2.84515 8.03495 3.05873 8.19942C2.29465 8.4668 1.65796 9.00989 1.27345 9.72226ZM12.659 6.80457C12.662 6.4874 12.7902 6.18424 13.0155 5.96103C13.2409 5.73782 13.5452 5.6126 13.8624 5.6126C14.1796 5.61261 14.484 5.73783 14.7093 5.96105C14.9347 6.18426 15.0628 6.48742 15.0658 6.8046C15.0628 7.12177 14.9347 7.42492 14.7093 7.64813C14.484 7.87135 14.1796 7.99656 13.8624 7.99656C13.5452 7.99656 13.2408 7.87133 13.0155 7.64811C12.7901 7.4249 12.662 7.12175 12.659 6.80457ZM13.8604 8.57038C14.347 8.57001 14.8245 8.70176 15.242 8.95154C15.6595 9.20133 16.0014 9.5598 16.2311 9.98868C16.285 10.0908 16.3117 10.205 16.3088 10.3205C16.3059 10.4359 16.2734 10.5486 16.2144 10.6479C16.1554 10.7471 16.0719 10.8296 15.972 10.8873C15.872 10.9451 15.7589 10.9762 15.6434 10.9777H12.3887C12.1864 10.5614 11.9058 10.1879 11.5623 9.87754C11.8005 9.48027 12.1371 9.1512 12.5397 8.92219C12.9423 8.69319 13.3972 8.57201 13.8604 8.57038ZM7.52358 7.40663C7.58563 5.45545 10.4147 5.45591 10.4764 7.40666C10.4144 9.35798 7.5853 9.35752 7.52358 7.40663ZM11.8503 11.1502C11.9184 11.2791 11.9523 11.4234 11.9486 11.5692C11.9449 11.715 11.9039 11.8574 11.8294 11.9827C11.7548 12.1081 11.6494 12.2122 11.523 12.285C11.3967 12.3579 11.2538 12.3971 11.108 12.3988L6.892 12.3988C6.74563 12.3985 6.60184 12.3602 6.47469 12.2877C6.34754 12.2152 6.24138 12.1109 6.16658 11.9851C6.09178 11.8593 6.05091 11.7162 6.04796 11.5699C6.04501 11.4236 6.08007 11.279 6.14973 11.1502C7.32845 8.89383 10.6718 8.89404 11.8503 11.1502ZM2.93417 6.80456C2.93717 6.48736 3.06528 6.18417 3.29064 5.96093C3.516 5.73769 3.82039 5.61245 4.1376 5.61245C4.45482 5.61245 4.7592 5.7377 4.98456 5.96095C5.20992 6.18419 5.33802 6.48739 5.34101 6.80459C5.33801 7.12179 5.2099 7.42498 4.98454 7.64823C4.75918 7.87147 4.45479 7.99671 4.13758 7.99671C3.82036 7.9967 3.51598 7.87146 3.29062 7.64821C3.06526 7.42496 2.93716 7.12177 2.93417 6.80456ZM4.13496 8.57034C4.59883 8.57163 5.05451 8.69266 5.45789 8.92171C5.86127 9.15076 6.19868 9.48007 6.43746 9.87777C6.09408 10.1881 5.81358 10.5615 5.61124 10.9777H2.35657C2.24112 10.9762 2.12799 10.9451 2.02802 10.8873C1.92805 10.8296 1.84458 10.7471 1.7856 10.6479C1.72663 10.5486 1.69413 10.4359 1.69121 10.3204C1.6883 10.205 1.71507 10.0908 1.76895 9.98866C1.99831 9.56047 2.33944 9.20246 2.75606 8.95271C3.17269 8.70297 3.64922 8.57082 4.13496 8.57034Z" fill="white"/>
</svg>
