<svg width="18" height="18" viewBox="0 0 18 18" fill="none" xmlns="http://www.w3.org/2000/svg">
<g clip-path="url(#clip0_324_29219)">
<path d="M6.75 7.5C4.68225 7.5 3 5.81775 3 3.75C3 1.68225 4.68225 0 6.75 0C8.81775 0 10.5 1.68225 10.5 3.75C10.5 5.81775 8.81775 7.5 6.75 7.5ZM6.75 0.75C5.0955 0.75 3.75 2.0955 3.75 3.75C3.75 5.4045 5.0955 6.75 6.75 6.75C8.4045 6.75 9.75 5.4045 9.75 3.75C9.75 2.0955 8.4045 0.75 6.75 0.75Z" fill="white"/>
<path d="M6.375 15.75H0.375C0.168 15.75 0 15.582 0 15.375V12.375C0 10.5143 1.51425 9 3.375 9H7.875C8.082 9 8.25 9.168 8.25 9.375C8.25 9.582 8.082 9.75 7.875 9.75H3.375C1.9275 9.75 0.75 10.9275 0.75 12.375V15H6.375C6.582 15 6.75 15.168 6.75 15.375C6.75 15.582 6.582 15.75 6.375 15.75Z" fill="white"/>
<path d="M12.75 15C11.7165 15 10.875 14.1585 10.875 13.125C10.875 12.0915 11.7165 11.25 12.75 11.25C13.7835 11.25 14.625 12.0915 14.625 13.125C14.625 14.1585 13.7835 15 12.75 15ZM12.75 12C12.1298 12 11.625 12.5048 11.625 13.125C11.625 13.7453 12.1298 14.25 12.75 14.25C13.3703 14.25 13.875 13.7453 13.875 13.125C13.875 12.5048 13.3703 12 12.75 12Z" fill="white"/>
<path d="M13.3477 18.0002H12.1515C11.7645 18.0002 11.4435 17.71 11.4052 17.3245L11.31 16.3712C11.0827 16.27 10.866 16.144 10.6612 15.994L9.78525 16.3892C9.4335 16.5497 9.02025 16.4155 8.8275 16.0802L8.22975 15.0445C8.03625 14.7092 8.12775 14.2862 8.44125 14.0605L9.213 13.5055C9.198 13.3892 9.1875 13.2602 9.1875 13.1252C9.1875 12.9902 9.198 12.8605 9.213 12.745L8.44125 12.19C8.12775 11.9642 8.03625 11.5412 8.22975 11.206L8.8275 10.1702C9.021 9.83498 9.432 9.70223 9.78525 9.86123L10.6612 10.2565C10.866 10.1065 11.0827 9.98048 11.31 9.87923L11.4052 8.92598C11.4435 8.54123 11.7645 8.25098 12.1515 8.25098H13.3477C13.7347 8.25098 14.0557 8.54123 14.094 8.92673L14.1892 9.87998C14.4172 9.98123 14.634 10.108 14.838 10.2572L15.714 9.86198C16.0672 9.70373 16.479 9.83648 16.6717 10.171L17.2695 11.2067C17.463 11.542 17.3715 11.965 17.058 12.1907L16.2862 12.7457C16.3012 12.862 16.3117 12.991 16.3117 13.126C16.3117 13.261 16.3012 13.3907 16.2862 13.5062L17.058 14.0612C17.3715 14.287 17.463 14.71 17.2695 15.0452L16.6725 16.0802C16.479 16.4147 16.0687 16.549 15.7147 16.3892L14.8387 15.994C14.634 16.144 14.4172 16.27 14.19 16.3712L14.094 17.3252C14.0557 17.71 13.7347 18.0002 13.3477 18.0002ZM10.7137 15.184C10.8 15.184 10.8855 15.214 10.9545 15.2717C11.2087 15.4847 11.49 15.6475 11.7892 15.757C11.9242 15.8065 12.0195 15.9287 12.0337 16.072L12.1522 17.2502H13.3485L13.4662 16.072C13.4805 15.9287 13.5757 15.8065 13.7107 15.757C14.01 15.6475 14.2912 15.484 14.5455 15.2717C14.6565 15.1795 14.8095 15.1585 14.94 15.2177L16.023 15.7067L16.6207 14.671L15.6622 13.9825C15.5452 13.8985 15.4875 13.7545 15.5115 13.6127C15.5392 13.4545 15.5617 13.2932 15.5617 13.1267C15.5617 12.9602 15.5392 12.799 15.5115 12.6407C15.4867 12.499 15.5452 12.3557 15.6622 12.271L16.6207 11.5825L16.023 10.5467L14.94 11.035C14.8087 11.0942 14.6557 11.0732 14.5447 10.981C14.2912 10.768 14.0107 10.6052 13.71 10.4957C13.575 10.4462 13.4797 10.324 13.4655 10.1807L13.3477 9.00023H12.1515L12.0337 10.1785C12.0195 10.3217 11.9242 10.444 11.7892 10.4935C11.49 10.603 11.2087 10.7665 10.9545 10.9787C10.8442 11.071 10.6912 11.0927 10.56 11.0327L9.477 10.5437L8.87925 11.5795L9.83775 12.268C9.95475 12.352 10.0125 12.496 9.9885 12.6377C9.96075 12.796 9.93825 12.9572 9.93825 13.1237C9.93825 13.2902 9.96075 13.4515 9.9885 13.6097C10.0132 13.7515 9.95475 13.8947 9.83775 13.9795L8.87925 14.668L9.477 15.7037L10.56 15.2155C10.6095 15.1945 10.6612 15.184 10.7137 15.184Z" fill="white"/>
</g>
<defs>
<clipPath id="clip0_324_29219">
<rect width="18" height="18" fill="white"/>
</clipPath>
</defs>
</svg>
