<svg width="23" height="23" viewBox="0 0 23 23" fill="none" xmlns="http://www.w3.org/2000/svg">
<path fill-rule="evenodd" clip-rule="evenodd" d="M23 7.97924V2.64078C23 2.294 22.9318 1.95061 22.7991 1.63022C22.6664 1.30983 22.4719 1.01871 22.2267 0.773484C21.9815 0.528261 21.6904 0.333738 21.37 0.201023C21.0497 0.0683078 20.7063 -1.97321e-09 20.3595 0H15.021C14.3207 0 13.649 0.278224 13.1537 0.773467C12.6585 1.26871 12.3803 1.9404 12.3803 2.64078V7.97924C12.3803 8.32602 12.4486 8.6694 12.5813 8.98978C12.714 9.31016 12.9085 9.60126 13.1537 9.84646C13.399 10.0917 13.6901 10.2861 14.0105 10.4188C14.3309 10.5515 14.6743 10.6198 15.021 10.6197H20.3595C21.0598 10.6197 21.7314 10.3415 22.2266 9.84636C22.7218 9.35117 23 8.67954 23 7.97924ZM21.2395 2.64078V7.97896C21.2395 8.21237 21.1468 8.43622 20.9818 8.6013C20.8167 8.76637 20.5929 8.85915 20.3595 8.85922H15.021C14.7876 8.85922 14.5638 8.76652 14.3987 8.6015C14.2336 8.43648 14.1409 8.21265 14.1408 7.97924V2.64078C14.1408 2.40732 14.2335 2.18342 14.3986 2.01834C14.5637 1.85326 14.7876 1.76052 15.021 1.76052H20.3592C20.5927 1.76052 20.8166 1.85326 20.9817 2.01834C21.1467 2.18342 21.2395 2.40732 21.2395 2.64078ZM11.5 2.64078C11.5 1.9404 11.2218 1.26871 10.7265 0.773467C10.2313 0.278224 9.5596 0 8.85922 0H2.64078C1.9404 0 1.26871 0.278224 0.773467 0.773467C0.278224 1.26871 0 1.9404 0 2.64078V20.3026C0 21.003 0.278224 21.6747 0.773467 22.1699C1.26871 22.6652 1.9404 22.9434 2.64078 22.9434H8.85922C9.206 22.9434 9.54939 22.8751 9.86978 22.7425C10.1902 22.6098 10.4813 22.4153 10.7265 22.1701C10.9717 21.9249 11.1663 21.6338 11.299 21.3134C11.4317 20.993 11.5 20.6497 11.5 20.3029V2.64078ZM9.73948 2.64078V20.3026C9.73948 20.5361 9.64674 20.76 9.48166 20.925C9.31658 21.0901 9.09268 21.1829 8.85922 21.1829H2.64078C2.40737 21.1829 2.18351 21.0902 2.01844 20.9251C1.85337 20.7601 1.76059 20.5363 1.76052 20.3029V2.64078C1.76052 2.40737 1.85322 2.18351 2.01824 2.01844C2.18326 1.85337 2.40709 1.76059 2.6405 1.76052H8.85922C9.09268 1.76052 9.31658 1.85326 9.48166 2.01834C9.64674 2.18342 9.73948 2.40732 9.73948 2.64078ZM16.7548 15.8765H14.1273C13.8977 15.8823 13.6794 15.9776 13.5191 16.1421C13.3587 16.3065 13.269 16.5271 13.269 16.7568C13.269 16.9865 13.3587 17.207 13.5191 17.3715C13.6794 17.5359 13.8977 17.6312 14.1273 17.637H16.7548V20.2539C16.7549 20.4873 16.8477 20.7111 17.0128 20.8761C17.1778 21.0412 17.4016 21.134 17.6351 21.1341C17.8685 21.134 18.0923 21.0412 18.2573 20.8761C18.4224 20.7111 18.5152 20.4873 18.5153 20.2539V17.637H21.1829C21.4125 17.6312 21.6307 17.5359 21.7911 17.3715C21.9514 17.207 22.0411 16.9865 22.0411 16.7568C22.0411 16.5271 21.9514 16.3065 21.7911 16.1421C21.6307 15.9776 21.4125 15.8823 21.1829 15.8765H18.5153V13.2039C18.5095 12.9743 18.4142 12.7561 18.2498 12.5957C18.0853 12.4354 17.8647 12.3456 17.6351 12.3456C17.4054 12.3456 17.1848 12.4354 17.0203 12.5957C16.8559 12.7561 16.7606 12.9743 16.7548 13.2039V15.8765Z" fill="white"/>
</svg>
