<svg width="23" height="23" viewBox="0 0 23 23" fill="none" xmlns="http://www.w3.org/2000/svg">
<path fill-rule="evenodd" clip-rule="evenodd" d="M22.9785 8.2828C22.9785 7.50368 22.6686 6.75556 22.1182 6.20409C21.5665 5.65347 20.8189 5.34408 20.0395 5.34375H2.93954C2.16043 5.34375 1.41231 5.65369 0.860835 6.20409C0.310213 6.7558 0.000823177 7.50333 0.000495911 8.2828V19.5046C0.000495911 20.2837 0.310432 21.0319 0.860835 21.5833C1.41254 22.1339 2.16008 22.4433 2.93954 22.4437H20.0395C20.8186 22.4437 21.5667 22.1337 22.1182 21.5833C22.6688 21.0316 22.9782 20.2841 22.9785 19.5046V8.2828ZM21.3754 8.2828V19.5046C21.3748 19.8588 21.2339 20.1982 20.9835 20.4486C20.7331 20.699 20.3936 20.84 20.0395 20.8405H2.93954C2.58541 20.84 2.24594 20.699 1.99552 20.4486C1.74511 20.1982 1.60418 19.8588 1.60361 19.5046V8.2828C1.60418 7.92866 1.74511 7.58919 1.99552 7.33878C2.24594 7.08836 2.58541 6.94743 2.93954 6.94687H20.0395C20.3936 6.94743 20.7331 7.08836 20.9835 7.33878C21.2339 7.58919 21.3748 7.92866 21.3754 8.2828Z" fill="white"/>
<path fill-rule="evenodd" clip-rule="evenodd" d="M0.347828 9.08605L8.59212 14.7472C9.44425 15.3326 10.4548 15.6439 11.4887 15.6393C12.5225 15.6347 13.5303 15.3145 14.3772 14.7215L22.6365 8.93963C22.7265 8.8809 22.8038 8.80466 22.8637 8.71546C22.9237 8.62626 22.9651 8.52592 22.9855 8.4204C23.0058 8.31488 23.0048 8.20633 22.9824 8.10122C22.96 7.99611 22.9167 7.89658 22.855 7.80855C22.7934 7.72052 22.7146 7.64578 22.6235 7.58879C22.5324 7.53179 22.4308 7.49371 22.3246 7.47679C22.2185 7.45987 22.11 7.46447 22.0057 7.49031C21.9014 7.51615 21.8033 7.56271 21.7174 7.62721L13.4581 13.4081C12.8786 13.8137 12.189 14.0328 11.4816 14.036C10.7743 14.0393 10.0827 13.8265 9.49949 13.4262L1.25626 7.76401C1.08095 7.64355 0.864961 7.59766 0.655813 7.63644C0.446666 7.67522 0.261492 7.7955 0.141026 7.97082C0.0205605 8.14613 -0.0253284 8.36212 0.0134545 8.57126C0.0522374 8.78041 0.172515 8.96558 0.347828 9.08605Z" fill="white"/>
<path fill-rule="evenodd" clip-rule="evenodd" d="M14.7043 13.6211L21.2888 21.1024C21.3572 21.185 21.4415 21.2531 21.5367 21.3026C21.6319 21.3521 21.736 21.3819 21.843 21.3904C21.9499 21.3989 22.0575 21.3859 22.1593 21.352C22.2611 21.3181 22.3551 21.2642 22.4357 21.1934C22.5162 21.1225 22.5818 21.0362 22.6284 20.9396C22.675 20.843 22.7017 20.738 22.707 20.6308C22.7122 20.5236 22.696 20.4165 22.6591 20.3158C22.6222 20.215 22.5654 20.1227 22.4922 20.0443L15.9077 12.5631C15.7654 12.4108 15.5694 12.3198 15.3613 12.3096C15.1531 12.2993 14.9491 12.3706 14.7926 12.5082C14.6361 12.6458 14.5393 12.839 14.5228 13.0468C14.5063 13.2545 14.5714 13.4606 14.7043 13.6211ZM6.98473 12.5781L0.721889 20.0593C0.654381 20.14 0.603429 20.2332 0.571943 20.3336C0.540456 20.434 0.529052 20.5396 0.53838 20.6444C0.547709 20.7492 0.577588 20.8511 0.626312 20.9444C0.675036 21.0376 0.74165 21.1204 0.822351 21.1879C0.903052 21.2554 0.996259 21.3063 1.09665 21.3378C1.19704 21.3693 1.30265 21.3807 1.40745 21.3714C1.51225 21.362 1.61419 21.3322 1.70744 21.2834C1.80069 21.2347 1.88344 21.1681 1.95095 21.0874L8.21379 13.6062C8.2813 13.5255 8.33225 13.4323 8.36373 13.3319C8.39522 13.2315 8.40663 13.1259 8.3973 13.0211C8.38797 12.9163 8.35809 12.8143 8.30937 12.7211C8.26064 12.6278 8.19403 12.5451 8.11333 12.4776C8.03262 12.4101 7.93942 12.3591 7.83903 12.3276C7.73863 12.2962 7.63302 12.2848 7.52822 12.2941C7.42342 12.3034 7.32149 12.3333 7.22823 12.382C7.13498 12.4307 7.05224 12.4974 6.98473 12.5781ZM6.68014 1.60312H16.2988C16.5114 1.60312 16.7153 1.51867 16.8656 1.36835C17.016 1.21802 17.1004 1.01414 17.1004 0.801558C17.1004 0.588972 17.016 0.385092 16.8656 0.234771C16.7153 0.0844497 16.5114 0 16.2988 0H6.68014C6.46755 0 6.26367 0.0844497 6.11335 0.234771C5.96303 0.385092 5.87858 0.588972 5.87858 0.801558C5.87858 1.01414 5.96303 1.21802 6.11335 1.36835C6.26367 1.51867 6.46755 1.60312 6.68014 1.60312ZM4.54265 4.27498H18.4363C18.6489 4.27498 18.8528 4.19053 19.0031 4.04021C19.1534 3.88989 19.2379 3.68601 19.2379 3.47342C19.2379 3.26083 19.1534 3.05695 19.0031 2.90663C18.8528 2.75631 18.6489 2.67186 18.4363 2.67186H4.54265C4.33006 2.67186 4.12618 2.75631 3.97586 2.90663C3.82554 3.05695 3.74109 3.26083 3.74109 3.47342C3.74109 3.68601 3.82554 3.88989 3.97586 4.04021C4.12618 4.19053 4.33006 4.27498 4.54265 4.27498Z" fill="white"/>
</svg>
