<svg width="23" height="23" viewBox="0 0 23 23" fill="none" xmlns="http://www.w3.org/2000/svg">
<path d="M11.5 0C5.11111 0 0 5.11111 0 11.5C0 13.8 0.766667 16.1 2.04444 18.0167L0.255556 21.0833C5.71211e-08 21.4667 5.71211e-08 21.9778 0.255556 22.3611C0.511111 22.7444 0.766667 23 1.27778 23H11.5C17.8889 23 23 17.8889 23 11.5C23 5.11111 17.8889 0 11.5 0ZM11.5 20.4444H3.57778L4.72778 18.5278C4.98333 18.0167 4.98333 17.5056 4.6 17.1222C3.32222 15.5889 2.55556 13.5444 2.55556 11.5C2.55556 6.51667 6.51667 2.55556 11.5 2.55556C16.4833 2.55556 20.4444 6.51667 20.4444 11.5C20.4444 16.4833 16.4833 20.4444 11.5 20.4444Z" fill="white"/>
<path d="M11.6278 5.49414H11.5C10.2222 5.49414 9.07223 6.13303 8.43334 7.15525C7.92223 7.79414 8.05 8.56081 8.68889 8.94414C9.32778 9.32747 10.0944 9.1997 10.4778 8.56081C10.7333 8.17747 11.1167 8.0497 11.5 8.0497H11.6278C12.2667 8.0497 12.7778 8.56081 12.7778 9.1997C12.7778 9.71081 12.3944 10.2219 12.0111 10.3497L11.1167 10.6053C10.6056 10.733 10.2222 11.2441 10.2222 11.7553V12.7775C10.2222 13.5441 10.7333 14.0553 11.5 14.0553C12.1389 14.0553 12.7778 13.5441 12.7778 12.9053C14.3111 12.3941 15.3333 10.9886 15.3333 9.32747C15.3333 7.28303 13.6722 5.49414 11.6278 5.49414Z" fill="white"/>
<path d="M11.5 17.8886C12.2057 17.8886 12.7778 17.3165 12.7778 16.6108C12.7778 15.9051 12.2057 15.333 11.5 15.333C10.7943 15.333 10.2222 15.9051 10.2222 16.6108C10.2222 17.3165 10.7943 17.8886 11.5 17.8886Z" fill="white"/>
</svg>
