<svg width="18" height="18" viewBox="0 0 18 18" fill="none" xmlns="http://www.w3.org/2000/svg">
<g clip-path="url(#clip0_324_28329)">
<path d="M9.96675 9.9209C9.31874 9.92061 8.68206 10.0908 8.12063 10.4144C8.08862 10.4329 8.06056 10.4575 8.03806 10.4868C8.01557 10.5162 7.99907 10.5497 7.98951 10.5854C7.97995 10.6211 7.97752 10.6583 7.98236 10.695C7.98719 10.7316 7.9992 10.767 8.01769 10.799C8.03618 10.831 8.06079 10.859 8.09013 10.8815C8.11946 10.904 8.15294 10.9205 8.18865 10.9301C8.22436 10.9396 8.2616 10.9421 8.29825 10.9372C8.3349 10.9324 8.37024 10.9204 8.40225 10.9019C9.0917 10.5033 9.90701 10.382 10.6827 10.5626C11.4583 10.7432 12.1361 11.2122 12.5786 11.8744C13.021 12.5365 13.1949 13.3423 13.0649 14.128C12.935 14.9137 12.5109 15.6205 11.8787 16.1049C11.2466 16.5893 10.4538 16.815 9.66133 16.7362C8.86884 16.6574 8.13604 16.28 7.6117 15.6806C7.08736 15.0811 6.81077 14.3047 6.83808 13.5087C6.86539 12.7128 7.19455 11.9571 7.75875 11.395C7.78567 11.3691 7.80716 11.3382 7.82197 11.3039C7.83679 11.2696 7.84463 11.2327 7.84504 11.1954C7.84545 11.158 7.83842 11.121 7.82436 11.0864C7.8103 11.0518 7.78949 11.0204 7.76315 10.9939C7.73681 10.9674 7.70546 10.9465 7.67093 10.9322C7.6364 10.918 7.59939 10.9108 7.56205 10.9111C7.52471 10.9113 7.48779 10.919 7.45344 10.9336C7.41909 10.9483 7.38801 10.9696 7.362 10.9964C6.75615 11.5993 6.3782 12.3936 6.29259 13.244C6.20698 14.0944 6.41902 14.9482 6.89254 15.6597C7.36607 16.3712 8.07175 16.8965 8.88926 17.1459C9.70677 17.3952 10.5855 17.3533 11.3755 17.0272C12.1655 16.7011 12.818 16.111 13.2216 15.3577C13.6252 14.6043 13.755 13.7342 13.5888 12.8958C13.4226 12.0574 12.9707 11.3027 12.3102 10.7602C11.6497 10.2178 10.8214 9.9213 9.96675 9.92127V9.9209Z" fill="white"/>
<path d="M10.2724 14.7259H9.56625C9.51166 14.726 9.45758 14.7153 9.4071 14.6945C9.35663 14.6737 9.31075 14.6431 9.2721 14.6046C9.23344 14.566 9.20276 14.5202 9.18181 14.4698C9.16086 14.4194 9.15005 14.3654 9.15 14.3108C9.15 14.2362 9.12037 14.1646 9.06763 14.1119C9.01488 14.0591 8.94334 14.0295 8.86875 14.0295C8.79416 14.0295 8.72262 14.0591 8.66988 14.1119C8.61713 14.1646 8.5875 14.2362 8.5875 14.3108C8.5878 14.57 8.69089 14.8184 8.87417 15.0017C9.05745 15.185 9.30594 15.2881 9.56513 15.2884H9.6375V15.8276C9.6375 15.9022 9.66713 15.9738 9.71988 16.0265C9.77262 16.0793 9.84416 16.1089 9.91875 16.1089C9.99334 16.1089 10.0649 16.0793 10.1176 16.0265C10.1704 15.9738 10.2 15.9022 10.2 15.8276V15.2884H10.2716C10.5309 15.2884 10.7796 15.1854 10.9629 15.0021C11.1463 14.8187 11.2493 14.57 11.2493 14.3108C11.2493 14.0515 11.1463 13.8028 10.9629 13.6195C10.7796 13.4361 10.5309 13.3331 10.2716 13.3331H9.56625C9.45826 13.3299 9.35579 13.2847 9.28055 13.2072C9.20531 13.1297 9.16323 13.0259 9.16323 12.9178C9.16323 12.8098 9.20531 12.706 9.28055 12.6285C9.35579 12.5509 9.45826 12.5058 9.56625 12.5025H10.2724C10.3824 12.5026 10.488 12.5464 10.5658 12.6242C10.6436 12.702 10.6874 12.8076 10.6875 12.9176C10.6875 12.9922 10.7171 13.0638 10.7699 13.1165C10.8226 13.1693 10.8942 13.1989 10.9688 13.1989C11.0433 13.1989 11.1149 13.1693 11.1676 13.1165C11.2204 13.0638 11.25 12.9922 11.25 12.9176C11.2497 12.6584 11.1466 12.41 10.9633 12.2267C10.7801 12.0434 10.5316 11.9403 10.2724 11.94H10.2V11.4004C10.2 11.3258 10.1704 11.2543 10.1176 11.2015C10.0649 11.1488 9.99334 11.1191 9.91875 11.1191C9.84416 11.1191 9.77262 11.1488 9.71988 11.2015C9.66713 11.2543 9.6375 11.3258 9.6375 11.4004V11.94H9.56625C9.31024 11.945 9.0664 12.0503 8.88711 12.2331C8.70783 12.4159 8.6074 12.6618 8.6074 12.9178C8.6074 13.1739 8.70783 13.4197 8.88711 13.6026C9.0664 13.7854 9.31024 13.8906 9.56625 13.8956H10.2724C10.3825 13.8956 10.4881 13.9394 10.5659 14.0172C10.6438 14.0951 10.6875 14.2007 10.6875 14.3108C10.6875 14.4209 10.6438 14.5265 10.5659 14.6043C10.4881 14.6822 10.3825 14.7259 10.2724 14.7259Z" fill="white"/>
<path d="M16.6564 5.86345C16.5853 5.84603 16.5103 5.85698 16.4472 5.89397C16.3841 5.93096 16.3379 5.99108 16.3183 6.06158C16.2988 6.13208 16.3076 6.2074 16.3427 6.27158C16.3778 6.33576 16.4365 6.38373 16.5064 6.40533C17.2672 6.61683 17.4386 6.85533 17.4386 6.91983C17.4386 7.15458 16.338 7.70508 14.2042 7.70508C12.0705 7.70508 10.9695 7.15458 10.9695 6.91983C10.9695 6.68508 12.0697 6.13458 14.2042 6.13458C14.709 6.13275 15.2133 6.16822 15.7129 6.2407C15.7856 6.24936 15.8589 6.22932 15.9171 6.18485C15.9753 6.14038 16.0139 6.07497 16.0247 6.0025C16.0355 5.93004 16.0176 5.85622 15.9749 5.79673C15.9321 5.73723 15.8679 5.69673 15.7957 5.68383C15.2687 5.60755 14.7368 5.56995 14.2042 5.57133C12.3754 5.57133 10.407 5.9932 10.407 6.91908V9.1072C10.407 10.0331 12.3754 10.455 14.2042 10.455C15.4335 10.455 16.7235 10.2633 17.4386 9.85683V10.2011C17.4386 10.4358 16.338 10.9863 14.2042 10.9863C13.9594 10.9863 13.7209 10.9788 13.4917 10.9638C13.4173 10.9595 13.3441 10.9846 13.288 11.0337C13.2319 11.0828 13.1973 11.152 13.1917 11.2263C13.1892 11.2633 13.1939 11.3004 13.2057 11.3355C13.2175 11.3706 13.2362 11.4031 13.2606 11.431C13.285 11.4589 13.3146 11.4816 13.3479 11.498C13.3811 11.5144 13.4173 11.524 13.4542 11.5263C13.6961 11.5421 13.947 11.5503 14.2042 11.5503C15.4335 11.5503 16.7235 11.3587 17.4386 10.9503V11.2946C17.4386 11.5293 16.338 12.0821 14.2042 12.0821C14.2042 12.0821 14.0869 12.0843 14.0347 12.0821C13.961 12.0826 13.8901 12.111 13.8364 12.1615C13.7828 12.2121 13.7502 12.2811 13.7452 12.3547C13.7431 12.4293 13.7707 12.5017 13.8218 12.5561C13.873 12.6104 13.9436 12.6422 14.0182 12.6446H14.2057C15.435 12.6446 16.725 12.4526 17.4401 12.0446V12.3888C17.4401 12.6236 16.3395 13.1741 14.2057 13.1741C14.1312 13.1741 14.0596 13.2037 14.0069 13.2565C13.9541 13.3092 13.9245 13.3807 13.9245 13.4553C13.9245 13.5299 13.9541 13.6015 14.0069 13.6542C14.0596 13.7069 14.1312 13.7366 14.2057 13.7366C15.435 13.7366 16.725 13.5446 17.4401 13.1385V13.5101C17.4401 13.7448 16.3395 14.2953 14.2057 14.2953H14.1049C14.0315 14.2985 13.9619 14.3287 13.9095 14.38C13.857 14.4314 13.8254 14.5003 13.8206 14.5736C13.8199 14.6481 13.8488 14.7199 13.901 14.7732C13.9531 14.8265 14.0243 14.8569 14.0989 14.8578H14.2057C16.0316 14.859 18 14.4371 18 13.5112V6.91983C18 6.60858 17.7667 6.17283 16.6564 5.86345ZM14.2031 8.26758C15.4324 8.26758 16.7224 8.07595 17.4375 7.66945V8.0137C17.4375 8.24845 16.3369 8.8012 14.2031 8.8012C12.0694 8.8012 10.9684 8.25033 10.9684 8.0137V7.66945C11.6835 8.07595 12.975 8.26758 14.2031 8.26758ZM14.2031 9.8932C12.0686 9.8932 10.9684 9.3427 10.9684 9.10795V8.7637C11.6835 9.1702 12.9731 9.3637 14.2031 9.3637C15.4331 9.3637 16.7224 9.17208 17.4375 8.7637V9.10795C17.4375 9.3427 16.3369 9.8932 14.2031 9.8932Z" fill="white"/>
<path d="M5.925 15.105C5.826 15.1088 5.72625 15.111 5.625 15.111C2.64375 15.111 0.5625 13.4007 0.5625 10.9519C0.5625 8.95505 1.9125 6.00192 3.92587 4.7888C3.95325 4.77192 3.97612 4.7513 4.00087 4.73255H6.3C6.37459 4.73255 6.44613 4.70292 6.49887 4.65017C6.55162 4.59743 6.58125 4.52589 6.58125 4.4513C6.58125 4.37671 6.55162 4.30517 6.49887 4.25242C6.44613 4.19968 6.37459 4.17005 6.3 4.17005H4.35563C4.394 3.95865 4.35027 3.74057 4.23337 3.5603C3.28275 2.08767 3.09787 1.42505 3.13237 1.2533C3.136 1.25542 3.1402 1.25634 3.14438 1.25592C3.56672 1.25886 3.98642 1.32277 4.3905 1.44567C4.78144 1.5645 5.18719 1.62762 5.59575 1.63317C6.05764 1.62184 6.51642 1.55409 6.96187 1.43142C7.31489 1.33421 7.67736 1.27537 8.043 1.25592C8.03288 1.4678 7.82288 2.09367 7.0965 3.33342H4.95C4.87541 3.33342 4.80387 3.36305 4.75113 3.4158C4.69838 3.46854 4.66875 3.54008 4.66875 3.61467C4.66875 3.68926 4.69838 3.7608 4.75113 3.81355C4.80387 3.86629 4.87541 3.89592 4.95 3.89592H6.84825C6.83439 4.00075 6.8405 4.10725 6.86625 4.2098C6.89639 4.3263 6.94949 4.4356 7.02245 4.5313C7.09542 4.62699 7.18676 4.70714 7.29113 4.76705C8.30354 5.42642 9.12455 6.34068 9.67163 7.41792C9.68874 7.45132 9.71236 7.48096 9.7411 7.50509C9.76984 7.52923 9.80312 7.54736 9.83898 7.55843C9.87484 7.5695 9.91256 7.57328 9.9499 7.56955C9.98724 7.56582 10.0235 7.55466 10.0564 7.53671C10.0894 7.51877 10.1184 7.49441 10.1418 7.46507C10.1652 7.43573 10.1825 7.402 10.1927 7.36587C10.2028 7.32974 10.2057 7.29195 10.201 7.25471C10.1963 7.21747 10.1843 7.18155 10.1655 7.14905C9.57008 5.98274 8.67756 4.99411 7.578 4.28292C7.53769 4.26051 7.50224 4.2303 7.47372 4.19406C7.4452 4.15781 7.42417 4.11625 7.41187 4.0718C7.40228 4.03447 7.40036 3.99558 7.40623 3.95749C7.41209 3.91939 7.42562 3.88289 7.446 3.85017C8.8575 1.50192 8.6295 1.0988 8.5335 0.925172C8.49074 0.851203 8.42862 0.790292 8.35382 0.748995C8.27902 0.707698 8.19438 0.687577 8.109 0.690797C7.67784 0.703198 7.24975 0.767538 6.834 0.882422C6.43065 0.99497 6.01509 1.05793 5.5965 1.06992C5.23652 1.06353 4.87924 1.00634 4.53525 0.900047C4.08403 0.765304 3.61602 0.695108 3.14512 0.691547C3.04453 0.685032 2.94415 0.707102 2.85556 0.75521C2.76698 0.803317 2.69381 0.8755 2.6445 0.963422C2.55 1.13705 2.29875 1.5983 3.76163 3.86405C3.78363 3.89669 3.79862 3.93353 3.80565 3.97226C3.81269 4.01099 3.81162 4.05076 3.8025 4.08905C3.79087 4.13471 3.77012 4.17755 3.74151 4.215C3.7129 4.25244 3.67701 4.28371 3.636 4.30692C1.4625 5.6183 0 8.80167 0 10.9519C0 13.6875 2.36625 15.675 5.625 15.675C5.733 15.675 5.84025 15.6728 5.94675 15.6683C5.98368 15.6668 6.01997 15.6581 6.05354 15.6427C6.0871 15.6272 6.11729 15.6052 6.14238 15.5781C6.16747 15.551 6.18697 15.5191 6.19976 15.4845C6.21255 15.4498 6.21839 15.4129 6.21694 15.376C6.21549 15.3391 6.20677 15.3028 6.1913 15.2692C6.17582 15.2356 6.15388 15.2054 6.12674 15.1804C6.0996 15.1553 6.06778 15.1358 6.0331 15.123C5.99842 15.1102 5.96156 15.1043 5.92462 15.1058L5.925 15.105Z" fill="white"/>
</g>
<defs>
<clipPath id="clip0_324_28329">
<rect width="18" height="18" fill="white"/>
</clipPath>
</defs>
</svg>
