<svg width="18" height="18" viewBox="0 0 18 18" fill="none" xmlns="http://www.w3.org/2000/svg">
<path d="M15.3633 9.42724H13.6013C13.3615 9.42724 13.1293 9.46 12.9084 9.52026C12.4725 8.66343 11.5826 8.07471 10.5572 8.07471H7.44275C6.41735 8.07471 5.52748 8.66343 5.09161 9.52026C4.87065 9.46 4.63848 9.42724 4.39868 9.42724H2.63672C1.18283 9.42724 0 10.6101 0 12.064V14.8806C0 15.7529 0.709699 16.4626 1.58203 16.4626H16.418C17.2903 16.4626 18 15.7529 18 14.8806V12.064C18 10.6101 16.8172 9.42724 15.3633 9.42724ZM4.80604 10.7115V15.408H1.58203C1.29125 15.408 1.05469 15.1714 1.05469 14.8806V12.064C1.05469 11.1917 1.76439 10.482 2.63672 10.482H4.39868C4.54184 10.482 4.68046 10.5014 4.81243 10.5372C4.80864 10.5949 4.80604 10.6529 4.80604 10.7115ZM12.1393 15.408H5.86072V10.7115C5.86072 9.83913 6.57042 9.12943 7.44275 9.12943H10.5572C11.4296 9.12943 12.1393 9.83913 12.1393 10.7115V15.408ZM16.9453 14.8806C16.9453 15.1714 16.7087 15.408 16.418 15.408H13.194V10.7115C13.194 10.6529 13.1914 10.5948 13.1876 10.5372C13.3195 10.5014 13.4582 10.4819 13.6013 10.4819H15.3633C16.2356 10.4819 16.9453 11.1916 16.9453 12.064V14.8806Z" fill="white"/>
<path d="M3.51773 4.44727C2.22578 4.44727 1.17471 5.49833 1.17471 6.79029C1.17467 8.08225 2.22578 9.13331 3.51773 9.13331C4.80965 9.13331 5.86076 8.08225 5.86076 6.79029C5.86076 5.49833 4.80969 4.44727 3.51773 4.44727ZM3.5177 8.07863C2.8073 8.07863 2.22936 7.50069 2.22936 6.79029C2.22936 6.07989 2.8073 5.50195 3.5177 5.50195C4.2281 5.50195 4.80603 6.07989 4.80603 6.79029C4.80603 7.50069 4.2281 8.07863 3.5177 8.07863Z" fill="white"/>
<path d="M9 1.53711C7.27397 1.53711 5.86976 2.94132 5.86976 4.66735C5.86976 6.39338 7.27397 7.79759 9 7.79759C10.726 7.79759 12.1302 6.39338 12.1302 4.66735C12.1302 2.94136 10.726 1.53711 9 1.53711ZM9 6.74291C7.85552 6.74291 6.92445 5.81183 6.92445 4.66735C6.92445 3.52291 7.85552 2.5918 9 2.5918C10.1445 2.5918 11.0756 3.52287 11.0756 4.66735C11.0756 5.81183 10.1445 6.74291 9 6.74291Z" fill="white"/>
<path d="M14.4823 4.44727C13.1903 4.44727 12.1392 5.49833 12.1392 6.79029C12.1393 8.08225 13.1903 9.13331 14.4823 9.13331C15.7742 9.13331 16.8253 8.08225 16.8253 6.79029C16.8253 5.49833 15.7742 4.44727 14.4823 4.44727ZM14.4823 8.07863C13.7719 8.07863 13.1939 7.50069 13.1939 6.79029C13.194 6.07989 13.7719 5.50195 14.4823 5.50195C15.1927 5.50195 15.7706 6.07989 15.7706 6.79029C15.7706 7.50069 15.1927 8.07863 14.4823 8.07863Z" fill="white"/>
</svg>
